<?xml version="1.0" encoding="UTF-8"?>
<svg xmlns="http://www.w3.org/2000/svg" version="1.1" viewBox="0 0 82.7 82.7">
  <defs>
    <style>
      .cls-1 {
        fill: #d80000;
        stroke-width: 0px;
      }
    </style>
  </defs>
  <path id="heartIcon" class="cls-1" d="M55.2,46.9c3.2-2.8,4.7-7.5,3.8-11.9-.4-1.8-1.1-3.5-2.2-4.8-1.1-1.3-2.4-2.3-4-2.8-5.3-1.9-9.4,1.4-11.4,4.1-2-2.8-6.1-6-11.4-4.1-3.2,1.1-5.5,3.9-6.2,7.6-.9,4.4.6,9.1,3.8,11.9l.4.4c5.1,4.5,11.4,10.2,12.5,12.6.2.3.5.6.9.6s.7-.2.9-.6c1.1-2.4,7.4-8,12.5-12.6,0,0,.4-.4.4-.4Z"/>
</svg>