<?xml version="1.0" encoding="UTF-8"?>
<svg id="Vrstva_1" data-name="Vrstva 1" xmlns="http://www.w3.org/2000/svg" version="1.1" xmlns:xlink="http://www.w3.org/1999/xlink" viewBox="0 0 82.7 82.7">
  <defs>
    <style>
      .cls-1 {
        fill: url(#Nepojmenovaný_přechod_36);
      }

      .cls-1, .cls-2, .cls-3, .cls-4, .cls-5, .cls-6, .cls-7, .cls-8, .cls-9, .cls-10, .cls-11, .cls-12, .cls-13, .cls-14, .cls-15, .cls-16, .cls-17, .cls-18, .cls-19, .cls-20, .cls-21, .cls-22, .cls-23, .cls-24, .cls-25, .cls-26, .cls-27, .cls-28, .cls-29, .cls-30, .cls-31, .cls-32, .cls-33, .cls-34, .cls-35, .cls-36, .cls-37, .cls-38, .cls-39, .cls-40, .cls-41, .cls-42, .cls-43, .cls-44, .cls-45, .cls-46, .cls-47, .cls-48, .cls-49, .cls-50, .cls-51, .cls-52, .cls-53, .cls-54 {
        stroke-width: 0px;
      }

      .cls-1, .cls-4, .cls-5, .cls-6, .cls-8, .cls-9, .cls-10, .cls-11, .cls-12, .cls-13, .cls-14, .cls-15, .cls-16, .cls-17, .cls-18, .cls-19, .cls-20, .cls-21, .cls-22, .cls-23, .cls-24, .cls-25, .cls-26, .cls-27, .cls-28, .cls-29, .cls-30, .cls-31, .cls-32, .cls-33, .cls-34, .cls-35, .cls-36, .cls-37, .cls-38, .cls-40, .cls-41, .cls-42, .cls-43, .cls-44, .cls-45, .cls-46, .cls-47, .cls-48, .cls-49, .cls-50, .cls-51, .cls-52, .cls-53, .cls-54 {
        fill-rule: evenodd;
      }

      .cls-2 {
        fill: #ccc;
      }

      .cls-3 {
        fill: #c93;
      }

      .cls-4 {
        fill: url(#Nepojmenovaný_přechod_21);
      }

      .cls-5 {
        fill: url(#Nepojmenovaný_přechod_19);
      }

      .cls-6 {
        fill: url(#Nepojmenovaný_přechod_42);
        opacity: .7;
      }

      .cls-6, .cls-55, .cls-36, .cls-44 {
        isolation: isolate;
      }

      .cls-6, .cls-36, .cls-44 {
        mix-blend-mode: screen;
      }

      .cls-7, .cls-40 {
        fill: #000;
      }

      .cls-8 {
        fill: url(#Nepojmenovaný_přechod_10);
      }

      .cls-9 {
        fill: url(#Nepojmenovaný_přechod_22);
      }

      .cls-10 {
        fill: #143566;
      }

      .cls-11 {
        fill: url(#Nepojmenovaný_přechod_27);
      }

      .cls-12 {
        fill: url(#Nepojmenovaný_přechod_17);
      }

      .cls-13 {
        fill: url(#Nepojmenovaný_přechod_18);
      }

      .cls-14 {
        fill: url(#Nepojmenovaný_přechod_28);
      }

      .cls-15 {
        fill: url(#Nepojmenovaný_přechod_38);
      }

      .cls-16 {
        fill: url(#Nepojmenovaný_přechod_14);
      }

      .cls-17 {
        fill: url(#Nepojmenovaný_přechod_3);
      }

      .cls-18 {
        fill: url(#Nepojmenovaný_přechod_16);
      }

      .cls-19 {
        fill: url(#Nepojmenovaný_přechod_4);
      }

      .cls-20 {
        fill: #0e2444;
      }

      .cls-21 {
        fill: url(#Nepojmenovaný_přechod_29);
      }

      .cls-22 {
        fill: url(#Nepojmenovaný_přechod_11);
      }

      .cls-23 {
        fill: url(#Nepojmenovaný_přechod_13);
      }

      .cls-24 {
        fill: url(#Nepojmenovaný_přechod);
      }

      .cls-25 {
        fill: url(#Nepojmenovaný_přechod_24);
      }

      .cls-26 {
        fill: url(#Nepojmenovaný_přechod_31);
      }

      .cls-27 {
        fill: url(#Nepojmenovaný_přechod_41);
      }

      .cls-28 {
        fill: url(#Nepojmenovaný_přechod_25);
      }

      .cls-29 {
        fill: url(#Nepojmenovaný_přechod_40);
      }

      .cls-30 {
        fill: url(#Nepojmenovaný_přechod_8);
      }

      .cls-31 {
        fill: #214a72;
      }

      .cls-32 {
        fill: #132d54;
      }

      .cls-33 {
        fill: url(#Nepojmenovaný_přechod_37);
      }

      .cls-34 {
        fill: url(#Nepojmenovaný_přechod_26);
      }

      .cls-35 {
        fill: url(#Nepojmenovaný_přechod_15);
      }

      .cls-36 {
        fill: url(#Nepojmenovaný_přechod_43);
      }

      .cls-37 {
        fill: url(#Nepojmenovaný_přechod_32);
      }

      .cls-38 {
        fill: url(#Nepojmenovaný_přechod_34);
      }

      .cls-39 {
        fill: url(#Nepojmenovaný_přechod_45);
      }

      .cls-41 {
        fill: url(#Nepojmenovaný_přechod_9);
      }

      .cls-42 {
        fill: url(#Nepojmenovaný_přechod_30);
      }

      .cls-43 {
        fill: url(#Nepojmenovaný_přechod_7);
      }

      .cls-44 {
        fill: url(#Nepojmenovaný_přechod_44);
      }

      .cls-45 {
        fill: url(#Nepojmenovaný_přechod_2);
      }

      .cls-46 {
        fill: url(#Nepojmenovaný_přechod_33);
      }

      .cls-47 {
        fill: url(#Nepojmenovaný_přechod_35);
      }

      .cls-48 {
        fill: url(#Nepojmenovaný_přechod_20);
      }

      .cls-49 {
        fill: url(#Nepojmenovaný_přechod_23);
      }

      .cls-50 {
        fill: url(#Nepojmenovaný_přechod_5);
      }

      .cls-51 {
        fill: url(#Nepojmenovaný_přechod_12);
      }

      .cls-52 {
        fill: url(#Nepojmenovaný_přechod_6);
      }

      .cls-53 {
        fill: url(#Nepojmenovaný_přechod_39);
      }

      .cls-54 {
        fill: #333;
      }
    </style>
    <linearGradient id="Nepojmenovaný_přechod" data-name="Nepojmenovaný přechod" x1="41.4" y1="827.4" x2="41.4" y2="775.3" gradientTransform="translate(0 -760)" gradientUnits="userSpaceOnUse">
      <stop offset="0" stop-color="#101524"/>
      <stop offset="1" stop-color="#1a2540"/>
    </linearGradient>
    <linearGradient id="Nepojmenovaný_přechod_2" data-name="Nepojmenovaný přechod 2" x1="11" y1="791.7" x2="10.3" y2="791" gradientTransform="translate(0 -760)" gradientUnits="userSpaceOnUse">
      <stop offset="0" stop-color="#efe1bb"/>
      <stop offset="1" stop-color="#edd4ae"/>
    </linearGradient>
    <linearGradient id="Nepojmenovaný_přechod_3" data-name="Nepojmenovaný přechod 3" x1="12" y1="792" x2="11.4" y2="791.4" gradientTransform="translate(0 -760)" gradientUnits="userSpaceOnUse">
      <stop offset="0" stop-color="#523329"/>
      <stop offset="1" stop-color="#a27048"/>
    </linearGradient>
    <linearGradient id="Nepojmenovaný_přechod_4" data-name="Nepojmenovaný přechod 4" x1="12.1" y1="786.7" x2="13.1" y2="786.7" gradientTransform="translate(0 -760)" gradientUnits="userSpaceOnUse">
      <stop offset="0" stop-color="#a5734a"/>
      <stop offset="1" stop-color="#e0b177"/>
    </linearGradient>
    <linearGradient id="Nepojmenovaný_přechod_5" data-name="Nepojmenovaný přechod 5" x1="13.1" y1="787.2" x2="14" y2="787.2" gradientTransform="translate(0 -760)" gradientUnits="userSpaceOnUse">
      <stop offset="0" stop-color="#a27048"/>
      <stop offset="1" stop-color="#523329"/>
    </linearGradient>
    <linearGradient id="Nepojmenovaný_přechod_6" data-name="Nepojmenovaný přechod 6" x1="51.8" y1="770.4" x2="51" y2="771.1" gradientTransform="translate(0 -760)" gradientUnits="userSpaceOnUse">
      <stop offset="0" stop-color="#8c6c51"/>
      <stop offset="1" stop-color="#dec2a0"/>
    </linearGradient>
    <linearGradient id="Nepojmenovaný_přechod_7" data-name="Nepojmenovaný přechod 7" x1="51.4" y1="771.4" x2="50.7" y2="772" gradientTransform="translate(0 -760)" gradientUnits="userSpaceOnUse">
      <stop offset="0" stop-color="#a27048"/>
      <stop offset="1" stop-color="#523329"/>
    </linearGradient>
    <linearGradient id="Nepojmenovaný_přechod_8" data-name="Nepojmenovaný přechod 8" x1="72.4" y1="811.7" x2="71.7" y2="811" gradientTransform="translate(0 -760)" gradientUnits="userSpaceOnUse">
      <stop offset="0" stop-color="#523329"/>
      <stop offset="1" stop-color="#a27048"/>
    </linearGradient>
    <linearGradient id="Nepojmenovaný_přechod_9" data-name="Nepojmenovaný přechod 9" x1="71.4" y1="811.4" x2="70.7" y2="810.7" gradientTransform="translate(0 -760)" gradientUnits="userSpaceOnUse">
      <stop offset="0" stop-color="#efe1bb"/>
      <stop offset="1" stop-color="#edd4ae"/>
    </linearGradient>
    <linearGradient id="Nepojmenovaný_přechod_10" data-name="Nepojmenovaný přechod 10" x1="69.7" y1="816" x2="70.6" y2="816" gradientTransform="translate(0 -760)" gradientUnits="userSpaceOnUse">
      <stop offset="0" stop-color="#a27048"/>
      <stop offset="1" stop-color="#523329"/>
    </linearGradient>
    <linearGradient id="Nepojmenovaný_přechod_11" data-name="Nepojmenovaný přechod 11" x1="68.7" y1="815.5" x2="69.7" y2="815.5" gradientTransform="translate(0 -760)" gradientUnits="userSpaceOnUse">
      <stop offset="0" stop-color="#a5734a"/>
      <stop offset="1" stop-color="#e0b177"/>
    </linearGradient>
    <linearGradient id="Nepojmenovaný_přechod_12" data-name="Nepojmenovaný přechod 12" x1="23.5" y1="801.4" x2="23.5" y2="765.6" gradientTransform="translate(0 -760)" gradientUnits="userSpaceOnUse">
      <stop offset="0" stop-color="#b28251"/>
      <stop offset="1" stop-color="#e0b177"/>
    </linearGradient>
    <linearGradient id="Nepojmenovaný_přechod_13" data-name="Nepojmenovaný přechod 13" x1="24.2" y1="801.4" x2="24.3" y2="767.2" gradientTransform="translate(0 -760)" gradientUnits="userSpaceOnUse">
      <stop offset="0" stop-color="#b28251"/>
      <stop offset="1" stop-color="#523329"/>
    </linearGradient>
    <linearGradient id="Nepojmenovaný_přechod_14" data-name="Nepojmenovaný přechod 14" x1="56" y1="773.1" x2="56" y2="772.1" gradientTransform="translate(0 -760)" gradientUnits="userSpaceOnUse">
      <stop offset="0" stop-color="#efe1bb"/>
      <stop offset="1" stop-color="#edd4ae"/>
    </linearGradient>
    <linearGradient id="Nepojmenovaný_přechod_15" data-name="Nepojmenovaný přechod 15" x1="55.5" y1="774" x2="55.5" y2="773.1" gradientTransform="translate(0 -760)" gradientUnits="userSpaceOnUse">
      <stop offset="0" stop-color="#694426"/>
      <stop offset="1" stop-color="#92652d"/>
    </linearGradient>
    <linearGradient id="Nepojmenovaný_přechod_16" data-name="Nepojmenovaný přechod 16" x1="31.7" y1="831.7" x2="31" y2="832.4" gradientTransform="translate(0 -760)" gradientUnits="userSpaceOnUse">
      <stop offset="0" stop-color="#a27048"/>
      <stop offset="1" stop-color="#523329"/>
    </linearGradient>
    <linearGradient id="Nepojmenovaný_přechod_17" data-name="Nepojmenovaný přechod 17" x1="32" y1="830.7" x2="31.4" y2="831.4" gradientTransform="translate(0 -760)" gradientUnits="userSpaceOnUse">
      <stop offset="0" stop-color="#e2bb7e"/>
      <stop offset="1" stop-color="#ece2a9"/>
    </linearGradient>
    <linearGradient id="Nepojmenovaný_přechod_18" data-name="Nepojmenovaný přechod 18" x1="26.8" y1="830.6" x2="26.8" y2="829.7" gradientTransform="translate(0 -760)" gradientUnits="userSpaceOnUse">
      <stop offset="0" stop-color="#694426"/>
      <stop offset="1" stop-color="#92652d"/>
    </linearGradient>
    <linearGradient id="Nepojmenovaný_přechod_19" data-name="Nepojmenovaný přechod 19" x1="27.3" y1="829.7" x2="27.3" y2="828.7" gradientTransform="translate(0 -760)" gradientUnits="userSpaceOnUse">
      <stop offset="0" stop-color="#efe1bb"/>
      <stop offset="1" stop-color="#edd4ae"/>
    </linearGradient>
    <linearGradient id="Nepojmenovaný_přechod_20" data-name="Nepojmenovaný přechod 20" x1="58.4" y1="801.4" x2="58.4" y2="767.2" gradientTransform="translate(0 -760)" gradientUnits="userSpaceOnUse">
      <stop offset="0" stop-color="#b28251"/>
      <stop offset="1" stop-color="#523329"/>
    </linearGradient>
    <linearGradient id="Nepojmenovaný_přechod_21" data-name="Nepojmenovaný přechod 21" x1="59.3" y1="801.4" x2="59.3" y2="765.6" gradientTransform="translate(0 -760)" gradientUnits="userSpaceOnUse">
      <stop offset="0" stop-color="#b28251"/>
      <stop offset="1" stop-color="#e0b177"/>
    </linearGradient>
    <linearGradient id="Nepojmenovaný_přechod_22" data-name="Nepojmenovaný přechod 22" x1="24.3" y1="835.5" x2="24.3" y2="801.4" gradientTransform="translate(0 -760)" gradientUnits="userSpaceOnUse">
      <stop offset="0" stop-color="#fcd4a4"/>
      <stop offset="1" stop-color="#b28251"/>
    </linearGradient>
    <linearGradient id="Nepojmenovaný_přechod_23" data-name="Nepojmenovaný přechod 23" x1="23.5" y1="837.1" x2="23.5" y2="801.4" gradientTransform="translate(0 -760)" gradientUnits="userSpaceOnUse">
      <stop offset="0" stop-color="#523329"/>
      <stop offset="1" stop-color="#b28251"/>
    </linearGradient>
    <linearGradient id="Nepojmenovaný_přechod_24" data-name="Nepojmenovaný přechod 24" x1="69.7" y1="786.7" x2="70.6" y2="786.7" gradientTransform="translate(0 -760)" gradientUnits="userSpaceOnUse">
      <stop offset="0" stop-color="#a27048"/>
      <stop offset="1" stop-color="#523329"/>
    </linearGradient>
    <linearGradient id="Nepojmenovaný_přechod_25" data-name="Nepojmenovaný přechod 25" x1="68.7" y1="787.2" x2="69.7" y2="787.2" gradientTransform="translate(0 -760)" gradientUnits="userSpaceOnUse">
      <stop offset="0" stop-color="#a5734a"/>
      <stop offset="1" stop-color="#e0b177"/>
    </linearGradient>
    <linearGradient id="Nepojmenovaný_přechod_26" data-name="Nepojmenovaný přechod 26" x1="58.5" y1="835.5" x2="58.5" y2="801.4" gradientTransform="translate(0 -760)" gradientUnits="userSpaceOnUse">
      <stop offset="0" stop-color="#fcd4a4"/>
      <stop offset="1" stop-color="#b28251"/>
    </linearGradient>
    <linearGradient id="Nepojmenovaný_přechod_27" data-name="Nepojmenovaný přechod 27" x1="59.2" y1="837.1" x2="59.2" y2="801.4" gradientTransform="translate(0 -760)" gradientUnits="userSpaceOnUse">
      <stop offset="0" stop-color="#523329"/>
      <stop offset="1" stop-color="#b28251"/>
    </linearGradient>
    <linearGradient id="Nepojmenovaný_přechod_28" data-name="Nepojmenovaný přechod 28" x1="56" y1="830.6" x2="56" y2="829.7" gradientTransform="translate(0 -760)" gradientUnits="userSpaceOnUse">
      <stop offset="0" stop-color="#694426"/>
      <stop offset="1" stop-color="#92652d"/>
    </linearGradient>
    <linearGradient id="Nepojmenovaný_přechod_29" data-name="Nepojmenovaný přechod 29" x1="55.5" y1="829.7" x2="55.5" y2="828.7" gradientTransform="translate(0 -760)" gradientUnits="userSpaceOnUse">
      <stop offset="0" stop-color="#efe1bb"/>
      <stop offset="1" stop-color="#edd4ae"/>
    </linearGradient>
    <linearGradient id="Nepojmenovaný_přechod_30" data-name="Nepojmenovaný přechod 30" x1="51.7" y1="832.4" x2="51" y2="831.7" gradientTransform="translate(0 -760)" gradientUnits="userSpaceOnUse">
      <stop offset="0" stop-color="#523329"/>
      <stop offset="1" stop-color="#a27048"/>
    </linearGradient>
    <linearGradient id="Nepojmenovaný_přechod_31" data-name="Nepojmenovaný přechod 31" x1="51.4" y1="831.4" x2="50.7" y2="830.7" gradientTransform="translate(0 -760)" gradientUnits="userSpaceOnUse">
      <stop offset="0" stop-color="#efe1bb"/>
      <stop offset="1" stop-color="#edd4ae"/>
    </linearGradient>
    <linearGradient id="Nepojmenovaný_přechod_32" data-name="Nepojmenovaný přechod 32" x1="12.1" y1="816" x2="13.1" y2="816" gradientTransform="translate(0 -760)" gradientUnits="userSpaceOnUse">
      <stop offset="0" stop-color="#a5734a"/>
      <stop offset="1" stop-color="#e0b177"/>
    </linearGradient>
    <linearGradient id="Nepojmenovaný_přechod_33" data-name="Nepojmenovaný přechod 33" x1="13.1" y1="815.5" x2="14" y2="815.5" gradientTransform="translate(0 -760)" gradientUnits="userSpaceOnUse">
      <stop offset="0" stop-color="#a27048"/>
      <stop offset="1" stop-color="#523329"/>
    </linearGradient>
    <linearGradient id="Nepojmenovaný_přechod_34" data-name="Nepojmenovaný přechod 34" x1="72.4" y1="791" x2="71.7" y2="791.7" gradientTransform="translate(0 -760)" gradientUnits="userSpaceOnUse">
      <stop offset="0" stop-color="#8c6c51"/>
      <stop offset="1" stop-color="#dec2a0"/>
    </linearGradient>
    <linearGradient id="Nepojmenovaný_přechod_35" data-name="Nepojmenovaný přechod 35" x1="71.4" y1="791.4" x2="70.7" y2="792" gradientTransform="translate(0 -760)" gradientUnits="userSpaceOnUse">
      <stop offset="0" stop-color="#a27048"/>
      <stop offset="1" stop-color="#523329"/>
    </linearGradient>
    <linearGradient id="Nepojmenovaný_přechod_36" data-name="Nepojmenovaný přechod 36" x1="11.1" y1="811.1" x2="10.3" y2="811.8" gradientTransform="translate(0 -760)" gradientUnits="userSpaceOnUse">
      <stop offset="0" stop-color="#a27048"/>
      <stop offset="1" stop-color="#523329"/>
    </linearGradient>
    <linearGradient id="Nepojmenovaný_přechod_37" data-name="Nepojmenovaný přechod 37" x1="12" y1="810.7" x2="11.4" y2="811.4" gradientTransform="translate(0 -760)" gradientUnits="userSpaceOnUse">
      <stop offset="0" stop-color="#e2bb7e"/>
      <stop offset="1" stop-color="#ece2a9"/>
    </linearGradient>
    <linearGradient id="Nepojmenovaný_přechod_38" data-name="Nepojmenovaný přechod 38" x1="26.8" y1="773.1" x2="26.8" y2="772.1" gradientTransform="translate(0 -760)" gradientUnits="userSpaceOnUse">
      <stop offset="0" stop-color="#efe1bb"/>
      <stop offset="1" stop-color="#edd4ae"/>
    </linearGradient>
    <linearGradient id="Nepojmenovaný_přechod_39" data-name="Nepojmenovaný přechod 39" x1="27.3" y1="774" x2="27.3" y2="773.1" gradientTransform="translate(0 -760)" gradientUnits="userSpaceOnUse">
      <stop offset="0" stop-color="#694426"/>
      <stop offset="1" stop-color="#92652d"/>
    </linearGradient>
    <linearGradient id="Nepojmenovaný_přechod_40" data-name="Nepojmenovaný přechod 40" x1="31.7" y1="771" x2="31" y2="770.3" gradientTransform="translate(0 -760)" gradientUnits="userSpaceOnUse">
      <stop offset="0" stop-color="#efe1bb"/>
      <stop offset="1" stop-color="#edd4ae"/>
    </linearGradient>
    <linearGradient id="Nepojmenovaný_přechod_41" data-name="Nepojmenovaný přechod 41" x1="32" y1="772" x2="31.4" y2="771.4" gradientTransform="translate(0 -760)" gradientUnits="userSpaceOnUse">
      <stop offset="0" stop-color="#523329"/>
      <stop offset="1" stop-color="#a27048"/>
    </linearGradient>
    <radialGradient id="Nepojmenovaný_přechod_42" data-name="Nepojmenovaný přechod 42" cx="30.2" cy="774.3" fx="30.2" fy="774.3" r="43.1" gradientTransform="translate(0 -760)" gradientUnits="userSpaceOnUse">
      <stop offset="0" stop-color="#435eb0"/>
      <stop offset="1" stop-color="#000"/>
    </radialGradient>
    <radialGradient id="Nepojmenovaný_přechod_43" data-name="Nepojmenovaný přechod 43" cx="12.9" cy="771.3" fx="12.9" fy="771.3" r="24.9" gradientTransform="translate(0 -760)" gradientUnits="userSpaceOnUse">
      <stop offset="0" stop-color="#efe5b8"/>
      <stop offset="1" stop-color="#000"/>
    </radialGradient>
    <radialGradient id="Nepojmenovaný_přechod_44" data-name="Nepojmenovaný přechod 44" cx="40.1" cy="759.4" fx="40.1" fy="759.4" r="42.6" gradientTransform="translate(0 -760)" gradientUnits="userSpaceOnUse">
      <stop offset="0" stop-color="#efe5b8"/>
      <stop offset="1" stop-color="#000"/>
    </radialGradient>
    <linearGradient id="Nepojmenovaný_přechod_45" data-name="Nepojmenovaný přechod 45" x1="29.5" y1="-1244.1" x2="55.4" y2="-1270.3" gradientTransform="translate(0 -1214.4) scale(1 -1)" gradientUnits="userSpaceOnUse">
      <stop offset="0" stop-color="ivory"/>
      <stop offset=".2" stop-color="#edd4ae"/>
      <stop offset=".3" stop-color="#d7b790"/>
      <stop offset=".4" stop-color="#c59e76"/>
      <stop offset=".5" stop-color="#b68b62"/>
      <stop offset=".6" stop-color="#ac7d54"/>
      <stop offset=".8" stop-color="#a6754c"/>
      <stop offset="1" stop-color="#a5734a"/>
    </linearGradient>
  </defs>
  <g class="cls-55">
    <g id="Layer_1" data-name="Layer 1">
      <g>
        <polygon class="cls-54" points="52.7 14 30 14 14 30 14 52.7 30 68.7 52.7 68.7 68.7 52.7 68.7 30 52.7 14 52.7 14"/>
        <polygon class="cls-24" points="52.2 15.3 30.6 15.3 15.3 30.6 15.3 52.2 30.6 67.4 52.2 67.4 67.4 52.2 67.4 30.6 52.2 15.3 52.2 15.3"/>
        <path class="cls-2" d="M.7,40.7L41.4,0l41.4,41.4-41.4,41.4C27.6,68.9,13.8,55.2,0,41.4l.7-.7h0ZM41.4,2.7L2.7,41.4l38.7,38.7,38.7-38.7L41.4,2.7h0Z"/>
        <path class="cls-2" d="M41.4,5.6c9.9,0,18.8,4,25.3,10.5,6.5,6.5,10.5,15.4,10.5,25.3s-4,18.8-10.5,25.3c-6.5,6.5-15.4,10.5-25.3,10.5s-18.8-4-25.3-10.5-10.5-15.4-10.5-25.3,4-18.8,10.5-25.3,15.4-10.5,25.3-10.5h0ZM64.4,18.3c-5.9-5.9-14-9.5-23-9.5s-17.1,3.6-23,9.5-9.5,14-9.5,23,3.6,17.1,9.5,23,14,9.5,23,9.5,17.1-3.6,23-9.5,9.5-14,9.5-23-3.6-17.1-9.5-23h0Z"/>
        <path class="cls-3" d="M13.1,12.1h57.5v58.5H12.1V12.1h1ZM68.7,14H14v54.7h54.7V14h0Z"/>
        <polygon class="cls-45" points="1.4 41.4 21.4 21.4 20.7 20.7 .7 40.7 0 41.4 1.4 41.4 1.4 41.4"/>
        <polygon class="cls-17" points="21.4 21.4 1.4 41.4 2.7 41.4 22 22 21.4 21.4 21.4 21.4"/>
        <polygon class="cls-19" points="13.1 13.1 13.1 41.4 12.1 41.4 12.1 13.1 12.1 12.1 13.1 13.1 13.1 13.1"/>
        <polygon class="cls-50" points="13.1 41.4 13.1 13.1 14 14 14 41.4 13.1 41.4 13.1 41.4"/>
        <polygon class="cls-52" points="41.4 1.4 61.4 21.4 62.1 20.7 42 .7 41.4 0 41.4 1.4 41.4 1.4"/>
        <polygon class="cls-43" points="61.4 21.4 41.4 1.4 41.4 2.7 60.7 22 61.4 21.4 61.4 21.4"/>
        <polygon class="cls-30" points="62.1 62.1 61.4 61.4 81.4 41.4 82.7 41.4 62.1 62.1 62.1 62.1"/>
        <polygon class="cls-41" points="81.4 41.4 61.4 61.4 60.7 60.7 80 41.4 81.4 41.4 81.4 41.4"/>
        <polygon class="cls-8" points="70.6 41.4 69.7 41.4 69.7 69.7 70.6 70.6 70.6 41.4 70.6 41.4"/>
        <polygon class="cls-22" points="69.7 69.7 69.7 41.4 68.7 41.4 68.7 68.7 69.7 69.7 69.7 69.7"/>
        <path class="cls-51" d="M7.2,41.4C7.2,22.5,22.5,7.2,41.4,7.2v-1.6c-9.9,0-18.8,4-25.3,10.5s-10.5,15.4-10.5,25.3c0,0,1.6,0,1.6,0Z"/>
        <path class="cls-23" d="M18.3,18.3c5.9-5.9,14-9.5,23-9.5v-1.6C22.5,7.2,7.2,22.5,7.2,41.4h1.6c0-9,3.6-17.1,9.5-23h0Z"/>
        <polygon class="cls-16" points="41.4 12.1 41.4 13.1 69.7 13.1 70.6 12.1 41.4 12.1 41.4 12.1"/>
        <polygon class="cls-35" points="69.7 13.1 41.4 13.1 41.4 14 68.7 14 69.7 13.1 69.7 13.1"/>
        <polygon class="cls-18" points="20.7 62.1 21.4 61.4 41.4 81.4 41.4 82.7 20.7 62.1 20.7 62.1"/>
        <polygon class="cls-12" points="41.4 81.4 21.4 61.4 22 60.7 41.4 80 41.4 81.4 41.4 81.4"/>
        <polygon class="cls-13" points="13.1 69.7 41.4 69.7 41.4 70.6 13.1 70.6 12.1 70.6 13.1 69.7 13.1 69.7"/>
        <polygon class="cls-5" points="41.4 69.7 13.1 69.7 14 68.7 41.4 68.7 41.4 69.7 41.4 69.7"/>
        <path class="cls-48" d="M41.4,8.8c9,0,17.1,3.6,23,9.5s9.5,14,9.5,23h1.6c0-18.9-15.3-34.2-34.2-34.2v1.6h.1Z"/>
        <path class="cls-4" d="M41.4,7.2c18.9,0,34.2,15.3,34.2,34.2h1.6c0-9.9-4-18.8-10.5-25.3s-15.4-10.5-25.3-10.5v1.6h0Z"/>
        <path class="cls-9" d="M18.3,64.4c-5.9-5.9-9.5-14-9.5-23h-1.6c0,18.9,15.3,34.2,34.2,34.2v-1.6c-9,0-17.1-3.6-23-9.5h-.1Z"/>
        <path class="cls-49" d="M41.4,75.5c-18.9,0-34.2-15.3-34.2-34.2h-1.6c0,9.9,4,18.8,10.5,25.3s15.4,10.5,25.3,10.5v-1.6h0Z"/>
        <polygon class="cls-25" points="69.7 13.1 69.7 41.4 70.6 41.4 70.6 13.1 70.6 12.1 69.7 13.1 69.7 13.1"/>
        <polygon class="cls-28" points="69.7 41.4 69.7 13.1 68.7 14 68.7 41.4 69.7 41.4 69.7 41.4"/>
        <path class="cls-34" d="M64.4,64.4c-5.9,5.9-14,9.5-23,9.5v1.6c18.9,0,34.2-15.3,34.2-34.2h-1.6c0,9-3.6,17.1-9.5,23h-.1Z"/>
        <path class="cls-11" d="M75.5,41.4c0,18.9-15.3,34.2-34.2,34.2v1.6c9.9,0,18.8-4,25.3-10.5s10.5-15.4,10.5-25.3c0,0-1.6,0-1.6,0Z"/>
        <polygon class="cls-14" points="41.4 70.6 41.4 69.7 69.7 69.7 70.6 70.6 41.4 70.6 41.4 70.6"/>
        <polygon class="cls-21" points="69.7 69.7 41.4 69.7 41.4 68.7 68.7 68.7 69.7 69.7 69.7 69.7"/>
        <polygon class="cls-42" points="41.4 81.4 61.4 61.4 62.1 62.1 42 82.1 41.4 82.7 41.4 81.4 41.4 81.4"/>
        <polygon class="cls-26" points="61.4 61.4 41.4 81.4 41.4 80 60.7 60.7 61.4 61.4 61.4 61.4"/>
        <polygon class="cls-37" points="12.1 41.4 13.1 41.4 13.1 69.7 12.1 70.6 12.1 41.4 12.1 41.4"/>
        <polygon class="cls-46" points="13.1 69.7 13.1 41.4 14 41.4 14 68.7 13.1 69.7 13.1 69.7"/>
        <polygon class="cls-38" points="62.1 20.7 61.4 21.4 81.4 41.4 82.7 41.4 62.1 20.7 62.1 20.7"/>
        <polygon class="cls-47" points="81.4 41.4 61.4 21.4 60.7 22 80 41.4 81.4 41.4 81.4 41.4"/>
        <polygon class="cls-1" points="1.4 41.4 21.4 61.4 20.7 62.1 .7 42 0 41.4 1.4 41.4 1.4 41.4"/>
        <polygon class="cls-33" points="21.4 61.4 1.4 41.4 2.7 41.4 22 60.7 21.4 61.4 21.4 61.4"/>
        <polygon class="cls-15" points="13.1 13.1 41.4 13.1 41.4 12.1 13.1 12.1 12.1 12.1 13.1 13.1 13.1 13.1"/>
        <polygon class="cls-53" points="41.4 13.1 13.1 13.1 14 14 41.4 14 41.4 13.1 41.4 13.1"/>
        <polygon class="cls-29" points="20.7 20.7 21.4 21.4 41.4 1.4 41.4 0 20.7 20.7 20.7 20.7"/>
        <polygon class="cls-27" points="41.4 1.4 21.4 21.4 22 22 41.4 2.7 41.4 1.4 41.4 1.4"/>
        <polygon class="cls-31" points="52.2 15.3 52.7 14 30 14 30.6 15.3 52.2 15.3 52.2 15.3"/>
        <polygon class="cls-32" points="67.4 52.2 68.7 52.7 68.7 30 67.4 30.6 67.4 52.2 67.4 52.2"/>
        <polygon class="cls-20" points="67.4 30.6 68.7 30 52.7 14 52.2 15.3 67.4 30.6 67.4 30.6"/>
        <polygon class="cls-40" points="52.2 67.4 52.7 68.7 68.7 52.7 67.4 52.2 52.2 67.4 52.2 67.4"/>
        <polygon class="cls-40" points="52.2 67.4 52.7 68.7 30 68.7 30.6 67.4 52.2 67.4 52.2 67.4"/>
        <polygon class="cls-32" points="15.3 52.2 14 52.7 14 30 15.3 30.6 15.3 52.2 15.3 52.2"/>
        <polygon class="cls-20" points="30.6 67.4 30 68.7 14 52.7 15.3 52.2 30.6 67.4 30.6 67.4"/>
        <polygon class="cls-10" points="15.3 30.6 14 30 30 14 30.6 15.3 15.3 30.6 15.3 30.6"/>
        <polygon class="cls-6" points="30.2 14.3 30.2 15.3 19.2 26.7 30.7 15.6 47.4 15.3 30.8 15 30.2 14.3 30.2 14.3"/>
        <polygon class="cls-36" points="13.1 18.8 12.8 13.1 12.3 12.3 13.2 12.9 27.5 13.1 13.2 13.2 13.1 18.8 13.1 18.8"/>
        <polygon class="cls-44" points="16.9 25.8 41.2 1.2 41.4 .2 41.6 1.2 45 5 41.4 1.8 16.9 25.8 16.9 25.8"/>
      </g>
      <path id="shopIcon" class="cls-39" d="M40.4,59.5c2.5,2.5,6.5,2.5,8.9,0l9.9-9.9c2.5-2.5,2.5-6.5,0-8.9l-13.3-13.3c-1.8-1.8-4.3-2.8-6.9-2.8h-10c-2.6,0-4.8,2.1-4.8,4.8v10c0,2.6,1,5,2.8,6.9l13.2,13.2s.2,0,.2,0ZM30.8,28.9c1.2,0,2.2,1,2.2,2.2s-1,2.2-2.2,2.2-2.2-1-2.2-2.2,1-2.2,2.2-2.2Z"/>
    </g>
  </g>
  <path id="heartIcon" class="cls-7" d="M56.9,46.7c3.6-3.2,5.2-8.5,4.3-13.4-.4-2.1-1.2-3.9-2.4-5.3s-2.7-2.5-4.5-3.2c-6-2.1-10.6,1.5-12.8,4.7-2.3-3.2-6.9-6.8-12.9-4.7-3.6,1.3-6.2,4.4-7,8.6-1,5,.7,10.3,4.3,13.4l.4.4c5.7,5.1,12.9,11.4,14.1,14.2.1.4.6.6,1,.6s.8-.2,1-.6c1.2-2.7,8.3-9.1,14.1-14.2l.4-.4h0Z"/>
</svg>