<?xml version="1.0" encoding="UTF-8"?>
<svg id="Layer_1" data-name="Layer 1" xmlns="http://www.w3.org/2000/svg" version="1.1" xmlns:xlink="http://www.w3.org/1999/xlink" viewBox="0 0 446.1 243.6">
  <defs>
    <style>
      .cls-1 {
        fill: url(#Nepojmenovaný_přechod_21-16);
      }

      .cls-1, .cls-2, .cls-3, .cls-4, .cls-5, .cls-6, .cls-7, .cls-8, .cls-9, .cls-10, .cls-11, .cls-12, .cls-13, .cls-14, .cls-15, .cls-16, .cls-17, .cls-18, .cls-19, .cls-20, .cls-21, .cls-22, .cls-23, .cls-24, .cls-25, .cls-26, .cls-27, .cls-28, .cls-29, .cls-30, .cls-31, .cls-32, .cls-33, .cls-34, .cls-35 {
        stroke-width: 0px;
      }

      .cls-2 {
        fill: url(#Nepojmenovaný_přechod_21-10);
      }

      .cls-3 {
        fill: url(#Nepojmenovaný_přechod_21-3);
      }

      .cls-4 {
        fill: url(#Nepojmenovaný_přechod_21);
      }

      .cls-5 {
        fill: url(#Nepojmenovaný_přechod_21-14);
      }

      .cls-6 {
        fill: url(#Nepojmenovaný_přechod_15-2);
      }

      .cls-7 {
        fill: url(#Nepojmenovaný_přechod_15-7);
      }

      .cls-8 {
        fill: url(#Nepojmenovaný_přechod_15-15);
      }

      .cls-9 {
        fill: url(#Nepojmenovaný_přechod_15-11);
      }

      .cls-10 {
        fill: url(#Nepojmenovaný_přechod_15-8);
      }

      .cls-11 {
        fill: url(#Nepojmenovaný_přechod_15-10);
      }

      .cls-12 {
        fill: url(#Nepojmenovaný_přechod_21-13);
      }

      .cls-13 {
        fill: url(#Nepojmenovaný_přechod_15-4);
      }

      .cls-14 {
        fill: url(#Nepojmenovaný_přechod_21-5);
      }

      .cls-15 {
        fill: url(#Nepojmenovaný_přechod_15-13);
      }

      .cls-16 {
        fill: url(#Nepojmenovaný_přechod_21-17);
      }

      .cls-17 {
        fill: url(#Nepojmenovaný_přechod_15);
      }

      .cls-18 {
        fill: url(#Nepojmenovaný_přechod_21-15);
      }

      .cls-19 {
        fill: url(#Nepojmenovaný_přechod_21-2);
      }

      .cls-20 {
        fill: url(#Nepojmenovaný_přechod_21-4);
      }

      .cls-21 {
        fill: url(#Nepojmenovaný_přechod_21-8);
      }

      .cls-22 {
        fill: url(#Nepojmenovaný_přechod_21-11);
      }

      .cls-23 {
        fill: url(#Nepojmenovaný_přechod_21-19);
      }

      .cls-24 {
        fill: url(#Nepojmenovaný_přechod_21-18);
      }

      .cls-25 {
        fill: url(#Nepojmenovaný_přechod_21-9);
      }

      .cls-26 {
        fill: url(#Nepojmenovaný_přechod_15-5);
      }

      .cls-27 {
        fill: url(#Nepojmenovaný_přechod_21-12);
      }

      .cls-28 {
        fill: url(#Nepojmenovaný_přechod_15-3);
      }

      .cls-29 {
        fill: url(#Nepojmenovaný_přechod_15-6);
      }

      .cls-30 {
        fill: url(#Nepojmenovaný_přechod_15-12);
      }

      .cls-31 {
        fill: url(#Nepojmenovaný_přechod_21-6);
      }

      .cls-32 {
        fill: url(#Nepojmenovaný_přechod_15-9);
      }

      .cls-33 {
        fill: url(#Nepojmenovaný_přechod_16);
      }

      .cls-34 {
        fill: url(#Nepojmenovaný_přechod_15-14);
      }

      .cls-35 {
        fill: url(#Nepojmenovaný_přechod_21-7);
      }
    </style>
    <linearGradient id="Nepojmenovaný_přechod_15" data-name="Nepojmenovaný přechod 15" x1="75.3" y1="178.6" x2="75.3" y2="117.4" gradientUnits="userSpaceOnUse">
      <stop offset="0" stop-color="#a5734a"/>
      <stop offset=".8" stop-color="#edd4ae"/>
      <stop offset="1" stop-color="ivory"/>
    </linearGradient>
    <linearGradient id="Nepojmenovaný_přechod_15-2" data-name="Nepojmenovaný přechod 15" x1="266.6" y1="180.5" x2="266.6" y2="110.2" xlink:href="#Nepojmenovaný_přechod_15"/>
    <linearGradient id="Nepojmenovaný_přechod_15-3" data-name="Nepojmenovaný přechod 15" x1="366.7" y1="106.2" x2="366.7" y2="48.7" xlink:href="#Nepojmenovaný_přechod_15"/>
    <linearGradient id="Nepojmenovaný_přechod_15-4" data-name="Nepojmenovaný přechod 15" x1="363.8" y1="112.8" x2="363.8" y2="38.1" xlink:href="#Nepojmenovaný_přechod_15"/>
    <linearGradient id="Nepojmenovaný_přechod_15-5" data-name="Nepojmenovaný přechod 15" x1="371.3" y1="118.3" x2="371.3" y2="43.3" xlink:href="#Nepojmenovaný_přechod_15"/>
    <linearGradient id="Nepojmenovaný_přechod_15-6" data-name="Nepojmenovaný přechod 15" x1="358.8" y1="107.7" x2="358.8" y2="101.6" xlink:href="#Nepojmenovaný_přechod_15"/>
    <linearGradient id="Nepojmenovaný_přechod_15-7" data-name="Nepojmenovaný přechod 15" x1="327.3" y1="75.1" x2="327.3" y2="70.2" xlink:href="#Nepojmenovaný_přechod_15"/>
    <linearGradient id="Nepojmenovaný_přechod_15-8" data-name="Nepojmenovaný přechod 15" x1="331.3" y1="97.6" x2="331.3" y2="93.3" xlink:href="#Nepojmenovaný_přechod_15"/>
    <linearGradient id="Nepojmenovaný_přechod_15-9" data-name="Nepojmenovaný přechod 15" x1="327" y1="84.8" x2="327" y2="81.6" xlink:href="#Nepojmenovaný_přechod_15"/>
    <linearGradient id="Nepojmenovaný_přechod_15-10" data-name="Nepojmenovaný přechod 15" x1="326.4" y1="80.1" x2="326.4" y2="77.8" xlink:href="#Nepojmenovaný_přechod_15"/>
    <linearGradient id="Nepojmenovaný_přechod_15-11" data-name="Nepojmenovaný přechod 15" x1="327.8" y1="88.8" x2="327.8" y2="85.9" xlink:href="#Nepojmenovaný_přechod_15"/>
    <linearGradient id="Nepojmenovaný_přechod_15-12" data-name="Nepojmenovaný přechod 15" x1="367.2" y1="89.7" x2="367.2" y2="63.7" xlink:href="#Nepojmenovaný_přechod_15"/>
    <linearGradient id="Nepojmenovaný_přechod_15-13" data-name="Nepojmenovaný přechod 15" x1="318.6" y1="127.1" x2="318.6" y2="104.6" gradientTransform="translate(140 -172.3) rotate(38.2)" xlink:href="#Nepojmenovaný_přechod_15"/>
    <linearGradient id="Nepojmenovaný_přechod_16" data-name="Nepojmenovaný přechod 16" x1="160.6" y1="113.9" x2="160.6" y2="39.5" gradientUnits="userSpaceOnUse">
      <stop offset="0" stop-color="#a5734a"/>
      <stop offset=".8" stop-color="#edd4ae"/>
      <stop offset="1" stop-color="ivory"/>
    </linearGradient>
    <linearGradient id="Nepojmenovaný_přechod_15-14" data-name="Nepojmenovaný přechod 15" x1="110.8" y1="129.6" x2="110.8" y2="107.1" gradientTransform="translate(97 -43.2) rotate(38.2)" xlink:href="#Nepojmenovaný_přechod_15"/>
    <linearGradient id="Nepojmenovaný_přechod_15-15" data-name="Nepojmenovaný přechod 15" x1="280" y1="26.6" x2="280" y2="4.1" gradientTransform="translate(1.8 -71.4) rotate(38.2)" xlink:href="#Nepojmenovaný_přechod_15"/>
    <linearGradient id="Nepojmenovaný_přechod_21" data-name="Nepojmenovaný přechod 21" x1="160.6" y1="132.9" x2="160.6" y2="120.3" gradientUnits="userSpaceOnUse">
      <stop offset="0" stop-color="#a5734a"/>
      <stop offset=".5" stop-color="#edd4ae"/>
      <stop offset="1" stop-color="ivory"/>
    </linearGradient>
    <linearGradient id="Nepojmenovaný_přechod_21-2" data-name="Nepojmenovaný přechod 21" x1="267.3" y1="197.9" x2="267.3" y2="187.5" xlink:href="#Nepojmenovaný_přechod_21"/>
    <linearGradient id="Nepojmenovaný_přechod_21-3" data-name="Nepojmenovaný přechod 21" x1="267.3" y1="197.9" x2="267.3" y2="187.5" xlink:href="#Nepojmenovaný_přechod_21"/>
    <linearGradient id="Nepojmenovaný_přechod_21-4" data-name="Nepojmenovaný přechod 21" x1="267.3" y1="197.9" x2="267.3" y2="187.5" xlink:href="#Nepojmenovaný_přechod_21"/>
    <linearGradient id="Nepojmenovaný_přechod_21-5" data-name="Nepojmenovaný přechod 21" x1="267.3" y1="197.9" x2="267.3" y2="187.5" xlink:href="#Nepojmenovaný_přechod_21"/>
    <linearGradient id="Nepojmenovaný_přechod_21-6" data-name="Nepojmenovaný přechod 21" x1="267.3" y1="197.9" x2="267.3" y2="187.5" xlink:href="#Nepojmenovaný_přechod_21"/>
    <linearGradient id="Nepojmenovaný_přechod_21-7" data-name="Nepojmenovaný přechod 21" x1="267.3" y1="197.9" x2="267.3" y2="187.5" xlink:href="#Nepojmenovaný_přechod_21"/>
    <linearGradient id="Nepojmenovaný_přechod_21-8" data-name="Nepojmenovaný přechod 21" x1="267.3" y1="197.9" x2="267.3" y2="187.5" xlink:href="#Nepojmenovaný_přechod_21"/>
    <linearGradient id="Nepojmenovaný_přechod_21-9" data-name="Nepojmenovaný přechod 21" x1="75.2" y1="197.9" x2="75.2" y2="187.3" xlink:href="#Nepojmenovaný_přechod_21"/>
    <linearGradient id="Nepojmenovaný_přechod_21-10" data-name="Nepojmenovaný přechod 21" x1="75.2" y1="197.9" x2="75.2" y2="187.3" xlink:href="#Nepojmenovaný_přechod_21"/>
    <linearGradient id="Nepojmenovaný_přechod_21-11" data-name="Nepojmenovaný přechod 21" x1="75.2" y1="197.9" x2="75.2" y2="187.3" xlink:href="#Nepojmenovaný_přechod_21"/>
    <linearGradient id="Nepojmenovaný_přechod_21-12" data-name="Nepojmenovaný přechod 21" x1="75.2" y1="197.9" x2="75.2" y2="187.3" xlink:href="#Nepojmenovaný_přechod_21"/>
    <linearGradient id="Nepojmenovaný_přechod_21-13" data-name="Nepojmenovaný přechod 21" x1="75.2" y1="197.9" x2="75.2" y2="187.3" xlink:href="#Nepojmenovaný_přechod_21"/>
    <linearGradient id="Nepojmenovaný_přechod_21-14" data-name="Nepojmenovaný přechod 21" x1="75.2" y1="197.9" x2="75.2" y2="187.3" xlink:href="#Nepojmenovaný_přechod_21"/>
    <linearGradient id="Nepojmenovaný_přechod_21-15" data-name="Nepojmenovaný přechod 21" x1="368.4" y1="137.1" x2="368.4" y2="126.7" xlink:href="#Nepojmenovaný_přechod_21"/>
    <linearGradient id="Nepojmenovaný_přechod_21-16" data-name="Nepojmenovaný přechod 21" x1="368.4" y1="137.1" x2="368.4" y2="126.7" xlink:href="#Nepojmenovaný_přechod_21"/>
    <linearGradient id="Nepojmenovaný_přechod_21-17" data-name="Nepojmenovaný přechod 21" x1="368.4" y1="137.1" x2="368.4" y2="126.7" xlink:href="#Nepojmenovaný_přechod_21"/>
    <linearGradient id="Nepojmenovaný_přechod_21-18" data-name="Nepojmenovaný přechod 21" x1="368.4" y1="137.1" x2="368.4" y2="126.7" xlink:href="#Nepojmenovaný_přechod_21"/>
    <linearGradient id="Nepojmenovaný_přechod_21-19" data-name="Nepojmenovaný přechod 21" x1="368.4" y1="137.1" x2="368.4" y2="126.7" xlink:href="#Nepojmenovaný_přechod_21"/>
  </defs>
  <path id="shopIcon" class="cls-17" d="M71.6,175.4c4.2,4.2,10.8,4.2,14.8,0l16.5-16.5c4.2-4.2,4.2-10.8,0-14.8l-22.1-22.1c-3-3-7.2-4.7-11.5-4.7h-16.6c-4.3,0-8,3.5-8,8v16.6c0,4.3,1.7,8.3,4.7,11.5l22,22s.3,0,.3,0ZM55.6,124.5c2,0,3.7,1.7,3.7,3.7s-1.7,3.7-3.7,3.7-3.7-1.7-3.7-3.7,1.7-3.7,3.7-3.7Z"/>
  <path id="heartIcon" class="cls-6" d="M293.7,154.3c6.3-5.5,9.2-14.8,7.5-23.4-.8-3.5-2.2-6.9-4.3-9.4-2.2-2.6-4.7-4.5-7.9-5.5-10.4-3.7-18.5,2.8-22.4,8.1-3.9-5.5-12-11.8-22.4-8.1-6.3,2.2-10.8,7.7-12.2,15-1.8,8.7,1.2,17.9,7.5,23.4l.8.8c10,8.9,22.4,20.1,24.6,24.8.4.6,1,1.2,1.8,1.2s1.4-.4,1.8-1.2c2.2-4.7,14.6-15.7,24.6-24.8,0,0,.8-.8.8-.8Z"/>
  <g>
    <path id="part11" class="cls-28" d="M344.8,58.4c11.9-13.9,34.5-12.8,44.6,2.7,0-.7-.2-1.1-.2-1.6.2,0,.4,0,.7.2.7.9,1.1,1.8,1.1,2.9v.9c18.1,33.8-26.2,60-47.5,28.7,0-.2-.2-.4-.7-.4s-.4-.2-.7-.4c-.7-.9-1.1-2-1.6-3.1-.7-2.7-1.6-5.6-2-8.5-.9-6.7.7-13,4.5-18.6.7-.9,1.3-2,1.6-3.1,0-.2.4-.9.7-.4.4.2-.4.7-.2,1.1h0l-.2-.2ZM367.4,60.8c-8.5,0-15.7,6.9-15.7,15.2s6.9,15.9,15.7,16.1c8.5,0,15.7-6.9,15.7-15.4s-6.9-15.7-15.7-15.9h0ZM365.4,54.5c9.2-.4,16.3,3.1,21.7,10.5v-.4c-2.2-3.8-5.4-7.6-9.9-9.2-1.3-.2-2.2-1.6-3.4-2-7.2-2.7-15.4-1.1-21.5,3.8-10.7,7.6-11.6,22.8-4.7,33.1-1.6-5.6-3.8-11.2-2.7-17.2,1.6-9.2,6.9-15,15.9-17.7,2-.4,3.6-1.6,5.8-1.3-.4.2-.9.2-1.1.7h0l-.2-.2ZM385.5,91.3c-8.5,9.9-22.4,11-32.7,3.1,0,.2,0,.4.2.7,1.8,2.2,4.7,2.9,6.7,4.7-.9.7-1.6-.2-2.2,0,1.6,2,4.9,1.3,6.9,2.7,18.8,2.9,32.7-15.9,24.9-33.1v.7c1.6,4.3,2.2,8.5,1.3,12.8-.4,1.8-1.3,7.2-3.8,6.7-.9,0-1.1.4-.9,1.3.2.7,0,1.3-.9,1.6v-.7h0l.4-.4ZM371.9,51.6c3.6.9,6.7,2.7,9.9,4.7-2.7-2.9-6-4.3-9.9-4.7ZM376.4,92.2c1.6-.9,3.1-2,4.3-3.6-1.3,1.1-2.7,2.5-4.3,3.6ZM353.5,98c-.4-.9-1.1-1.3-2-1.8.4.7,1.1,1.1,2,1.8Z"/>
    <path id="part10" class="cls-13" d="M335.6,100c-2-3.6-4.5-6.9-5.8-11.2-2-5.8-2.2-11.9-1.1-17.7,0-.7.4-2.2-.9-1.8-.2,0-.4.4-.7,0-.2-.2,0-.4,0-.7,2-9.2,8.1-16.8,15.2-22.6.4-.2.7-.4,1.3-.2h1.1c.4-.4,1.1-.7,1.1-1.3h-.4c.4-.7,1.3-.9,1.8-1.3q.9-.4,1.1.4c.2,0,.4,0,.7-.4,1.6-1.6,3.4-2.2,5.4-2.9,3.1-1.1,6.3-1.8,9.6-2,.7,0,1.6-.2,2,.4,0,.2.7,0,.9,0,1.1,0,2.2-.9,3.4-.4-.4.7-1.3.7-1.6,1.1.7.4,2,.4,2.7,0,.9-.7,1.8-.7,2.7-.2,1.3.7-.4,1.6-1.3,1.6-16.1,0-31.8,8.1-38.1,23.5-5.6,13,0,28.7,10.3,37.6,24.4,20.6,63.1-3.4,50.6-34.3v.9c-.7-1.3-.4-2.5-1.3-3.8-1.8-3.4-4-6.3-7.2-8.7-.2,0-.7-.4-.9-.2-.7,0-.9-.4-1.3-1.1.4,0,.7.4,1.1.4-1.1-2.2-3.8-3.6-6-4.7-.7-.2-1.3-.4-1.8-1.1,19.3,3.4,28,28.7,18.8,44.8-.2.4-.7.9-1.3.9s-1.3.4-1.3,1.3-.9,1.1-.4,2c.2.9-.9.9-1.3,1.6-13.4,16.3-39.9,17.5-54.6,2.5-.7-.7-1.6-.9-2.2-1.6h-.9c-.7,0-1.6-.4-1.6-1.3s.4-.4.7,0c.4.2.9.7,1.3.7h.4ZM342.3,47.4c-2.2,1.3-3.8,3.1-5.4,4.9.9-.2,5.1-4.3,5.4-4.9Z"/>
    <path id="part9" class="cls-26" d="M387.1,45.1c-.7.2-1.1,0-1.6,0s-.7.4-.4.9c.2.7,1.3.9,1.8.4.4-.4.9-.4,1.3,0,4,1.8,7.4,4.7,10.3,7.8,0,.2.4.4.9.7-.2-1.3-1.3-2-2-3.1.4,0,.7,0,.7.4,1.1.9,1.8,2,2.7,3.1,5.1,7.2,7.4,15.9,7.2,24.9,0,.4,0,.7-.2,1.1-.4-.7,0-1.8-.9-2.2,0,16.6-9.2,30.7-24.9,36.7-8.3,3.1-17.7,3.4-26,0-1.3-.4-2.9-.7-3.8-1.8h1.1c4,.7,7.8,1.3,12.1,1.1,10.3-.7,19.5-3.6,27.1-10.7,13-11.9,14.3-33.4,2.7-46.8-17.2-20.4-52.8-12.1-58,14.3-.9,6.3,0,12.8,2.7,18.6.9,1.3,1.8,2.5,2.2,4,0,.2.4.7,0,.9-.4.2-.7,0-.9,0-.4-.2-.4-.7-.4-.9.9-2-.9-1.6-1.6-2.7-16.3-29.1,14.8-55.5,43.4-47h1.6c1.3,0,2.2.4,3.4,1.1l-.4-.9Z"/>
    <path id="part8" class="cls-29" d="M350.2,101.6c5.6,2.9,11,5.4,17.2,6-4.3.9-15.7-3.1-17.2-6Z"/>
    <path id="part7" class="cls-7" d="M327.1,75.1c-.2,0-.2-.2-.2-.4-.2-1.3,0-2.7,0-4,0,0,0-.2.2-.4,1.1,0,.7,4.5,0,4.9h0Z"/>
    <path id="part6" class="cls-10" d="M330,93.3c.9,1.1,1.6,2.2,2.5,3.4,0,.2.7.7,0,.9-.4.2-.7-.2-.9-.4-.7-1.1-1.3-2.5-1.8-3.8h.2Z"/>
    <path id="part4" class="cls-32" d="M326.4,81.6c.4,1.1,1.1,1.8,1.1,3.1-.7-.2-1.1-1.8-1.1-3.1Z"/>
    <path id="part3" class="cls-11" d="M326.4,80.1c-.2-.7-.4-1.6,0-2.2.4.7.2,1.6,0,2.2Z"/>
    <path id="part2" class="cls-9" d="M327.3,85.9c.4.9.7,1.8.9,2.9-.4-.9-.9-1.8-.9-2.9Z"/>
    <path id="part1" class="cls-30" d="M354.2,76.7c0-6.9,5.8-13,12.8-13,17.7.4,17.5,25.1.4,26-7.4,0-13.2-5.6-13.2-13h0Z"/>
  </g>
  <rect class="cls-15" x="301.6" y="114.8" width="33.8" height="2" transform="translate(-3.4 221.9) rotate(-38.2)"/>
  <polygon class="cls-33" points="201.6 79.4 190.1 68.3 190.1 62 190.1 48.8 175.4 48.8 175.4 54.1 160.2 39.5 131 68.1 131 68.1 131 68.1 119.5 79.4 131 79.4 131 113.9 151 113.9 151 113.9 170.1 113.9 170.1 113.9 190.1 113.9 190.1 79.4 201.6 79.4"/>
  <rect class="cls-34" x="93.9" y="117.3" width="33.8" height="2" transform="translate(-49.5 93.9) rotate(-38.2)"/>
  <rect class="cls-8" x="195.4" y="112.9" width="33.8" height="2" transform="translate(339.2 318.7) rotate(-150)"/>
  <g>
    <path class="cls-4" d="M137.2,129.1l.5-1.1c.7.7,2,1.1,3.2,1.1s2.4-.7,2.4-1.5c0-2.4-5.9-.9-5.9-4.5s1.2-2.8,3.8-2.8,2.3.3,3.2.9l-.5,1.1c-.9-.5-1.8-.8-2.7-.8-1.7,0-2.4.7-2.4,1.6,0,2.4,5.9.9,5.9,4.5s-1.2,2.8-3.8,2.8-3-.5-3.8-1.2Z"/>
    <path class="cls-4" d="M154.3,126.5c0,2.3-1.6,3.8-3.8,3.8s-2-.4-2.6-1.2v3.8h-1.3v-10.1h1.3v1.2c.6-.8,1.6-1.2,2.6-1.2,2.2,0,3.8,1.5,3.8,3.8ZM152.9,126.5c0-1.6-1.1-2.6-2.5-2.6s-2.5,1-2.5,2.6,1.1,2.6,2.5,2.6,2.5-1,2.5-2.6Z"/>
    <path class="cls-4" d="M162,125.7v4.5h-1.3v-1c-.4.7-1.3,1.1-2.4,1.1-1.7,0-2.7-.9-2.7-2.2s.8-2.2,3-2.2h2.1v-.3c0-1.1-.7-1.8-2-1.8s-1.8.3-2.4.8l-.6-1c.8-.6,1.9-1,3.1-1,2,0,3.2,1,3.2,3ZM160.6,127.9v-1h-2.1c-1.3,0-1.7.5-1.7,1.1s.6,1.2,1.6,1.2,1.8-.5,2.1-1.3Z"/>
    <path class="cls-4" d="M175.6,122.8l-2.8,7.4h-1.3l-2.1-5.6-2.2,5.6h-1.3l-2.8-7.4h1.3l2.2,5.9,2.2-5.9h1.1l2.2,5.9,2.2-5.9h1.2Z"/>
    <path class="cls-4" d="M184,125.9v4.3h-1.3v-4.1c0-1.5-.7-2.2-2-2.2s-2.4.9-2.4,2.5v3.8h-1.3v-7.4h1.3v1.1c.5-.8,1.5-1.2,2.7-1.2,1.8,0,3.1,1,3.1,3.2Z"/>
  </g>
  <g>
    <path class="cls-19" d="M240.5,189.3v3.4h4.9v1.2h-4.9v4h-1.4v-9.8h6.9v1.2h-5.5Z"/>
    <path class="cls-3" d="M246.8,194.1c0-2.2,1.6-3.8,3.9-3.8s3.9,1.6,3.9,3.8-1.6,3.8-3.9,3.8-3.9-1.6-3.9-3.8ZM253.2,194.1c0-1.6-1.1-2.6-2.5-2.6s-2.5,1-2.5,2.6,1.1,2.6,2.5,2.6,2.5-1,2.5-2.6Z"/>
    <path class="cls-20" d="M263.5,193.6v4.3h-1.3v-4.1c0-1.5-.7-2.2-2-2.2s-2.4.9-2.4,2.5v3.8h-1.3v-7.4h1.3v1.1c.5-.8,1.5-1.2,2.7-1.2,1.8,0,3.1,1,3.1,3.2Z"/>
    <path class="cls-14" d="M270.1,197.4c-.4.4-1,.5-1.6.5-1.5,0-2.4-.8-2.4-2.3v-4.1h-1.3v-1.1h1.3v-1.6h1.3v1.6h2.1v1.1h-2.1v4c0,.8.4,1.2,1.2,1.2s.8-.1,1.1-.4l.4,1Z"/>
    <path class="cls-31" d="M277.6,193.4v4.5h-1.3v-1c-.4.7-1.3,1.1-2.4,1.1-1.7,0-2.7-.9-2.7-2.2s.8-2.2,3-2.2h2.1v-.3c0-1.1-.7-1.8-2-1.8s-1.8.3-2.4.8l-.6-1c.8-.6,1.9-1,3.1-1,2,0,3.2,1,3.2,3ZM276.3,195.6v-1h-2.1c-1.3,0-1.7.5-1.7,1.1s.6,1.2,1.6,1.2,1.8-.5,2.1-1.3ZM274.7,189.4h-1.3l1.9-1.8h1.7l-2.4,1.8Z"/>
    <path class="cls-35" d="M287.2,193.6v4.3h-1.3v-4.1c0-1.5-.7-2.2-2-2.2s-2.4.9-2.4,2.5v3.8h-1.3v-7.4h1.3v1.1c.5-.8,1.5-1.2,2.7-1.2,1.8,0,3.1,1,3.1,3.2Z"/>
    <path class="cls-21" d="M295.5,193.4v4.5h-1.3v-1c-.4.7-1.3,1.1-2.4,1.1-1.7,0-2.7-.9-2.7-2.2s.8-2.2,3-2.2h2.1v-.3c0-1.1-.7-1.8-2-1.8s-1.8.3-2.4.8l-.6-1c.8-.6,1.9-1,3.1-1,2,0,3.2,1,3.2,3ZM294.2,195.6v-1h-2.1c-1.3,0-1.7.5-1.7,1.1s.6,1.2,1.6,1.2,1.8-.5,2.1-1.3Z"/>
  </g>
  <g>
    <path class="cls-25" d="M47.6,192.8c0-2.9,2.2-5,5.2-5s5.2,2.1,5.2,5-2.2,5-5.2,5-5.2-2.1-5.2-5ZM56.6,192.8c0-2.2-1.6-3.8-3.8-3.8s-3.8,1.6-3.8,3.8,1.6,3.8,3.8,3.8,3.8-1.6,3.8-3.8Z"/>
    <path class="cls-2" d="M67.6,194c0,2.3-1.6,3.8-3.8,3.8s-2-.4-2.6-1.3v1.2h-1.3v-10.4h1.3v4.1c.6-.8,1.5-1.2,2.6-1.2,2.2,0,3.8,1.5,3.8,3.8ZM66.3,194c0-1.6-1.1-2.6-2.5-2.6s-2.5,1-2.5,2.6,1.1,2.6,2.5,2.6,2.5-1,2.5-2.6Z"/>
    <path class="cls-22" d="M68.8,194c0-2.2,1.6-3.8,3.9-3.8s2.4.5,3,1.6l-1,.7c-.5-.7-1.2-1.1-2-1.1-1.5,0-2.5,1-2.5,2.6s1.1,2.6,2.5,2.6,1.5-.3,2-1.1l1,.6c-.6,1-1.7,1.6-3,1.6-2.3,0-3.9-1.6-3.9-3.8Z"/>
    <path class="cls-27" d="M84.4,193.5v4.3h-1.3v-4.1c0-1.5-.7-2.2-2-2.2s-2.4.9-2.4,2.5v3.8h-1.3v-10.4h1.3v4c.6-.7,1.5-1.1,2.6-1.1,1.8,0,3.1,1,3.1,3.2Z"/>
    <path class="cls-12" d="M86.3,194c0-2.2,1.6-3.8,3.9-3.8s3.9,1.6,3.9,3.8-1.6,3.8-3.9,3.8-3.9-1.6-3.9-3.8ZM92.6,194c0-1.6-1.1-2.6-2.5-2.6s-2.5,1-2.5,2.6,1.1,2.6,2.5,2.6,2.5-1,2.5-2.6Z"/>
    <path class="cls-5" d="M102.8,187.3v10.4h-1.3v-1.2c-.6.8-1.6,1.3-2.6,1.3-2.2,0-3.8-1.5-3.8-3.8s1.6-3.8,3.8-3.8,2,.4,2.6,1.2v-4.1h1.3ZM101.5,194c0-1.6-1.1-2.6-2.5-2.6s-2.5,1-2.5,2.6,1.1,2.6,2.5,2.6,2.5-1,2.5-2.6Z"/>
  </g>
  <g>
    <path class="cls-18" d="M356.9,134.4c0,1.7-1.3,2.6-3.8,2.6h-4.7v-9.8h4.4c2.3,0,3.5,1,3.5,2.5s-.5,1.8-1.3,2.2c1.1.3,1.8,1.1,1.8,2.4ZM349.8,128.4v3.1h2.9c1.4,0,2.2-.5,2.2-1.6s-.8-1.6-2.2-1.6h-2.9ZM355.5,134.3c0-1.1-.8-1.6-2.4-1.6h-3.2v3.3h3.2c1.6,0,2.4-.5,2.4-1.6Z"/>
    <path class="cls-1" d="M362.8,129.5v1.3c-.1,0-.2,0-.3,0-1.4,0-2.3.9-2.3,2.5v3.7h-1.3v-7.4h1.3v1.2c.5-.9,1.4-1.3,2.7-1.3Z"/>
    <path class="cls-16" d="M370.4,132.6v4.5h-1.3v-1c-.4.7-1.3,1.1-2.4,1.1-1.7,0-2.7-.9-2.7-2.2s.8-2.2,3-2.2h2.1v-.3c0-1.1-.7-1.8-2-1.8s-1.8.3-2.4.8l-.6-1c.8-.6,1.9-1,3.1-1,2,0,3.2,1,3.2,3ZM369,134.8v-1h-2.1c-1.3,0-1.7.5-1.7,1.1s.6,1.2,1.6,1.2,1.8-.5,2.1-1.3ZM367.5,128.5h-1.3l1.9-1.8h1.7l-2.4,1.8Z"/>
    <path class="cls-24" d="M379.9,132.8v4.3h-1.3v-4.1c0-1.5-.7-2.2-2-2.2s-2.4.9-2.4,2.5v3.8h-1.3v-7.4h1.3v1.1c.5-.8,1.5-1.2,2.7-1.2,1.8,0,3.1,1,3.1,3.2Z"/>
    <path class="cls-23" d="M388.3,132.6v4.5h-1.3v-1c-.4.7-1.3,1.1-2.4,1.1-1.7,0-2.7-.9-2.7-2.2s.8-2.2,3-2.2h2.1v-.3c0-1.1-.7-1.8-2-1.8s-1.8.3-2.4.8l-.6-1c.8-.6,1.9-1,3.1-1,2,0,3.2,1,3.2,3ZM386.9,134.8v-1h-2.1c-1.3,0-1.7.5-1.7,1.1s.6,1.2,1.6,1.2,1.8-.5,2.1-1.3Z"/>
  </g>
</svg>