<?xml version="1.0" encoding="UTF-8"?>
<svg xmlns="http://www.w3.org/2000/svg" version="1.1" xmlns:xlink="http://www.w3.org/1999/xlink" viewBox="0 0 38.09 52.56">
  <defs>
    <style>
      .cls-1, .cls-2, .cls-3, .cls-4, .cls-5, .cls-6, .cls-7, .cls-8, .cls-9, .cls-10, .cls-11, .cls-12, .cls-13, .cls-14, .cls-15, .cls-16, .cls-17, .cls-18, .cls-19, .cls-20, .cls-21, .cls-22, .cls-23, .cls-24, .cls-25, .cls-26, .cls-27, .cls-28, .cls-29, .cls-30, .cls-31, .cls-32, .cls-33, .cls-34, .cls-35, .cls-36, .cls-37, .cls-38, .cls-39, .cls-40 {
        stroke-width: 0px;
      }

      .cls-1, .cls-2, .cls-3, .cls-4, .cls-5, .cls-6, .cls-7, .cls-8, .cls-9, .cls-10, .cls-11, .cls-13, .cls-14, .cls-15, .cls-16, .cls-17, .cls-18, .cls-19, .cls-20, .cls-21, .cls-22, .cls-23, .cls-24, .cls-25, .cls-26, .cls-27, .cls-28, .cls-29, .cls-30, .cls-31, .cls-32, .cls-33, .cls-34, .cls-35, .cls-36, .cls-37, .cls-38, .cls-39, .cls-40 {
        fill-rule: evenodd;
      }

      .cls-1, .cls-12 {
        fill: #b3b3b3;
      }

      .cls-2 {
        fill: url(#linear-gradient-8);
      }

      .cls-3 {
        fill: url(#radial-gradient-2);
      }

      .cls-3, .cls-9, .cls-14, .cls-15, .cls-31 {
        mix-blend-mode: screen;
      }

      .cls-4 {
        fill: url(#linear-gradient-11);
      }

      .cls-5 {
        fill: url(#linear-gradient-7);
      }

      .cls-6 {
        fill: url(#linear-gradient-16);
      }

      .cls-7 {
        fill: #203d6b;
      }

      .cls-8 {
        fill: url(#linear-gradient-9);
      }

      .cls-9 {
        fill: url(#radial-gradient);
      }

      .cls-10 {
        fill: url(#linear-gradient-18);
      }

      .cls-41 {
        isolation: isolate;
      }

      .cls-11 {
        fill: url(#linear-gradient-3);
      }

      .cls-13 {
        fill: url(#linear-gradient-28);
      }

      .cls-14 {
        fill: url(#radial-gradient-3);
      }

      .cls-15 {
        fill: url(#radial-gradient-4);
      }

      .cls-16 {
        fill: url(#linear-gradient-23);
      }

      .cls-17 {
        fill: #132d54;
      }

      .cls-18 {
        fill: url(#linear-gradient-17);
      }

      .cls-19 {
        fill: url(#linear-gradient);
      }

      .cls-20 {
        fill: url(#linear-gradient-13);
      }

      .cls-21 {
        fill: url(#linear-gradient-27);
      }

      .cls-22 {
        fill: url(#linear-gradient-20);
      }

      .cls-23 {
        fill: #000;
      }

      .cls-24 {
        fill: url(#linear-gradient-2);
      }

      .cls-25 {
        fill: url(#linear-gradient-15);
      }

      .cls-26 {
        fill: url(#linear-gradient-5);
      }

      .cls-27 {
        fill: url(#linear-gradient-24);
      }

      .cls-28 {
        fill: url(#linear-gradient-29);
      }

      .cls-29 {
        fill: #010716;
      }

      .cls-30 {
        fill: url(#linear-gradient-19);
      }

      .cls-31 {
        fill: url(#radial-gradient-5);
      }

      .cls-32 {
        fill: url(#linear-gradient-22);
      }

      .cls-33 {
        fill: url(#linear-gradient-12);
      }

      .cls-34 {
        fill: url(#linear-gradient-14);
      }

      .cls-35 {
        fill: url(#linear-gradient-25);
      }

      .cls-36 {
        fill: url(#linear-gradient-6);
      }

      .cls-37 {
        fill: url(#linear-gradient-4);
      }

      .cls-38 {
        fill: url(#linear-gradient-21);
      }

      .cls-39 {
        fill: url(#linear-gradient-26);
      }

      .cls-40 {
        fill: url(#linear-gradient-10);
      }
    </style>
    <linearGradient id="linear-gradient" x1="24.96" y1="13.14" x2="23.67" y2="14.42" gradientUnits="userSpaceOnUse">
      <stop offset="0" stop-color="#8c6c51"/>
      <stop offset="1" stop-color="#dec2a0"/>
    </linearGradient>
    <linearGradient id="linear-gradient-2" x1="24.58" y1="15.33" x2="23.3" y2="16.62" gradientUnits="userSpaceOnUse">
      <stop offset="0" stop-color="#a27048"/>
      <stop offset="1" stop-color="#523329"/>
    </linearGradient>
    <linearGradient id="linear-gradient-3" x1="20.36" y1="20.84" x2="19.07" y2="22.12" xlink:href="#linear-gradient"/>
    <linearGradient id="linear-gradient-4" x1="18.17" y1="21.21" x2="16.88" y2="22.5" xlink:href="#linear-gradient-2"/>
    <linearGradient id="linear-gradient-5" x1="20.36" y1="31.72" x2="19.07" y2="30.44" gradientUnits="userSpaceOnUse">
      <stop offset="0" stop-color="#523329"/>
      <stop offset="1" stop-color="#a27048"/>
    </linearGradient>
    <linearGradient id="linear-gradient-6" x1="22.59" y1="25.64" x2="12.46" y2="35.77" gradientUnits="userSpaceOnUse">
      <stop offset="0" stop-color="#efe1bb"/>
      <stop offset="1" stop-color="#edd4ae"/>
    </linearGradient>
    <linearGradient id="linear-gradient-7" x1="24.58" y1="37.23" x2="23.3" y2="35.94" xlink:href="#linear-gradient-6"/>
    <linearGradient id="linear-gradient-8" x1="24.96" y1="39.42" x2="23.67" y2="38.13" xlink:href="#linear-gradient-5"/>
    <linearGradient id="linear-gradient-9" x1="4.74" y1="23.08" x2="3.97" y2="22.31" gradientUnits="userSpaceOnUse">
      <stop offset="0" stop-color="#efe1bb"/>
      <stop offset="1" stop-color="#edd4ae"/>
    </linearGradient>
    <linearGradient id="linear-gradient-10" x1="5.51" y1="23.85" x2="4.74" y2="23.08" gradientUnits="userSpaceOnUse">
      <stop offset="0" stop-color="#523329"/>
      <stop offset="1" stop-color="#a27048"/>
    </linearGradient>
    <linearGradient id="linear-gradient-11" x1="11.14" y1="23.08" x2="10.37" y2="23.85" gradientUnits="userSpaceOnUse">
      <stop offset="0" stop-color="#a27048"/>
      <stop offset="1" stop-color="#523329"/>
    </linearGradient>
    <linearGradient id="linear-gradient-12" x1="11.91" y1="22.31" x2="11.14" y2="23.08" gradientUnits="userSpaceOnUse">
      <stop offset="0" stop-color="#e2bb7e"/>
      <stop offset="1" stop-color="#ece2a9"/>
    </linearGradient>
    <linearGradient id="linear-gradient-13" x1="11.14" y1="29.48" x2="10.37" y2="28.71" xlink:href="#linear-gradient-9"/>
    <linearGradient id="linear-gradient-14" x1="11.91" y1="30.25" x2="11.14" y2="29.48" xlink:href="#linear-gradient-10"/>
    <linearGradient id="linear-gradient-15" x1="5.51" y1="28.71" x2="4.74" y2="29.48" gradientUnits="userSpaceOnUse">
      <stop offset="0" stop-color="#8c6c51"/>
      <stop offset="1" stop-color="#dec2a0"/>
    </linearGradient>
    <linearGradient id="linear-gradient-16" x1="4.74" y1="29.48" x2="3.97" y2="30.25" gradientUnits="userSpaceOnUse">
      <stop offset="0" stop-color="#a27048"/>
      <stop offset="1" stop-color="#523329"/>
    </linearGradient>
    <radialGradient id="radial-gradient" cx=".84" cy="24.61" fx=".84" fy="24.61" r="15.62" gradientUnits="userSpaceOnUse">
      <stop offset="0" stop-color="#efe5b8"/>
      <stop offset="1" stop-color="#000"/>
    </radialGradient>
    <linearGradient id="linear-gradient-17" x1="7.94" y1="29.54" x2="7.94" y2="23.01" gradientUnits="userSpaceOnUse">
      <stop offset="0" stop-color="#1a2540"/>
      <stop offset="1" stop-color="#101524"/>
    </linearGradient>
    <linearGradient id="linear-gradient-18" x1="18.66" y1="37" x2="17.89" y2="36.23" xlink:href="#linear-gradient-6"/>
    <linearGradient id="linear-gradient-19" x1="18.88" y1="38.32" x2="18.11" y2="37.54" xlink:href="#linear-gradient-5"/>
    <linearGradient id="linear-gradient-20" x1="13.63" y1="10.53" x2="15.45" y2="10.53" gradientUnits="userSpaceOnUse">
      <stop offset="0" stop-color="#a27048"/>
      <stop offset="1" stop-color="#523329"/>
    </linearGradient>
    <linearGradient id="linear-gradient-21" x1="11.82" y1="8.72" x2="13.63" y2="8.72" gradientUnits="userSpaceOnUse">
      <stop offset="0" stop-color="#a5734a"/>
      <stop offset="1" stop-color="#e0b177"/>
    </linearGradient>
    <linearGradient id="linear-gradient-22" x1="7.94" y1="12.36" x2="9.03" y2="12.36" xlink:href="#linear-gradient-20"/>
    <linearGradient id="linear-gradient-23" x1="6.85" y1="11.04" x2="7.94" y2="11.04" xlink:href="#linear-gradient-21"/>
    <linearGradient id="linear-gradient-24" x1="7.94" y1="40.2" x2="9.03" y2="40.2" xlink:href="#linear-gradient-20"/>
    <linearGradient id="linear-gradient-25" x1="6.85" y1="41.51" x2="7.94" y2="41.51" xlink:href="#linear-gradient-21"/>
    <radialGradient id="radial-gradient-2" cx="28.58" cy="13.82" fx="28.58" fy="13.82" r="29.4" xlink:href="#radial-gradient"/>
    <radialGradient id="radial-gradient-3" cx="24.35" cy="19.13" fx="24.35" fy="19.13" r="23.29" xlink:href="#radial-gradient"/>
    <linearGradient id="linear-gradient-26" x1="18.88" y1="14.24" x2="18.11" y2="15.01" xlink:href="#linear-gradient"/>
    <linearGradient id="linear-gradient-27" x1="18.66" y1="15.56" x2="17.89" y2="16.33" xlink:href="#linear-gradient-2"/>
    <radialGradient id="radial-gradient-4" cx="24.31" cy="17.15" fx="24.31" fy="17.15" r="25.34" xlink:href="#radial-gradient"/>
    <linearGradient id="linear-gradient-28" y1="42.03" y2="42.03" xlink:href="#linear-gradient-20"/>
    <linearGradient id="linear-gradient-29" y1="43.84" y2="43.84" xlink:href="#linear-gradient-21"/>
    <radialGradient id="radial-gradient-5" cx="3.8" cy="3.51" fx="3.8" fy="3.51" r="24.53" xlink:href="#radial-gradient"/>
  </defs>
  <g class="cls-41">
    <g id="Layer_1" data-name="Layer 1">
      <g>
        <path class="cls-1" d="M11.82,0v17.43l8.85,8.85-8.85,8.85v17.43l26.28-26.28L11.82,0h0ZM15.45,8.77l17.51,17.51-17.51,17.51v-7.16l10.35-10.35-10.35-10.35v-7.16h0Z"/>
        <polygon class="cls-19" points="35.53 26.28 13.63 4.38 11.82 0 38.09 26.28 35.53 26.28 35.53 26.28"/>
        <polygon class="cls-24" points="13.63 4.38 35.53 26.28 32.96 26.28 15.45 8.77 13.63 4.38 13.63 4.38"/>
        <polygon class="cls-11" points="15.45 15.93 25.8 26.28 23.23 26.28 13.63 16.68 15.45 15.93 15.45 15.93"/>
        <polygon class="cls-37" points="13.63 16.68 23.23 26.28 20.67 26.28 11.82 17.43 13.63 16.68 13.63 16.68"/>
        <polygon class="cls-26" points="13.63 35.88 23.23 26.28 25.8 26.28 15.45 36.63 13.63 35.88 13.63 35.88"/>
        <polygon class="cls-36" points="23.23 26.28 13.63 35.88 11.82 35.13 20.67 26.28 23.23 26.28 23.23 26.28"/>
        <polygon class="cls-5" points="15.45 43.79 32.96 26.28 35.53 26.28 13.63 48.17 15.45 43.79 15.45 43.79"/>
        <polygon class="cls-2" points="13.63 48.17 35.53 26.28 38.09 26.28 11.82 52.56 13.63 48.17 13.63 48.17"/>
        <path class="cls-12" d="M6.85,4.84v45.52c8.02-8.02,16.05-16.05,24.07-24.07L6.85,2.21v2.63h0ZM9.03,45.09V7.47l18.81,18.81-18.81,18.81h0Z"/>
        <g>
          <path class="cls-8" d="M1.54,26.28c2.13-2.13,4.26-4.27,6.4-6.4v-1.54l-1.09,1.09L0,26.28h1.54Z"/>
          <path class="cls-40" d="M7.94,19.88c-2.13,2.13-4.26,4.26-6.4,6.4h1.54l4.86-4.86v-1.54h0Z"/>
          <path class="cls-4" d="M7.94,21.42l4.86,4.86h1.54c-2.13-2.13-4.27-4.27-6.4-6.4v1.54h0Z"/>
          <path class="cls-33" d="M7.94,19.88c2.13,2.13,4.26,4.26,6.4,6.4h1.54s-6.85-6.85-6.85-6.85l-1.09-1.09v1.54h0Z"/>
          <path class="cls-20" d="M12.79,26.28l-4.86,4.86v1.54c2.13-2.13,4.26-4.27,6.4-6.4h-1.54Z"/>
          <path class="cls-34" d="M14.34,26.28c-2.13,2.13-4.27,4.26-6.4,6.4v1.54l7.94-7.94h-1.54Z"/>
          <path class="cls-25" d="M7.94,31.14l-4.86-4.86h-1.54c2.13,2.13,4.26,4.26,6.4,6.4v-1.54h0Z"/>
          <path class="cls-6" d="M7.94,32.68c-2.13-2.13-4.26-4.27-6.4-6.4H0l7.94,7.94v-1.54h0Z"/>
          <polygon class="cls-9" points="5.3 30.04 1.35 26.41 .25 26.28 1.38 26.12 6.77 21.05 1.78 26.28 5.3 30.04 5.3 30.04"/>
          <polygon class="cls-23" points="3.08 26.28 7.94 31.14 12.79 26.28 7.94 21.42 3.08 26.28 3.08 26.28"/>
          <polygon class="cls-18" points="4.67 26.28 7.94 29.54 11.2 26.28 7.94 23.01 4.67 26.28 4.67 26.28"/>
          <polygon class="cls-7" points="4.67 26.28 7.94 23.01 7.94 21.42 3.08 26.28 4.67 26.28 4.67 26.28"/>
          <polygon class="cls-29" points="11.2 26.28 7.94 29.54 7.94 31.14 12.79 26.28 11.2 26.28 11.2 26.28"/>
          <polygon class="cls-17" points="7.94 23.01 11.2 26.28 12.79 26.28 7.94 21.42 7.94 23.01 7.94 23.01"/>
          <polygon class="cls-17" points="7.94 29.54 4.67 26.28 3.08 26.28 7.94 31.14 7.94 29.54 7.94 29.54"/>
        </g>
        <polygon class="cls-10" points="9.03 45.09 27.84 26.28 29.38 26.28 7.94 47.72 9.03 45.09 9.03 45.09"/>
        <path class="cls-30" d="M7.94,47.72l21.44-21.44h1.54c-8.02,8.03-16.05,16.05-24.07,24.07l1.09-2.63h0Z"/>
        <polygon class="cls-22" points="15.45 8.77 15.45 15.93 13.63 16.68 13.63 4.38 15.45 8.77 15.45 8.77"/>
        <polygon class="cls-38" points="13.63 4.38 13.63 16.68 11.82 17.43 11.82 0 13.63 4.38 13.63 4.38"/>
        <polygon class="cls-32" points="9.03 7.47 9.03 19.43 7.94 19.88 7.94 4.84 9.03 7.47 9.03 7.47"/>
        <polygon class="cls-16" points="7.94 4.84 7.94 19.88 6.85 19.43 6.85 4.84 6.85 2.21 7.94 4.84 7.94 4.84"/>
        <polygon class="cls-27" points="9.03 45.09 9.03 33.13 7.94 32.68 7.94 47.72 9.03 45.09 9.03 45.09"/>
        <polygon class="cls-35" points="7.94 47.72 7.94 32.68 6.85 33.13 6.85 47.72 6.85 50.35 7.94 47.72 7.94 47.72"/>
        <polygon class="cls-3" points="29.43 32.37 35.82 26.45 37.6 26.28 35.82 26.08 27.42 18.17 35.08 26.28 29.43 32.37 29.43 32.37"/>
        <polygon class="cls-14" points="19.89 29.63 23.52 26.45 25.3 26.28 23.52 26.08 16.72 19.77 22.78 26.28 19.89 29.63 19.89 29.63"/>
        <polygon class="cls-39" points="29.38 26.28 7.94 4.84 6.85 2.21 30.92 26.28 29.38 26.28 29.38 26.28"/>
        <polygon class="cls-21" points="7.94 4.84 29.38 26.28 27.84 26.28 9.03 7.47 7.94 4.84 7.94 4.84"/>
        <polygon class="cls-15" points="26.14 29.52 29.57 26.41 30.67 26.28 29.54 26.12 22.74 19.63 29.14 26.28 26.14 29.52 26.14 29.52"/>
        <polygon class="cls-13" points="15.45 36.63 15.45 43.79 13.63 48.17 13.63 35.88 15.45 36.63 15.45 36.63"/>
        <polygon class="cls-28" points="13.63 35.88 13.63 48.17 11.82 52.56 11.82 35.13 13.63 35.88 13.63 35.88"/>
        <polygon class="cls-31" points="7.94 17.57 7.7 4.78 7.02 2.61 8.05 4.65 16.7 13.6 8.15 5.34 7.94 17.57 7.94 17.57"/>
      </g>
    </g>
  </g>
</svg>