<?xml version="1.0" encoding="UTF-8"?>
<svg xmlns="http://www.w3.org/2000/svg" version="1.1" viewBox="0 0 38.1 52.6">
  <defs>
    <style>
      .cls-1, .cls-2, .cls-3 {
        fill: #000;
        stroke-width: 0px;
      }

      .cls-4, .cls-2 {
        isolation: isolate;
      }

      .cls-2 {
        mix-blend-mode: screen;
      }

      .cls-2, .cls-3 {
        fill-rule: evenodd;
      }
    </style>
  </defs>
  <g class="cls-4">
    <g id="Vrstva_1" data-name="Vrstva 1">
      <path class="cls-3" d="M11.8,0v17.4l8.9,8.9-8.9,8.9v17.4l26.3-26.3L11.8,0h0ZM15.4,8.8l17.5,17.5-17.5,17.5v-7.2l10.4-10.4-10.4-10.4v-7.2h0Z"/>
      <polygon class="cls-3" points="35.5 26.3 13.6 4.4 11.8 0 38.1 26.3 35.5 26.3 35.5 26.3"/>
      <polygon class="cls-3" points="13.6 4.4 35.5 26.3 33 26.3 15.4 8.8 13.6 4.4 13.6 4.4"/>
      <polygon class="cls-3" points="15.4 15.9 25.8 26.3 23.2 26.3 13.6 16.7 15.4 15.9 15.4 15.9"/>
      <polygon class="cls-3" points="13.6 16.7 23.2 26.3 20.7 26.3 11.8 17.4 13.6 16.7 13.6 16.7"/>
      <polygon class="cls-3" points="13.6 35.9 23.2 26.3 25.8 26.3 15.4 36.6 13.6 35.9 13.6 35.9"/>
      <polygon class="cls-3" points="23.2 26.3 13.6 35.9 11.8 35.1 20.7 26.3 23.2 26.3 23.2 26.3"/>
      <polygon class="cls-3" points="15.4 43.8 33 26.3 35.5 26.3 13.6 48.2 15.4 43.8 15.4 43.8"/>
      <polygon class="cls-3" points="13.6 48.2 35.5 26.3 38.1 26.3 11.8 52.6 13.6 48.2 13.6 48.2"/>
      <path class="cls-1" d="M6.8,4.8v45.5c8-8,16-16,24.1-24.1L6.8,2.2v2.6h0ZM9,45.1V7.5l18.8,18.8-18.8,18.8h0Z"/>
      <g>
        <path class="cls-3" d="M1.5,26.3c2.1-2.1,4.3-4.3,6.4-6.4v-1.5l-1.1,1.1L0,26.3h1.5Z"/>
        <path class="cls-3" d="M7.9,19.9c-2.1,2.1-4.3,4.3-6.4,6.4h1.5l4.9-4.9v-1.5h0Z"/>
        <path class="cls-3" d="M7.9,21.4l4.9,4.9h1.5c-2.1-2.1-4.3-4.3-6.4-6.4v1.5h0Z"/>
        <path class="cls-3" d="M7.9,19.9c2.1,2.1,4.3,4.3,6.4,6.4h1.5l-6.8-6.9-1.1-1.1v1.5h0Z"/>
        <path class="cls-3" d="M12.8,26.3l-4.9,4.9v1.5c2.1-2.1,4.3-4.3,6.4-6.4h-1.5Z"/>
        <path class="cls-3" d="M14.3,26.3c-2.1,2.1-4.3,4.3-6.4,6.4v1.5l7.9-7.9h-1.5Z"/>
        <path class="cls-3" d="M7.9,31.1l-4.9-4.9h-1.5c2.1,2.1,4.3,4.3,6.4,6.4v-1.5h0Z"/>
        <path class="cls-3" d="M7.9,32.7c-2.1-2.1-4.3-4.3-6.4-6.4H0l7.9,7.9v-1.5h0Z"/>
        <polygon class="cls-2" points="5.3 30 1.4 26.4 .2 26.3 1.4 26.1 6.8 21 1.8 26.3 5.3 30 5.3 30"/>
        <polygon class="cls-3" points="3.1 26.3 7.9 31.1 12.8 26.3 7.9 21.4 3.1 26.3 3.1 26.3"/>
        <polygon class="cls-3" points="4.7 26.3 7.9 29.5 11.2 26.3 7.9 23 4.7 26.3 4.7 26.3"/>
        <polygon class="cls-3" points="4.7 26.3 7.9 23 7.9 21.4 3.1 26.3 4.7 26.3 4.7 26.3"/>
        <polygon class="cls-3" points="11.2 26.3 7.9 29.5 7.9 31.1 12.8 26.3 11.2 26.3 11.2 26.3"/>
        <polygon class="cls-3" points="7.9 23 11.2 26.3 12.8 26.3 7.9 21.4 7.9 23 7.9 23"/>
        <polygon class="cls-3" points="7.9 29.5 4.7 26.3 3.1 26.3 7.9 31.1 7.9 29.5 7.9 29.5"/>
      </g>
      <polygon class="cls-3" points="9 45.1 27.8 26.3 29.4 26.3 7.9 47.7 9 45.1 9 45.1"/>
      <path class="cls-3" d="M7.9,47.7l21.4-21.4h1.5c-8,8-16,16.1-24.1,24.1l1.1-2.6h0Z"/>
      <polygon class="cls-3" points="15.4 8.8 15.4 15.9 13.6 16.7 13.6 4.4 15.4 8.8 15.4 8.8"/>
      <polygon class="cls-3" points="13.6 4.4 13.6 16.7 11.8 17.4 11.8 0 13.6 4.4 13.6 4.4"/>
      <polygon class="cls-3" points="9 7.5 9 19.4 7.9 19.9 7.9 4.8 9 7.5 9 7.5"/>
      <polygon class="cls-3" points="7.9 4.8 7.9 19.9 6.8 19.4 6.8 4.8 6.8 2.2 7.9 4.8 7.9 4.8"/>
      <polygon class="cls-3" points="9 45.1 9 33.1 7.9 32.7 7.9 47.7 9 45.1 9 45.1"/>
      <polygon class="cls-3" points="7.9 47.7 7.9 32.7 6.8 33.1 6.8 47.7 6.8 50.3 7.9 47.7 7.9 47.7"/>
      <polygon class="cls-2" points="29.4 32.4 35.8 26.5 37.6 26.3 35.8 26.1 27.4 18.2 35.1 26.3 29.4 32.4 29.4 32.4"/>
      <polygon class="cls-2" points="19.9 29.6 23.5 26.5 25.3 26.3 23.5 26.1 16.7 19.8 22.8 26.3 19.9 29.6 19.9 29.6"/>
      <polygon class="cls-3" points="29.4 26.3 7.9 4.8 6.8 2.2 30.9 26.3 29.4 26.3 29.4 26.3"/>
      <polygon class="cls-3" points="7.9 4.8 29.4 26.3 27.8 26.3 9 7.5 7.9 4.8 7.9 4.8"/>
      <polygon class="cls-2" points="26.1 29.5 29.6 26.4 30.7 26.3 29.5 26.1 22.7 19.6 29.1 26.3 26.1 29.5 26.1 29.5"/>
      <polygon class="cls-3" points="15.4 36.6 15.4 43.8 13.6 48.2 13.6 35.9 15.4 36.6 15.4 36.6"/>
      <polygon class="cls-3" points="13.6 35.9 13.6 48.2 11.8 52.6 11.8 35.1 13.6 35.9 13.6 35.9"/>
      <polygon class="cls-2" points="7.9 17.6 7.7 4.8 7 2.6 8.1 4.7 16.7 13.6 8.1 5.3 7.9 17.6 7.9 17.6"/>
    </g>
  </g>
</svg>