<?xml version="1.0" encoding="UTF-8"?>
<svg xmlns="http://www.w3.org/2000/svg" version="1.1" viewBox="0 0 38.1 52.6">
  <defs>
    <style>
      .cls-1, .cls-2, .cls-3 {
        fill: #000;
        stroke-width: 0px;
      }

      .cls-4, .cls-2 {
        isolation: isolate;
      }

      .cls-2 {
        mix-blend-mode: screen;
      }

      .cls-2, .cls-3 {
        fill-rule: evenodd;
      }
    </style>
  </defs>
  <g class="cls-4">
    <g id="Vrstva_1" data-name="Vrstva 1">
      <path class="cls-3" d="M26.3,0v17.4l-8.9,8.9,8.9,8.9v17.4L0,26.3,26.3,0h0ZM22.6,8.8L5.1,26.3l17.5,17.5v-7.2l-10.4-10.4,10.4-10.4v-7.2h0Z"/>
      <polygon class="cls-3" points="2.6 26.3 24.5 4.4 26.3 0 0 26.3 2.6 26.3 2.6 26.3"/>
      <polygon class="cls-3" points="24.5 4.4 2.6 26.3 5.1 26.3 22.6 8.8 24.5 4.4 24.5 4.4"/>
      <polygon class="cls-3" points="22.6 15.9 12.3 26.3 14.9 26.3 24.5 16.7 22.6 15.9 22.6 15.9"/>
      <polygon class="cls-3" points="24.5 16.7 14.9 26.3 17.4 26.3 26.3 17.4 24.5 16.7 24.5 16.7"/>
      <polygon class="cls-3" points="24.5 35.9 14.9 26.3 12.3 26.3 22.6 36.6 24.5 35.9 24.5 35.9"/>
      <polygon class="cls-3" points="14.9 26.3 24.5 35.9 26.3 35.1 17.4 26.3 14.9 26.3 14.9 26.3"/>
      <polygon class="cls-3" points="22.6 36.6 22.6 43.8 24.5 48.2 24.5 35.9 22.6 36.6 22.6 36.6"/>
      <polygon class="cls-3" points="24.5 35.9 24.5 48.2 26.3 52.6 26.3 35.1 24.5 35.9 24.5 35.9"/>
      <polygon class="cls-3" points="22.6 43.8 5.1 26.3 2.6 26.3 24.5 48.2 22.6 43.8 22.6 43.8"/>
      <polygon class="cls-3" points="24.5 48.2 2.6 26.3 0 26.3 26.3 52.6 24.5 48.2 24.5 48.2"/>
      <path class="cls-1" d="M31.2,4.8v45.5L7.2,26.3,31.2,2.2v2.6h0ZM29.1,45.1V7.5L10.3,26.3l18.8,18.8h0Z"/>
      <polygon class="cls-3" points="8.7 26.3 30.2 4.8 31.2 2.2 7.2 26.3 8.7 26.3 8.7 26.3"/>
      <polygon class="cls-3" points="30.2 4.8 8.7 26.3 10.3 26.3 29.1 7.5 30.2 4.8 30.2 4.8"/>
      <polygon class="cls-3" points="29.1 45.1 10.3 26.3 8.7 26.3 30.2 47.7 29.1 45.1 29.1 45.1"/>
      <path class="cls-3" d="M30.2,47.7L8.7,26.3h-1.5c8,8,16,16.1,24.1,24.1l-1.1-2.6h0Z"/>
      <polygon class="cls-3" points="22.6 8.8 22.6 15.9 24.5 16.7 24.5 4.4 22.6 8.8 22.6 8.8"/>
      <polygon class="cls-3" points="24.5 4.4 24.5 16.7 26.3 17.4 26.3 0 24.5 4.4 24.5 4.4"/>
      <g>
        <path class="cls-3" d="M23.8,26.3c2.1-2.1,4.3-4.3,6.4-6.4v-1.5l-1.1,1.1-6.9,6.9h1.5Z"/>
        <path class="cls-3" d="M30.2,19.9c-2.1,2.1-4.3,4.3-6.4,6.4h1.5l4.9-4.9v-1.5h0Z"/>
        <path class="cls-3" d="M30.2,21.4l4.9,4.9h1.5c-2.1-2.1-4.3-4.3-6.4-6.4v1.5h0Z"/>
        <path class="cls-3" d="M30.2,19.9c2.1,2.1,4.3,4.3,6.4,6.4h1.5l-6.9-6.9-1.1-1.1v1.5h0Z"/>
        <path class="cls-3" d="M35,26.3l-4.9,4.9v1.5c2.1-2.1,4.3-4.3,6.4-6.4h-1.5Z"/>
        <path class="cls-3" d="M36.5,26.3c-2.1,2.1-4.3,4.3-6.4,6.4v1.5l7.9-7.9h-1.5Z"/>
        <path class="cls-3" d="M30.2,31.1l-4.9-4.9h-1.5c2.1,2.1,4.3,4.3,6.4,6.4v-1.5h0Z"/>
        <path class="cls-3" d="M30.2,32.7c-2.1-2.1-4.3-4.3-6.4-6.4h-1.5l7.9,7.9v-1.5h0Z"/>
        <polygon class="cls-2" points="27.5 30 23.6 26.4 22.5 26.3 23.6 26.1 29 21 24 26.3 27.5 30 27.5 30"/>
        <polygon class="cls-3" points="25.3 26.3 30.2 31.1 35 26.3 30.2 21.4 25.3 26.3 25.3 26.3"/>
        <polygon class="cls-3" points="26.9 26.3 30.2 29.5 33.4 26.3 30.2 23 26.9 26.3 26.9 26.3"/>
        <polygon class="cls-3" points="26.9 26.3 30.2 23 30.2 21.4 25.3 26.3 26.9 26.3 26.9 26.3"/>
        <polygon class="cls-3" points="33.4 26.3 30.2 29.5 30.2 31.1 35 26.3 33.4 26.3 33.4 26.3"/>
        <polygon class="cls-3" points="30.2 23 33.4 26.3 35 26.3 30.2 21.4 30.2 23 30.2 23"/>
        <polygon class="cls-3" points="30.2 29.5 26.9 26.3 25.3 26.3 30.2 31.1 30.2 29.5 30.2 29.5"/>
      </g>
      <polygon class="cls-3" points="29.1 7.5 29.1 19.4 30.2 19.9 30.2 4.8 29.1 7.5 29.1 7.5"/>
      <polygon class="cls-3" points="30.2 4.8 30.2 19.9 31.2 19.4 31.2 4.8 31.2 2.2 30.2 4.8 30.2 4.8"/>
      <polygon class="cls-3" points="29.1 45.1 29.1 33.1 30.2 32.7 30.2 47.7 29.1 45.1 29.1 45.1"/>
      <polygon class="cls-3" points="30.2 47.7 30.2 32.7 31.2 33.1 31.2 47.7 31.2 50.3 30.2 47.7 30.2 47.7"/>
      <polygon class="cls-2" points="12.1 35.9 2.3 26.5 .5 26.3 2.3 26.1 23.8 5.1 3 26.3 12.1 35.9 12.1 35.9"/>
      <polygon class="cls-2" points="13 30.5 8.5 26.4 7.4 26.3 8.6 26.1 18.9 16.1 9 26.3 13 30.5 13 30.5"/>
      <polygon class="cls-2" points="20.4 31.8 14.6 26.5 12.8 26.3 14.6 26.1 23.7 17.5 15.3 26.3 20.4 31.8 20.4 31.8"/>
    </g>
  </g>
</svg>