<?xml version="1.0" encoding="UTF-8"?>
<svg xmlns="http://www.w3.org/2000/svg" version="1.1" xmlns:xlink="http://www.w3.org/1999/xlink" viewBox="0 0 38.09 52.56">
  <defs>
    <style>
      .cls-1, .cls-2, .cls-3, .cls-4, .cls-5, .cls-6, .cls-7, .cls-8, .cls-9, .cls-10, .cls-11, .cls-12, .cls-13, .cls-14, .cls-15, .cls-16, .cls-17, .cls-18, .cls-19, .cls-20, .cls-21, .cls-22, .cls-23, .cls-24, .cls-25, .cls-26, .cls-27, .cls-28, .cls-29, .cls-30, .cls-31, .cls-32, .cls-33, .cls-34, .cls-35, .cls-36, .cls-37, .cls-38, .cls-39 {
        stroke-width: 0px;
      }

      .cls-1, .cls-2, .cls-3, .cls-4, .cls-5, .cls-6, .cls-7, .cls-8, .cls-9, .cls-10, .cls-11, .cls-13, .cls-14, .cls-15, .cls-16, .cls-17, .cls-18, .cls-19, .cls-20, .cls-21, .cls-22, .cls-23, .cls-24, .cls-25, .cls-26, .cls-27, .cls-28, .cls-29, .cls-30, .cls-31, .cls-32, .cls-33, .cls-34, .cls-35, .cls-36, .cls-37, .cls-38, .cls-39 {
        fill-rule: evenodd;
      }

      .cls-1, .cls-12 {
        fill: #b3b3b3;
      }

      .cls-2 {
        fill: url(#linear-gradient-8);
      }

      .cls-3 {
        fill: url(#radial-gradient-2);
      }

      .cls-3, .cls-9, .cls-14, .cls-15 {
        mix-blend-mode: screen;
      }

      .cls-4 {
        fill: url(#linear-gradient-11);
      }

      .cls-5 {
        fill: url(#linear-gradient-7);
      }

      .cls-6 {
        fill: url(#linear-gradient-16);
      }

      .cls-7 {
        fill: #203d6b;
      }

      .cls-8 {
        fill: url(#linear-gradient-9);
      }

      .cls-9 {
        fill: url(#radial-gradient);
      }

      .cls-10 {
        fill: url(#linear-gradient-18);
      }

      .cls-40 {
        isolation: isolate;
      }

      .cls-11 {
        fill: url(#linear-gradient-3);
      }

      .cls-13 {
        fill: url(#linear-gradient-28);
      }

      .cls-14 {
        fill: url(#radial-gradient-3);
      }

      .cls-15 {
        fill: url(#radial-gradient-4);
      }

      .cls-16 {
        fill: url(#linear-gradient-23);
      }

      .cls-17 {
        fill: #132d54;
      }

      .cls-18 {
        fill: url(#linear-gradient-17);
      }

      .cls-19 {
        fill: url(#linear-gradient);
      }

      .cls-20 {
        fill: url(#linear-gradient-13);
      }

      .cls-21 {
        fill: url(#linear-gradient-27);
      }

      .cls-22 {
        fill: url(#linear-gradient-20);
      }

      .cls-23 {
        fill: #000;
      }

      .cls-24 {
        fill: url(#linear-gradient-2);
      }

      .cls-25 {
        fill: url(#linear-gradient-15);
      }

      .cls-26 {
        fill: url(#linear-gradient-5);
      }

      .cls-27 {
        fill: url(#linear-gradient-24);
      }

      .cls-28 {
        fill: url(#linear-gradient-29);
      }

      .cls-29 {
        fill: #010716;
      }

      .cls-30 {
        fill: url(#linear-gradient-19);
      }

      .cls-31 {
        fill: url(#linear-gradient-22);
      }

      .cls-32 {
        fill: url(#linear-gradient-12);
      }

      .cls-33 {
        fill: url(#linear-gradient-14);
      }

      .cls-34 {
        fill: url(#linear-gradient-25);
      }

      .cls-35 {
        fill: url(#linear-gradient-6);
      }

      .cls-36 {
        fill: url(#linear-gradient-4);
      }

      .cls-37 {
        fill: url(#linear-gradient-21);
      }

      .cls-38 {
        fill: url(#linear-gradient-26);
      }

      .cls-39 {
        fill: url(#linear-gradient-10);
      }
    </style>
    <linearGradient id="linear-gradient" x1="14.42" y1="14.42" x2="13.14" y2="13.14" gradientUnits="userSpaceOnUse">
      <stop offset="0" stop-color="#efe1bb"/>
      <stop offset="1" stop-color="#edd4ae"/>
    </linearGradient>
    <linearGradient id="linear-gradient-2" x1="14.8" y1="16.62" x2="13.52" y2="15.33" gradientUnits="userSpaceOnUse">
      <stop offset="0" stop-color="#523329"/>
      <stop offset="1" stop-color="#a27048"/>
    </linearGradient>
    <linearGradient id="linear-gradient-3" x1="19.02" y1="22.12" x2="17.74" y2="20.84" xlink:href="#linear-gradient"/>
    <linearGradient id="linear-gradient-4" x1="21.21" y1="22.5" x2="19.93" y2="21.21" xlink:href="#linear-gradient-2"/>
    <linearGradient id="linear-gradient-5" x1="19.02" y1="30.44" x2="17.74" y2="31.72" gradientUnits="userSpaceOnUse">
      <stop offset="0" stop-color="#a27048"/>
      <stop offset="1" stop-color="#523329"/>
    </linearGradient>
    <linearGradient id="linear-gradient-6" x1="21.21" y1="30.06" x2="19.93" y2="31.35" gradientUnits="userSpaceOnUse">
      <stop offset="0" stop-color="#e2bb7e"/>
      <stop offset="1" stop-color="#ece2a9"/>
    </linearGradient>
    <linearGradient id="linear-gradient-7" x1="22.65" y1="42.03" x2="24.46" y2="42.03" gradientUnits="userSpaceOnUse">
      <stop offset="0" stop-color="#a5734a"/>
      <stop offset="1" stop-color="#e0b177"/>
    </linearGradient>
    <linearGradient id="linear-gradient-8" x1="24.46" y1="43.84" x2="26.28" y2="43.84" gradientUnits="userSpaceOnUse">
      <stop offset="0" stop-color="#a27048"/>
      <stop offset="1" stop-color="#523329"/>
    </linearGradient>
    <linearGradient id="linear-gradient-9" x1="14.8" y1="35.94" x2="13.52" y2="37.23" xlink:href="#linear-gradient-6"/>
    <linearGradient id="linear-gradient-10" x1="14.42" y1="38.13" x2="13.14" y2="39.42" xlink:href="#linear-gradient-5"/>
    <linearGradient id="linear-gradient-11" x1="19.98" y1="15.01" x2="19.21" y2="14.24" xlink:href="#linear-gradient"/>
    <linearGradient id="linear-gradient-12" x1="20.21" y1="16.33" x2="19.44" y2="15.56" xlink:href="#linear-gradient-2"/>
    <linearGradient id="linear-gradient-13" x1="20.21" y1="36.23" x2="19.44" y2="37" xlink:href="#linear-gradient-6"/>
    <linearGradient id="linear-gradient-14" x1="19.98" y1="37.54" x2="19.21" y2="38.32" xlink:href="#linear-gradient-5"/>
    <linearGradient id="linear-gradient-15" y1="10.53" y2="10.53" xlink:href="#linear-gradient-7"/>
    <linearGradient id="linear-gradient-16" y1="8.72" y2="8.72" xlink:href="#linear-gradient-8"/>
    <linearGradient id="linear-gradient-17" x1="26.96" y1="23.08" x2="26.19" y2="22.31" gradientUnits="userSpaceOnUse">
      <stop offset="0" stop-color="#efe1bb"/>
      <stop offset="1" stop-color="#edd4ae"/>
    </linearGradient>
    <linearGradient id="linear-gradient-18" x1="27.73" y1="23.85" x2="26.96" y2="23.08" gradientUnits="userSpaceOnUse">
      <stop offset="0" stop-color="#523329"/>
      <stop offset="1" stop-color="#a27048"/>
    </linearGradient>
    <linearGradient id="linear-gradient-19" x1="33.36" y1="23.08" x2="32.59" y2="23.85" gradientUnits="userSpaceOnUse">
      <stop offset="0" stop-color="#a27048"/>
      <stop offset="1" stop-color="#523329"/>
    </linearGradient>
    <linearGradient id="linear-gradient-20" x1="34.13" y1="22.31" x2="33.36" y2="23.08" gradientUnits="userSpaceOnUse">
      <stop offset="0" stop-color="#e2bb7e"/>
      <stop offset="1" stop-color="#ece2a9"/>
    </linearGradient>
    <linearGradient id="linear-gradient-21" x1="33.36" y1="29.48" x2="32.59" y2="28.71" xlink:href="#linear-gradient-17"/>
    <linearGradient id="linear-gradient-22" x1="34.13" y1="30.25" x2="33.36" y2="29.48" xlink:href="#linear-gradient-18"/>
    <linearGradient id="linear-gradient-23" x1="27.73" y1="28.71" x2="26.96" y2="29.48" gradientUnits="userSpaceOnUse">
      <stop offset="0" stop-color="#8c6c51"/>
      <stop offset="1" stop-color="#dec2a0"/>
    </linearGradient>
    <linearGradient id="linear-gradient-24" x1="26.96" y1="29.48" x2="26.19" y2="30.25" gradientUnits="userSpaceOnUse">
      <stop offset="0" stop-color="#a27048"/>
      <stop offset="1" stop-color="#523329"/>
    </linearGradient>
    <radialGradient id="radial-gradient" cx="23.06" cy="24.61" fx="23.06" fy="24.61" r="15.62" gradientUnits="userSpaceOnUse">
      <stop offset="0" stop-color="#efe5b8"/>
      <stop offset="1" stop-color="#000"/>
    </radialGradient>
    <linearGradient id="linear-gradient-25" x1="30.16" y1="29.54" x2="30.16" y2="23.01" gradientUnits="userSpaceOnUse">
      <stop offset="0" stop-color="#1a2540"/>
      <stop offset="1" stop-color="#101524"/>
    </linearGradient>
    <linearGradient id="linear-gradient-26" x1="29.07" y1="12.36" x2="30.16" y2="12.36" xlink:href="#linear-gradient-7"/>
    <linearGradient id="linear-gradient-27" x1="30.16" y1="11.04" x2="31.25" y2="11.04" xlink:href="#linear-gradient-8"/>
    <linearGradient id="linear-gradient-28" x1="29.07" y1="40.2" x2="30.16" y2="40.2" xlink:href="#linear-gradient-7"/>
    <linearGradient id="linear-gradient-29" x1="30.16" y1="41.51" x2="31.25" y2="41.51" xlink:href="#linear-gradient-8"/>
    <radialGradient id="radial-gradient-2" cx="1.59" cy="21.4" fx="1.59" fy="21.4" r="39.22" xlink:href="#radial-gradient"/>
    <radialGradient id="radial-gradient-3" cx="7.88" cy="24.26" fx="7.88" fy="24.26" r="28.23" xlink:href="#radial-gradient"/>
    <radialGradient id="radial-gradient-4" cx="12.79" cy="22.3" fx="12.79" fy="22.3" r="28.81" xlink:href="#radial-gradient"/>
  </defs>
  <g class="cls-40">
    <g id="Layer_1" data-name="Layer 1">
      <g>
        <path class="cls-1" d="M26.28,0v17.43l-8.85,8.85,8.85,8.85v17.43L0,26.28,26.28,0h0ZM22.65,8.77L5.14,26.28l17.51,17.51v-7.16l-10.35-10.35,10.35-10.35v-7.16h0Z"/>
        <polygon class="cls-19" points="2.57 26.28 24.46 4.38 26.28 0 0 26.28 2.57 26.28 2.57 26.28"/>
        <polygon class="cls-24" points="24.46 4.38 2.57 26.28 5.14 26.28 22.65 8.77 24.46 4.38 24.46 4.38"/>
        <polygon class="cls-11" points="22.65 15.93 12.29 26.28 14.86 26.28 24.46 16.68 22.65 15.93 22.65 15.93"/>
        <polygon class="cls-36" points="24.46 16.68 14.86 26.28 17.43 26.28 26.28 17.43 24.46 16.68 24.46 16.68"/>
        <polygon class="cls-26" points="24.46 35.88 14.86 26.28 12.29 26.28 22.65 36.63 24.46 35.88 24.46 35.88"/>
        <polygon class="cls-35" points="14.86 26.28 24.46 35.88 26.28 35.13 17.43 26.28 14.86 26.28 14.86 26.28"/>
        <polygon class="cls-5" points="22.65 36.63 22.65 43.79 24.46 48.17 24.46 35.88 22.65 36.63 22.65 36.63"/>
        <polygon class="cls-2" points="24.46 35.88 24.46 48.17 26.28 52.56 26.28 35.13 24.46 35.88 24.46 35.88"/>
        <polygon class="cls-8" points="22.65 43.79 5.14 26.28 2.57 26.28 24.46 48.17 22.65 43.79 22.65 43.79"/>
        <polygon class="cls-39" points="24.46 48.17 2.57 26.28 0 26.28 26.28 52.56 24.46 48.17 24.46 48.17"/>
        <path class="cls-12" d="M31.25,4.84v45.52c-8.02-8.02-16.05-16.05-24.07-24.07L31.25,2.21v2.63h0ZM29.07,45.09V7.47L10.26,26.28l18.81,18.81h0Z"/>
        <polygon class="cls-4" points="8.71 26.28 30.16 4.84 31.25 2.21 7.17 26.28 8.71 26.28 8.71 26.28"/>
        <polygon class="cls-32" points="30.16 4.84 8.71 26.28 10.26 26.28 29.07 7.47 30.16 4.84 30.16 4.84"/>
        <polygon class="cls-20" points="29.07 45.09 10.26 26.28 8.71 26.28 30.16 47.72 29.07 45.09 29.07 45.09"/>
        <path class="cls-33" d="M30.16,47.72L8.71,26.28h-1.54c8.02,8.03,16.05,16.05,24.07,24.07l-1.09-2.63h0Z"/>
        <polygon class="cls-25" points="22.65 8.77 22.65 15.93 24.46 16.68 24.46 4.38 22.65 8.77 22.65 8.77"/>
        <polygon class="cls-6" points="24.46 4.38 24.46 16.68 26.28 17.43 26.28 0 24.46 4.38 24.46 4.38"/>
        <g>
          <path class="cls-18" d="M23.76,26.28c2.13-2.13,4.26-4.27,6.4-6.4v-1.54l-1.09,1.09-6.85,6.85h1.54Z"/>
          <path class="cls-10" d="M30.16,19.88c-2.13,2.13-4.26,4.26-6.4,6.4h1.54l4.86-4.86v-1.54h0Z"/>
          <path class="cls-30" d="M30.16,21.42l4.86,4.86h1.54c-2.13-2.13-4.27-4.27-6.4-6.4v1.54h0Z"/>
          <path class="cls-22" d="M30.16,19.88c2.13,2.13,4.27,4.26,6.4,6.4h1.54s-6.85-6.85-6.85-6.85l-1.09-1.09v1.54h0Z"/>
          <path class="cls-37" d="M35.01,26.28l-4.86,4.86v1.54c2.13-2.13,4.27-4.27,6.4-6.4h-1.54Z"/>
          <path class="cls-31" d="M36.55,26.28c-2.13,2.13-4.27,4.26-6.4,6.4v1.54l7.94-7.94h-1.54Z"/>
          <path class="cls-16" d="M30.16,31.14l-4.86-4.86h-1.54c2.13,2.13,4.26,4.26,6.4,6.4v-1.54h0Z"/>
          <path class="cls-27" d="M30.16,32.68c-2.13-2.13-4.26-4.27-6.4-6.4h-1.54l7.94,7.94v-1.54h0Z"/>
          <polygon class="cls-9" points="27.52 30.04 23.57 26.41 22.47 26.28 23.6 26.12 28.99 21.05 24 26.28 27.52 30.04 27.52 30.04"/>
          <polygon class="cls-23" points="25.3 26.28 30.16 31.14 35.01 26.28 30.16 21.42 25.3 26.28 25.3 26.28"/>
          <polygon class="cls-34" points="26.89 26.28 30.16 29.54 33.42 26.28 30.16 23.01 26.89 26.28 26.89 26.28"/>
          <polygon class="cls-7" points="26.89 26.28 30.16 23.01 30.16 21.42 25.3 26.28 26.89 26.28 26.89 26.28"/>
          <polygon class="cls-29" points="33.42 26.28 30.16 29.54 30.16 31.14 35.01 26.28 33.42 26.28 33.42 26.28"/>
          <polygon class="cls-17" points="30.16 23.01 33.42 26.28 35.01 26.28 30.16 21.42 30.16 23.01 30.16 23.01"/>
          <polygon class="cls-17" points="30.16 29.54 26.89 26.28 25.3 26.28 30.16 31.14 30.16 29.54 30.16 29.54"/>
        </g>
        <polygon class="cls-38" points="29.07 7.47 29.07 19.43 30.16 19.88 30.16 4.84 29.07 7.47 29.07 7.47"/>
        <polygon class="cls-21" points="30.16 4.84 30.16 19.88 31.25 19.43 31.25 4.84 31.25 2.21 30.16 4.84 30.16 4.84"/>
        <polygon class="cls-13" points="29.07 45.09 29.07 33.13 30.16 32.68 30.16 47.72 29.07 45.09 29.07 45.09"/>
        <polygon class="cls-28" points="30.16 47.72 30.16 32.68 31.25 33.13 31.25 47.72 31.25 50.35 30.16 47.72 30.16 47.72"/>
        <polygon class="cls-3" points="12.15 35.86 2.28 26.45 .5 26.28 2.28 26.08 23.75 5.1 3.02 26.28 12.15 35.86 12.15 35.86"/>
        <polygon class="cls-14" points="12.98 30.55 8.53 26.41 7.43 26.28 8.55 26.12 18.87 16.13 8.96 26.28 12.98 30.55 12.98 30.55"/>
        <polygon class="cls-15" points="20.37 31.79 14.57 26.45 12.79 26.28 14.57 26.08 23.68 17.46 15.31 26.28 20.37 31.79 20.37 31.79"/>
      </g>
    </g>
  </g>
</svg>