<?xml version="1.0" encoding="UTF-8"?>
<svg id="Layer_1" data-name="Layer 1" xmlns="http://www.w3.org/2000/svg" version="1.1" xmlns:xlink="http://www.w3.org/1999/xlink" viewBox="0 0 259.7 247.1">
  <defs>
    <style>
      .cls-1 {
        fill: url(#Nepojmenovaný_přechod_31);
        stroke-width: 0px;
      }
    </style>
    <linearGradient id="Nepojmenovaný_přechod_31" data-name="Nepojmenovaný přechod 31" x1="121.9" y1="37.9" x2="199.7" y2="262.6" gradientUnits="userSpaceOnUse">
      <stop offset="0" stop-color="ivory"/>
      <stop offset=".3" stop-color="#edd4ae"/>
      <stop offset=".3" stop-color="#e8cea8"/>
      <stop offset=".4" stop-color="#d3b28b"/>
      <stop offset=".4" stop-color="#c29a73"/>
      <stop offset=".5" stop-color="#b58860"/>
      <stop offset=".6" stop-color="#ab7c53"/>
      <stop offset=".7" stop-color="#a6754c"/>
      <stop offset="1" stop-color="#a5734a"/>
    </linearGradient>
  </defs>
  <path id="checkmarkIcon" class="cls-1" d="M257.1,3.6c-3.9-4.4-10.7-4.8-15.1-.9-17,15.1-32.6,30.6-48.1,46.7-15.4,16.1-30.4,32.6-44.7,49.7-21.5,25.3-41.9,51.8-61.1,79.2L18.7,103.6c-3.3-3.6-8.9-4.6-13.3-2-5.1,3-6.9,9.6-3.9,14.7,0,0,66.2,114.2,68.9,118.9s8.7,11.9,21.1,11.9,18.5-7,22.5-14.5c4-7.6,40.7-75.5,64.6-111.4,11.9-18,24.5-35.6,37.5-52.9,13-17.2,26.7-34.3,40.8-50.1l.2-.3c3.5-4,3.6-10.2,0-14.3Z"/>
</svg>