<?xml version="1.0" encoding="UTF-8"?>
<svg xmlns="http://www.w3.org/2000/svg" version="1.1" viewBox="0 0 82.7 82.7">
  <defs>
    <style>
      .cls-1, .cls-2, .cls-3, .cls-4 {
        fill: #000;
        stroke-width: 0px;
      }

      .cls-5, .cls-2, .cls-4 {
        isolation: isolate;
      }

      .cls-2, .cls-3, .cls-4 {
        fill-rule: evenodd;
      }

      .cls-2, .cls-4 {
        mix-blend-mode: screen;
      }

      .cls-4 {
        opacity: .7;
      }
    </style>
  </defs>
  <g class="cls-5">
    <g id="Vrstva_1" data-name="Vrstva 1">
      <polygon class="cls-3" points="52.7 14 30 14 14 30 14 52.7 30 68.7 52.7 68.7 68.7 52.7 68.7 30 52.7 14 52.7 14"/>
      <polygon class="cls-3" points="52.2 15.3 30.6 15.3 15.3 30.6 15.3 52.2 30.6 67.4 52.2 67.4 67.4 52.2 67.4 30.6 52.2 15.3 52.2 15.3"/>
      <path class="cls-1" d="M.7,40.7L41.4,0l41.4,41.4-41.4,41.4C27.6,68.9,13.8,55.2,0,41.4l.7-.7h0ZM41.4,2.7L2.7,41.4l38.7,38.7,38.7-38.7L41.4,2.7h0Z"/>
      <path class="cls-1" d="M41.4,5.6c9.9,0,18.8,4,25.3,10.5,6.5,6.5,10.5,15.4,10.5,25.3s-4,18.8-10.5,25.3c-6.5,6.5-15.4,10.5-25.3,10.5s-18.8-4-25.3-10.5-10.5-15.4-10.5-25.3,4-18.8,10.5-25.3,15.4-10.5,25.3-10.5h0ZM64.4,18.3c-5.9-5.9-14-9.5-23-9.5s-17.1,3.6-23,9.5-9.5,14-9.5,23,3.6,17.1,9.5,23,14,9.5,23,9.5,17.1-3.6,23-9.5,9.5-14,9.5-23-3.6-17.1-9.5-23h0Z"/>
      <path class="cls-1" d="M13.1,12.1h57.5v58.5H12.1V12.1s1,0,1,0ZM68.7,14H14v54.7h54.7V14h0Z"/>
      <polygon class="cls-3" points="1.4 41.4 21.4 21.4 20.7 20.7 .7 40.7 0 41.4 1.4 41.4 1.4 41.4"/>
      <polygon class="cls-3" points="21.4 21.4 1.4 41.4 2.7 41.4 22 22 21.4 21.4 21.4 21.4"/>
      <polygon class="cls-3" points="13.1 13.1 13.1 41.4 12.1 41.4 12.1 13.1 12.1 12.1 13.1 13.1 13.1 13.1"/>
      <polygon class="cls-3" points="13.1 41.4 13.1 13.1 14 14 14 41.4 13.1 41.4 13.1 41.4"/>
      <polygon class="cls-3" points="41.4 1.4 61.4 21.4 62.1 20.7 42 .7 41.4 0 41.4 1.4 41.4 1.4"/>
      <polygon class="cls-3" points="61.4 21.4 41.4 1.4 41.4 2.7 60.7 22 61.4 21.4 61.4 21.4"/>
      <polygon class="cls-3" points="62.1 62.1 61.4 61.4 81.4 41.4 82.7 41.4 62.1 62.1 62.1 62.1"/>
      <polygon class="cls-3" points="81.4 41.4 61.4 61.4 60.7 60.7 80 41.4 81.4 41.4 81.4 41.4"/>
      <polygon class="cls-3" points="70.6 41.4 69.7 41.4 69.7 69.7 70.6 70.6 70.6 41.4 70.6 41.4"/>
      <polygon class="cls-3" points="69.7 69.7 69.7 41.4 68.7 41.4 68.7 68.7 69.7 69.7 69.7 69.7"/>
      <path class="cls-3" d="M7.2,41.4C7.2,22.5,22.5,7.2,41.4,7.2v-1.6c-9.9,0-18.8,4-25.3,10.5s-10.5,15.4-10.5,25.3c0,0,1.6,0,1.6,0Z"/>
      <path class="cls-3" d="M18.3,18.3c5.9-5.9,14-9.5,23-9.5v-1.6c-18.8,0-34.1,15.3-34.1,34.2h1.6c0-9,3.6-17.1,9.5-23h0Z"/>
      <polygon class="cls-3" points="41.4 12.1 41.4 13.1 69.7 13.1 70.6 12.1 41.4 12.1 41.4 12.1"/>
      <polygon class="cls-3" points="69.7 13.1 41.4 13.1 41.4 14 68.7 14 69.7 13.1 69.7 13.1"/>
      <polygon class="cls-3" points="20.7 62.1 21.4 61.4 41.4 81.4 41.4 82.7 20.7 62.1 20.7 62.1"/>
      <polygon class="cls-3" points="41.4 81.4 21.4 61.4 22 60.7 41.4 80 41.4 81.4 41.4 81.4"/>
      <polygon class="cls-3" points="13.1 69.7 41.4 69.7 41.4 70.6 13.1 70.6 12.1 70.6 13.1 69.7 13.1 69.7"/>
      <polygon class="cls-3" points="41.4 69.7 13.1 69.7 14 68.7 41.4 68.7 41.4 69.7 41.4 69.7"/>
      <path class="cls-3" d="M41.4,8.8c9,0,17.1,3.6,23,9.5s9.5,14,9.5,23h1.6c0-18.9-15.3-34.2-34.2-34.2v1.6h.1Z"/>
      <path class="cls-3" d="M41.4,7.2c18.9,0,34.2,15.3,34.2,34.2h1.6c0-9.9-4-18.8-10.5-25.3s-15.4-10.5-25.3-10.5v1.6h0Z"/>
      <path class="cls-3" d="M18.3,64.4c-5.9-5.9-9.5-14-9.5-23h-1.6c0,18.9,15.3,34.2,34.2,34.2v-1.6c-9,0-17.1-3.6-23-9.5h-.1Z"/>
      <path class="cls-3" d="M41.4,75.5c-18.9,0-34.2-15.3-34.2-34.2h-1.6c0,9.9,4,18.8,10.5,25.3s15.4,10.5,25.3,10.5v-1.6h0Z"/>
      <polygon class="cls-3" points="69.7 13.1 69.7 41.4 70.6 41.4 70.6 13.1 70.6 12.1 69.7 13.1 69.7 13.1"/>
      <polygon class="cls-3" points="69.7 41.4 69.7 13.1 68.7 14 68.7 41.4 69.7 41.4 69.7 41.4"/>
      <path class="cls-3" d="M64.4,64.4c-5.9,5.9-14,9.5-23,9.5v1.6c18.9,0,34.2-15.3,34.2-34.2h-1.6c0,9-3.6,17.1-9.5,23h-.1Z"/>
      <path class="cls-3" d="M75.5,41.4c0,18.9-15.3,34.2-34.2,34.2v1.6c9.9,0,18.8-4,25.3-10.5s10.5-15.4,10.5-25.3c0,0-1.6,0-1.6,0Z"/>
      <polygon class="cls-3" points="41.4 70.6 41.4 69.7 69.7 69.7 70.6 70.6 41.4 70.6 41.4 70.6"/>
      <polygon class="cls-3" points="69.7 69.7 41.4 69.7 41.4 68.7 68.7 68.7 69.7 69.7 69.7 69.7"/>
      <polygon class="cls-3" points="41.4 81.4 61.4 61.4 62.1 62.1 42 82.1 41.4 82.7 41.4 81.4 41.4 81.4"/>
      <polygon class="cls-3" points="61.4 61.4 41.4 81.4 41.4 80 60.7 60.7 61.4 61.4 61.4 61.4"/>
      <polygon class="cls-3" points="12.1 41.4 13.1 41.4 13.1 69.7 12.1 70.6 12.1 41.4 12.1 41.4"/>
      <polygon class="cls-3" points="13.1 69.7 13.1 41.4 14 41.4 14 68.7 13.1 69.7 13.1 69.7"/>
      <polygon class="cls-3" points="62.1 20.7 61.4 21.4 81.4 41.4 82.7 41.4 62.1 20.7 62.1 20.7"/>
      <polygon class="cls-3" points="81.4 41.4 61.4 21.4 60.7 22 80 41.4 81.4 41.4 81.4 41.4"/>
      <polygon class="cls-3" points="1.4 41.4 21.4 61.4 20.7 62.1 .7 42 0 41.4 1.4 41.4 1.4 41.4"/>
      <polygon class="cls-3" points="21.4 61.4 1.4 41.4 2.7 41.4 22 60.7 21.4 61.4 21.4 61.4"/>
      <polygon class="cls-3" points="13.1 13.1 41.4 13.1 41.4 12.1 13.1 12.1 12.1 12.1 13.1 13.1 13.1 13.1"/>
      <polygon class="cls-3" points="41.4 13.1 13.1 13.1 14 14 41.4 14 41.4 13.1 41.4 13.1"/>
      <polygon class="cls-3" points="20.7 20.7 21.4 21.4 41.4 1.4 41.4 0 20.7 20.7 20.7 20.7"/>
      <polygon class="cls-3" points="41.4 1.4 21.4 21.4 22 22 41.4 2.7 41.4 1.4 41.4 1.4"/>
      <polygon class="cls-3" points="52.2 15.3 52.7 14 30 14 30.6 15.3 52.2 15.3 52.2 15.3"/>
      <polygon class="cls-3" points="67.4 52.2 68.7 52.7 68.7 30 67.4 30.6 67.4 52.2 67.4 52.2"/>
      <polygon class="cls-3" points="67.4 30.6 68.7 30 52.7 14 52.2 15.3 67.4 30.6 67.4 30.6"/>
      <polygon class="cls-3" points="52.2 67.4 52.7 68.7 68.7 52.7 67.4 52.2 52.2 67.4 52.2 67.4"/>
      <polygon class="cls-3" points="52.2 67.4 52.7 68.7 30 68.7 30.6 67.4 52.2 67.4 52.2 67.4"/>
      <polygon class="cls-3" points="15.3 52.2 14 52.7 14 30 15.3 30.6 15.3 52.2 15.3 52.2"/>
      <polygon class="cls-3" points="30.6 67.4 30 68.7 14 52.7 15.3 52.2 30.6 67.4 30.6 67.4"/>
      <polygon class="cls-3" points="15.3 30.6 14 30 30 14 30.6 15.3 15.3 30.6 15.3 30.6"/>
      <polygon class="cls-4" points="30.2 14.3 30.2 15.3 19.2 26.7 30.7 15.6 47.4 15.3 30.8 15 30.2 14.3 30.2 14.3"/>
      <polygon class="cls-2" points="13.1 18.8 12.8 13.1 12.3 12.3 13.2 12.9 27.5 13.1 13.2 13.2 13.1 18.8 13.1 18.8"/>
      <polygon class="cls-2" points="16.9 25.8 41.2 1.2 41.4 .2 41.6 1.2 45 5 41.4 1.8 16.9 25.8 16.9 25.8"/>
    </g>
  </g>
</svg>