<?xml version="1.0" encoding="UTF-8"?>
<svg xmlns="http://www.w3.org/2000/svg" version="1.1" viewBox="0 0 82.7 82.7">
  <defs>
    <style>
      .cls-1 {
        fill: red;
        fill-rule: evenodd;
        stroke-width: 0px;
      }
    </style>
  </defs>
  <path id="gateIcon" class="cls-1" d="M41.6,20.3c0,0,0,.1,0,.2,0,0,0,.2,0,.3,0,0,0,.3-.1.5s0,.4-.1.5c0,.2-.1.5-.2.9,0,.1,0,.3-.1.5,0,.1,0,.3-.1.5,0,.3-.1.6-.2.9,0,.2,0,.2-.2.3,0,0-.1.1-.2.1,0,0-.1,0-.2-.4-.2-.7-.2-.8-.2,3.2,0,1.9,0,3.4,0,3.4,0,0-.2-.1-.5-.5v-.2c-.1,0-.2.1-.2.1,0,0,0,.4,0,.7,0,.3,0,.6,0,.6,0,0,0-.1,0-.8v-.8s-.1-.2-.1-.2c-.1-.2-.2-.3-.2-.5,0,0,0,.3,0,2,0,2,0,2.1,0,2.1-.2,0-.3-.3-.3-.7s0-.2,0-.2c0,0,0,0,0,.1,0,.2,0,.4-.1.4s0,0,0-.3c0-.4,0-.6,0-.7,0,0,0-.2,0-.3,0,0,0-.2,0-.2,0,0,0,2.1,0,2.3v.2s.7-.5.7-.5c.4-.3.9-.7,1.2-.9.3-.2.6-.4.6-.5,0,0,0,0,.1,0,0,0,0,0,0-.4s0-.3,0-.4c0,0,0-1.8,0-4.5v-.8s.2-.2.2-.2c0,0,.2-.1.2-.1,0,.3,0,6.5,0,6.5,0,0,0,0-.1,0,0,0-.1.1-.2.2s-.2.1-.2.2c-.1,0-.4.3-.4.3,0,0-.2.1-.3.2-.2.1-.5.3-.7.5-.2.1-.5.3-.6.4-.1,0-.3.2-.3.2,0,0-.2.1-.3.2l-.2.2v4.2c0,3.7,0,4.2,0,4.3,0,.1,0,1.5,0,1.9,0,0,0,.4,0,.8s0,.8,0,1v.4s0,.2,0,.2c0,0,.1.2.1.2,0,0,0,0,0,0,0,.1,0,0-.2,0h0c0,0,0,0,0,0-.1.6-.1.6-.1.8,0,.5.1,1.5,0,1.6,0,0,0,.3,0,.3,0,0,0,0,0,0,0,0,0-.4,0-1,0-.4,0-.7,0-.8,0-.3,0-.7,0-1.1v-.3s-.1-.2-.1-.2c0,0-.2-.3-.3-.4v-.3c-.1,0-.2.2-.2.2-.2.3-.2.5-.2.5,0,0-.7.8-.8.8,0,0,0-.1.1-.3.2-.2.4-.6.5-.8,0,0,.1-.2.1-.3,0,0,0-.2.1-.2.1-.2.1-.2.4.2.1.2.3.3.3.4h0c0,0,0-1.1,0-1.1,0-.7,0-2,0-2.9s0-2.2,0-2.6c0-.9,0-.9,0-1h0c0-.1,0-2.5,0-2.5v-2.4s-.1-.1-.1-.1c-.2-.1-1.1-1-1.6-1.6-.2-.2-.4-.4-.4-.5h0c0-.1,0,0,0,0,0,0,0,.2,0,.2,0,0,0,.1,0,.2,0,.2.2.8.2.9,0,0,0,7.4,0,7.5,0,.1-.2-.1-.2-.3,0,0,0,0,0-.1,0,0,0-.1,0-.1,0-.3,0-.2-.1.1,0,.4,0,.4.2.6.1,0,.3.3.4.4.1.1.3.3.5.4.2.1.3.2.7.5,0,0,.1,0,.2.1,0,0,.1,0,.1,0s0,0,0,0c0,0-.1,0-.2,0-.2-.1-.2-.1,0,0,.1,0,.2.2.1.2,0,0-.2-.1-.5-.3-.4-.4-.8-.6-.8-.4,0,0,0,.3,0,.6,0,.8,0,.7,0-.2v-.8s-.2-.1-.2-.1c0,0-.2-.2-.3-.2h-.1c0,0,0,.6,0,.6v.7s-.1.1-.1.1c0,0-.1.1-.1.2,0,0,0,.2,0,.3,0,.3,0,.5-.1.6,0,.2-.2.5-.2.6s0,.2,0,.4c0,.2,0,.5-.1.7,0,.2,0,.6-.1.8,0,.2,0,.4,0,.5,0,.5-.1.5-.3.3,0,0-.1-.2-.2-.3-.2-.4-.2-.3-.2-4,0-1.8,0-3.7,0-4.1,0-.5,0-.8,0-.8,0,0-.1-.1-.2-.2-.2-.2-.7-.7-.9-.8,0,0-.1,0-.2-.1,0,0-.3-.2-.4-.4l-.3-.3v.3c0,.1,0,.4,0,.5,0,.2,0,.5,0,1.3v1l-.4.3c-.2.2-.4.4-.5.4,0,0-.2.2-.3.3l-.2.2v2c0,3.2-.1,3.9-.2,3.9s-.2-.2-.4-.4c-.3-.3-.4-.4-.4-.3,0,.3.1.8,0,.8s0-.2-.2-.5c0-.1,0-.3,0-.3h0c0,0-.2,0-.2,0-.1,0-.2.2-.2.2,0,0-.6.4-.7.5-.2.1-.2,0,0,.3.2.1.2.1.2,0,.2-.1.2,0,0,.2-.1.1-.1.1,0,.2.2.4.3.6.4.6,0,0,0,0,0,0,0,0,0,0,0,0,0,0,0,0,.1.2,0,0,0,.1,0,.1,0,0,.1.3,0,.5,0,.1,0,.4,0,.5,0,0,0,.2.1.3,0,.2.1.3.1.3,0,0,0,.3,0,.3s0,0,0-.1c0,0,0-.2-.1-.3,0-.1,0-.2,0-.2s0-.2-.1-.3c-.1-.3-.2-.3,0-.5,0-.2-.1-.5-.4-.7-.1,0-.3-.2-.3-.4,0-.3-.4-.8-.5-.8s-.2.5-.3,1.2c0,1.3-.2,1.7-.1.7,0-1,0-1.6.1-1.7.1-.3,0-.3-.2,0,0,.1-.2.3-.3.5,0,.1-.1.2-.1.2s0,.1-.2.2c-.2.3-.3.6-.4.8,0,.5-.7,1.2-1.2,1.5-.1,0-.1,0,0,0,.1,0,.2.1.3.4,0,.2.1.5.2.6.1.3.1.4.1.4,0,.1,0,0-.1-.1,0,0-.1-.2-.2-.4-.2-.4-.2-.4-.2-.5,0,0-.2-.2-.3-.3-.2,0-.4,0-.4,0s0,0,0,0,0,0,0,0,0,0,0,0c0,0-.4.2-.4.4,0,.2-.2.1,0-.1h0c0-.1,0-.1,0-.1-.2,0-.3.2-.4.6,0,.1-.1.2-.2.3-.2.2-.5.4-.7.6-.1,0-.2.2-.2.2s.6,0,1.5,0h1.8c.2-.2.4-.3.5-.3.5-.2.9-.4,1-.5,0,0,.1,0,.3-.2.2-.1.3-.2.5-.5.3-.4.4-.5.5-.5s.5.4.8.6c.1,0,.3.3.5.4.3.3.5.5.5.5,0,0,0,0-.2,0,0,0-.7-.5-1.1-.7-.1,0-.3-.2-.3-.2,0,0-.4.3-.4.3s-.2.3-.3.3c-.2,0-.4.2-.5.3-.3.2-.3.2-.6.3-.1,0-.2.1-.3.1,0,0-.1,0-.2,0-.3,0,0,0,1.7,0,1.5,0,1.9,0,1.9,0,.1,0,0,.1-.1.2-.4,0-.6.2-.5.3,0,0,.3,0,.7,0,.5,0,.7,0,.8,0,0,0,.1,0,.2,0,.1,0,0,0-.4.1-.2,0-.4,0-.5,0-.2,0-.2,0,0,0,0,0,.1,0,.2,0,0,0,.8.1,1.4.1,0,0,0,0,0,0,0,0-1,0-1.5,0-.3,0-.5,0-.8,0-.2,0-.5,0-.6,0-.1,0-.3,0-.3,0,0,0-.1,0-.1,0s0,0,0,0c0,0,0,0,.3,0,.2,0,.3,0,.4,0,.2,0,1.1.2,1.1,0s0,0,.3,0c.2,0,.2,0,0,.1h-.2s.2,0,.2,0c.1,0,.2,0,.3,0,0,0,.9,0,1.4,0,.4,0,.4,0,.8.1.5.2.8.2,2.3.3.2,0,.4,0,.5,0,0,0,0,0,0,0s0,0,0,0,0,0,0,0,0,0,0,0,0,0,0,0,0,0,0,0c0,0-.2,0-.2,0,0,0-.4,0-.6,0-.4,0-.5,0-.5,0,0,0-1.5.1-2.7.1-.4,0-.7,0-.7,0,0,0,.3,0,.7,0,.4,0,.9,0,1.1,0,.2,0,.8,0,1.3,0,.4,0,.8,0,.8,0,0,0-.2,0-1.4,0-.8,0-1.3,0-1.4,0,0,0,0,0,0,0,.1,0-.1,0-.4,0-.5,0-.3,0,.4,0,.3,0,.7,0,.8,0,.1,0,.5,0,.9,0,.3,0,.7,0,.8,0,0,0,.3,0,.4,0,.3,0,.7.2.4.2s0,0-.1.2c0,0,0,0,.2,0,.1,0,.3,0,.3,0,0,0,.2,0,.4,0,.2,0,.3,0,.3,0,0,0,0,0,.2,0,0,0,.3,0,.4,0,.6,0,.8,0,.8,0,0,0,0,0,0,0,0,0,0,0,0,0s0,0,0,0c0,0,0,0,.3,0h.3s-.3,0-.3,0c-.2,0-.4,0-.5,0-.1,0-.2,0-.2,0s0,0,0,0c.3,0,.7,0,1.2.1,1.2,0,1.4,0,1.3.1,0,0-.4,0-.8,0-.4,0-.6,0-.6,0,0,0,1.8,0,2.3,0,0,0,0,0,0,0s0-.1.1-.2c.2-.2.1-.3,0-.2,0,0,0,0,0,0s0,0-.1,0c-.2,0-.7,0-.7,0,0,0,.1,0,.6,0,.5,0,.8,0,.8,0s0,0-.2,0c-.3,0-1,0-1,0-.1-.1,3.4-.2,4,0,.2,0,.2,0,0,0-.5,0-1,0-1,0,0,0,.2,0,.5,0,.8,0,.9.1,0,.2-.6,0-.6,0-.4.2,0,0,.1.2.1.2,0,.1,0,.1.3.1.3,0,.7,0,.6,0,0,0,0,0,0,0,.6,0,2.3-.1,2.4,0,.1,0-.5,0-.9,0-.2,0-.4,0-.4,0,0,0,0,0-.2,0,0,0,.1,0,.4,0,.6,0,1.6,0,1.8,0,.1,0,.5,0,.7,0,0,0,.1,0,0,0,0,0,0,0,.2,0,.4,0,.4,0,.5,0,0,0,.2,0,.3,0,.1,0,.2,0,.2,0,0,0,0,0,0,0,0,0,0,0,0-.1,0,0,.2-.1.5-.2.1,0,.3,0,.4,0,0,0,.4,0,.8,0,.4,0,.6,0,.7,0,0,0,.4,0,.8,0,.4,0,.7,0,.8,0,.2,0,.1,0-.2,0s-.4,0-.3,0c.1,0-.4,0-1.6,0-1.5,0-1.8,0-.6-.1.4,0,1,0,1.3,0,.3,0,.9,0,1.2,0h.7s-1.2,0-1.2,0c-.7,0-1.3,0-1.4,0-.2,0-.2,0,0,0,0,0,0,0-.1,0-.1,0-.4,0-.7,0-.2,0-.6,0-.9,0-.3,0-.5,0-.4,0,0,0,0,0,0,0,0,0,0,0,0,0s.2,0,.5,0c1.3,0,1.9-.1,2.1-.2.4-.2.5-.2,1.1-.2.6,0,1,0,1.5,0h.2s-.2,0-.2,0c-.3,0-.3,0,0-.1.2,0,.3,0,.2,0,0,0,0,0,.2,0,.2,0,.4,0,1.2-.2,0,0,.2,0,.3,0,.1,0,.2,0,0,0,0,0,0,0,0,0s0,0,0,0c0,0-.2,0-.3,0-.2,0-.5,0-.7,0-.3,0-.5,0-.9,0-.5,0-1.6,0-1.5,0,0,0,.4,0,.8,0,.9,0,.9,0,.9-.2,0,0,0-.1.2,0,0,0,.1,0,.1,0,0,0-.5-.1-.7-.1-.2,0-.4,0-.4-.1s0,0,0,0c0,0,.1,0,.2,0,0,0,.3,0,.8,0,.7,0,.7,0,.7-.2s0,0,0,0c0,0,0,0-.1,0,0,0-.2,0-.3,0-.3,0-.3,0-.2-.1,0,0,.2,0,1.3,0h1.2s0-.2,0-.2c0-.1,0-.2,0-.3,0-.1,0-.2-.3-.3,0,0-.1,0-.2,0,0,0-.2-.1-.3-.3-.2-.3-.4-.4-.4-.4,0,0-.2.2-.3.2s0,0,0,0c0,0,0,0-.1.1-.2.1-.8.5-.8.5,0,0-.3.2-.4.2,0,0,.2-.2.5-.5.1-.1.3-.3.4-.3,0,0,.2-.2.3-.3,0,0,.2-.2.3-.3,0,0,.2-.1.2-.1,0,0,.5.6.6.7,0,0,.1.2.3.2.1,0,.4.2.6.3.2.1.4.3.5.3,0,0,0,0,.1,0,0,0,0,0,0,0,0,0,0,0,.2,0,0,0,.1,0,.1,0s.2,0,.3.2l.3.2h1.5c1.5,0,1.6,0,1.5-.1,0,0-.2-.1-.3-.2-.1-.1-.3-.2-.3-.3-.2-.2-.3-.3-.3-.4,0-.3-.2-.5-.4-.6-.1,0-.2,0,0,0,0,0,0,.2,0,.2,0,0,0,0-.1-.1-.1-.2-.3-.4-.5-.4s0,0,0,0c0-.2-.6,0-.7.3-.1.2-.3.6-.4.8,0,.2-.2.3-.2.2s0-.3.1-.4c0,0,0-.2.1-.3,0-.2.1-.3.1-.3,0,0,0,0,0-.2,0-.1.2-.3.3-.3,0,0,0,0,0,0-.6-.1-1.2-.9-1.4-1.7,0-.1-.3-.6-.6-1,0,0,0,0-.3-.5-.2-.3-.3-.4-.3-.3s0,0,0,0c.1.1.2,2.4.1,2.2,0,0,0-.7-.1-1.5,0-.3,0-.6-.2-.7,0,0-.3.1-.4.3,0,0,0,0,0,0s0,0,0,.1c0,0,0,.1,0,.1,0,0,0,0,0,.1,0,.1-.2.3-.2.3-.3.1-.5.5-.4.6,0,.1,0,.3-.1.6,0,.2-.2.3-.2.3s0,0,0,.1c0,0,0,.2-.1.3-.1.2-.2.3-.1.1,0-.1.2-.7.3-.8,0-.2.1-.4,0-.5-.1-.2,0-.7.3-.9.2,0,.2-.2.4-.5v-.3c.1,0,0-.1,0-.1,0,0-.1-.1,0-.2,0,0,.1,0,.2,0,0,0,.2,0,.3-.1h.1c0-.1,0-.2,0-.2,0,0,0,0-.1,0s-.1,0-.2-.2c-.1,0-.2-.2-.3-.2,0,0-.2-.1-.3-.2-.1-.1-.3-.2-.3-.2,0,0,0,.3-.1.6,0,0,0,.2,0,.2,0,0,0,0,0,.1s0,0,0,0c0,0,0-.6,0-.9,0,0-.2.1-.4.4-.2.2-.4.4-.5.4,0,0,0-.6,0-1.6,0-2.2,0-4.4-.1-4.4,0,0-.4-.3-1-.9l-.3-.3v-1c0-.9,0-1.5.2-2,0-.1,0,0-.4.3-.2.2-.5.5-.6.6-.1,0-.2.2-.2.2,0,0-.2.2-.4.4l-.4.3v.5c0,.3,0,1.3,0,2.4,0,1,0,2.5,0,3.3,0,1.6,0,2.2,0,2.5,0,.1-.3.6-.3.6,0,0-.2-.6-.4-1.9,0-.2,0-.4,0-.5,0-.1,0-.3,0-.5,0-.2,0-.3,0-.4-.1-.3-.2-.7-.3-1.2,0-.2,0-.2-.1-.3-.1-.1-.2-.3-.2-1,0-.5,0-.5-.2-.4-.3.2-.3.3-.3.5,0,.1,0,1.3,0,1.4,0,0,0,0,0-.7v-.7s-.1,0-.1,0c-.2,0-.5.2-.6.4,0,0,0,0,0,.1,0,0-.1,0-.1.1,0,0-.4.3-.4.3,0,0,0,0,.1-.2.2-.1.2-.2,0,0-.2,0-.2,0,0,0,0,0,.2-.1.2-.2,0,0,.1,0,.1,0s0,0,0,0c0,0,.2-.1.3-.2,0,0,.2-.1.2-.1,0,0,.3-.2.4-.4.2-.2.4-.3.4-.4h.1c0,0,0-.5,0-.5v-.4s0,.3,0,.3c-.3.7-.3.8-.4.2,0-1.3,0-7,0-7.1,0,0,0-.2,0-.3,0-.1,0-.4.1-.6,0-.4,0-.4,0-.3,0,.1-1,1-1.6,1.6l-.4.4v2.4s0,2.4,0,2.4v.2c0,0-.2.2-.2.2v3.5c0,1.9,0,3.7,0,3.8,0,.2,0,.3,0,.3,0,0,.4-.5.5-.7.1-.2.2,0,.6.5,0,.1.1.3.2.3,0,0,.2.2.2.3s0,0,0,0c0,0,0,0,.1.1,0,0,.1.1.1.2,0,0,0,0,0,.1,0,0-.2,0-.5-.4-.2-.3-.3-.3-.4-.5-.2-.5-.3-.5-.3-.4,0,.1-.2.4-.4.6l-.2.2v.3c0,.4,0,.7,0,1,0,.2,0,.4,0,.9,0,.7,0,1,0,.8,0,0,0-.1,0-.1,0,0,0,0,0,0,0,0,0-.4,0-1.3,0-.4,0-.7,0-.8,0-.1,0-.2,0-.3,0-.1-.1-.2-.1,0s0,0,0,0c-.1,0-.1,0,0-.2l.2-.2v-.6c0-.3,0-.8,0-1.1,0-.3,0-.6,0-.8,0-.4,0-1.6,0-1.7,0,0,0-.4,0-2.1,0-1.1,0-3,0-4.2v-2.2s0,0,0,0c0,0-.2-.1-.4-.3-.2-.1-.4-.3-.5-.4,0,0-.2-.1-.2-.2,0,0,0,0-.2-.1,0,0-.1,0-.1-.1,0,0-.5-.4-.7-.5-.1,0-.2-.1-.2-.2,0,0-.2-.2-.4-.3-.2-.2-.4-.3-.4-.3,0,0,0,0-.1,0h0v-3.3c0-2.2,0-3.2,0-3.2s0,0,.1.1h.1c0,.1,0,.9,0,.9,0,.4,0,.8,0,.9,0,0,0,.2,0,.2,0,.2,0,3.4,0,3.5,0,0,0,.2,0,.4v.2s.4.3.4.3c.2.2.5.3.5.4,0,0,.1,0,.3.2.2.1,1,.7,1.2.9,0,0,.1,0,.2.1h.2c0,.1,0-1,0-1,0-.6,0-1.1,0-1.2,0-.1,0-.1,0,0,0,0,0,.2,0,.2,0,0,0,.5,0,.9,0,.2,0,.3,0,.3,0,0-.1-.3-.1-.4,0,0,0,0,0,0,0,0,0,.1,0,.2,0,.3-.2.6-.3.5,0,0,0-1,0-2.1v-2.1s-.1.3-.1.3c0,.1-.2.3-.2.3,0,0,0,0,0,.9,0,.5,0,.9,0,.9h0c0,0,0,0,0,0,0,0,0-.3,0-.5,0-.5,0-.9,0-.9,0,0-.2.1-.3.3-.2.2-.3.3-.4.3,0,0,0-.3,0-2.8,0-2.9,0-4,0-4.2h0c0-.1,0,0,0,0,0,0,0,.2,0,.2,0,0,0,0,0,0,0,0,0,0,0,.1,0,.3-.1.4-.2.3,0,0,0,0-.1,0,0,0-.2-.2-.2-.4,0,0,0-.3,0-.4,0-.1,0-.3-.1-.5,0-.1,0-.4-.1-.5,0-.1,0-.2,0-.3,0-.1,0,.2-.1.5,0,.1,0,.3,0,.3,0,0,0,.2,0,.4,0,.3-.1.4-.2.4,0,0,0-.5.1-1,.1-.9.2-1.2.1-1.6,0-.3-.1-.7-.2-.9-.2-1-.2-1-.2-.8M41.8,25.1c0,1,.1,2,.1,7.5,0,3.1,0,5.7,0,5.7,0,0,0,0,0,0,0,0,0,0,0,.1,0,0,0,.2,0,.3,0,.2-.1.4-.1.6,0,.2,0,.2,0,0,0,0,0-.2,0-.4,0-.4,0-1.8,0-8.7,0-4.5,0-5.3.1-5.5,0-.2.1,0,.2.4M47.5,30.8c0,.5,0,1.3,0,1.7v.9s.1-.1.1-.1h.1c0-.1,0-.4,0-.4,0-.2,0-.4,0-.4,0-.2-.1-1.2-.1-1.7,0-.2,0-.5,0-.5s0-.1,0-.2c0,0,0,.3,0,.8M35.8,30.5c0,.2,0,.6,0,1-.1,1.8-.1,1.8,0,1.9.2.2.2.3.2-1.5,0-.9,0-1.7,0-1.7s0,.2,0,.4M39.5,31.2c.1.1.1.2.1,1.1,0,.7,0,.7,0,.7,0,0,0,0,0,0s0-.1,0-.2c0-.1,0-.2-.1-.8,0-.8,0-.8.1-.6M44,31.8c0,.4,0,.7,0,.8,0,0,0,.1,0,.2-.1.3-.1.2-.1-.7v-.8s.1-.1.1-.1c.2-.2.2-.2.2.5M47.2,32.9s-.2.3-.4.5c-.5.6-.5.5-.5.8s0,.4.8-.4l.2-.2v-.4c0-.4,0-.5,0-.3M36.1,33.3v.4s.2.2.2.2c0,0,.3.3.5.4l.3.3v-.3s0-.3,0-.3v-.2c-.2,0-.4-.3-.6-.4-.1-.2-.3-.3-.3-.4,0,0,0,0,0,.3M40.8,35.4c0,1,0,1.8,0,1.8,0,0,0,0-.3-.2-.2-.2-1-1-1.4-1.3-.1-.1-.2-.2-.3-.2-.4.3-.4.5-.1.8.1,0,.3.3.4.4.1.1.3.3.4.4,0,0,.2.2.2.2,0,0,.2.2.3.3.1.1.3.3.4.3,0,0,.1,0,.1,0,0,0,.1.3,0,.6,0,.2-.1,1-.1,1.6,0,.2,0,.3,0,.3,0,0,0-.4-.1-1.5,0-.5,0-.9,0-.9,0,0,0,0-.1,0s-.2-.2-.4-.3c-.1-.1-.4-.3-.5-.4-.6-.5-.5-.5-.7-.3h-.2c0,.1,0,2.3,0,2.3v2.2s-.1.2-.1.2c0,.2,0,.2-.1.8,0,.3,0,.6,0,.7,0,0-.1-.1-.1-3.7v-3.7s.1,0,.1,0c0,0,.2-.1.2-.1,0,0,.1,0,.2-.1.2-.2.3-.2.8-.6.3-.2.5-.4.6-.4,0,0,0,0,0,0,0,0,.6-.4.6-.4,0,0,0,0,0,0,0,0,0,0,0,1.7M43,34c.2.2.6.4.8.6.2.1.4.3.4.3,0,0,.2.2.4.3.2.2.4.3.4.3,0,0,0,.8,0,3.8s0,3.9-.1,3.7c0,0,0,0,0-.1,0,0,0-.1,0-.2,0,0,0-.1,0-.1-.1-.2-.1-.3-.1-3v-2.6h-.2c-.2-.3-.2-.3-.5,0-.1.1-.4.3-.6.5-.7.6-.7.6-.7.8,0,0,0,.5,0,.9,0,.4,0,.7,0,.8,0,0,0,0,0-.4s0-.4,0-.4c0,0,0-.3,0-.6v-.5s.1-.1.1-.1c0,0,.2-.1.2-.2,0,0,.2-.2.4-.3.2-.1.3-.3.3-.3,0,0,.2-.1.7-.6l.3-.3v-.2c0-.2,0-.2-.2-.3h-.2c0-.1-.2,0-.2,0-.1.1-.4.4-.6.6-.2.2-.5.5-.7.6-.2.2-.3.3-.3.3s0-.4,0-1.8,0-1.8,0-1.8.2.1.5.3M51.5,34.5c0,.2,0,.9,0,1.4,0,.6,0,1.1,0,1.2v.2s.1,0,.1,0h.1c0,0,0-.8,0-.8,0-1.2-.1-2.5-.1-2M39.9,34.7c-.3.2-.5.4-.6.5h0c0,0,.6.6.6.6l.6.5v-.5c0-.3,0-.7,0-1v-.5s-.5.4-.5.4M42.9,35.3v1l.2-.2c0,0,.2-.2.2-.2,0,0,.2-.2.4-.4.4-.4.4-.3.1-.5,0,0-.1,0-.1-.1,0,0-.2-.1-.4-.3-.2-.1-.3-.3-.4-.3,0,0,0,.2,0,1M31.7,35c0,.4,0,.8,0,1,0,.2,0,.6,0,.8v.4s.1.1.1.1c.1.1.1.3,0-1.4,0-1.7,0-2.1-.1-1M35.7,34.8c.2.1.3,1.2.1,1.9,0,.1,0,.5,0,.9,0,.5,0,.9-.1,1.3,0,.3,0,0,0-.3,0-.2,0-.5,0-.6,0-.7,0-2.8,0-2.9,0-.2,0-.2.1-.2M47.8,34.9c0,.2,0,1.6,0,2.3,0,.7,0,.7,0,1.2,0,.4,0,.5,0,.5,0,0,0-.4-.1-1.3,0-.4,0-.9,0-1,0-.3,0-1.4,0-1.6.1-.3.2-.3.2-.3s0,0,0,.2M36.5,36.4c0,0,0,5.5,0,5.6,0,0,0-.1-.2-.3v-.3c-.1,0-.1-2.3-.1-2.3v-2.4c.1,0,.2-.2.2-.3,0,0,0-.1.1,0M46.9,36.5s0,0,0,0c.2,0,.2.3.2,2.7v2.2s-.2.2-.2.2c-.2.4-.2.4-.2-.2,0-.3,0-1.6,0-2.8,0-2.2,0-2.3,0-2.3,0,0,0,0,0,0M51.2,37.1c0,.2,0,.5,0,.5h0c0,.1,0,0,0,0,0,0,0,0,0-.5v-.5s0,.4,0,.4M32.1,37.6c0,0,0,.1,0,.1,0,0,0,0,0-.1,0-.2,0-.2,0,0M50.6,38.1c0,.1,0,.2,0,.1,0,0,0,0,0-.1,0-.2,0-.2,0,0M31.8,38.4c.3.3.3.2.1.4h0c0,.1,0,1.8,0,1.8,0,1.3,0,1.7,0,1.8,0,.2,0,.5-.1,1.2,0,.9,0,.9-.1,0,0-1.1,0-5.2,0-5.3,0,0,0,0,.3.2M51.9,41c0,1.6,0,2.9,0,3,0,.4,0,.1-.1-.7,0-.7,0-.9,0-1,0-.1-.1-1.2-.1-2.7,0-.6,0-.7,0-.8,0,0,0-.2,0-.2,0,0,.4-.5.5-.5,0,0,0,1.2,0,2.9M32.2,38.7c.2.2.3.4.2,1.3,0,.2,0,.6,0,1,0,1.1-.1.8-.2-.8,0-1.6,0-1.6,0-1.5M51.2,38.8c0,.1,0,2.9-.1,2.9,0,0-.2-2.6-.1-2.7,0-.2.2-.3.3-.2M42.1,41.6c.1,0,.2,0,.3.1,0,0,.1,0,.1,0,0,0,0,0,0,0s0,0,0,0c0,0,.6.4.8.5.4.4.8.9,1,1.4.3.6.3.1.3,4.9v4.2h-.2c-1.1,0-5.9,0-5.9,0,0,0,0-8.5,0-8.5,0,0,0,0,0,0,0,0,.3-.7.5-1,.5-.7,1.3-1.3,2-1.6.5-.1.5-.1.9,0M35.8,43.5s0,0,0,0c0,0,0,0,0,0,0,0,0,0,0,0,0,0,0,0,0,0M47.6,43.5s0,0,0,0c0,0,0,0,0-.1,0,0,0,0,0,0M51.1,47.4c0,.1.1.3.2.4,0,.2,0,.2.2.3.5.2.7.8.4,1.2h0c0,0,0-.2,0-.2,0-.3,0-.5-.3-.7-.2-.1-.2-.1-.2,0s0,.2,0,.2c0,.2,0,.3-.1.7,0,.5,0,.7-.1.7,0,0,0-1.1,0-1.2,0,0,0-.8,0-.9,0,0,0-.1,0-.2,0-.1,0-.1-.1,0,0,0,0,.1,0,.2,0,0,0,.1,0,.2s0,0,0,0c0,0,0,0,0,.1,0,0,0,.2-.2.3,0,0-.2.2-.2.2,0,0,0,0,0,0s0,0,0,.1c0,0,0,.1,0,.1s0,0,0,0c0,.1-.2.3-.4.4-.1,0-.2,0-.2.1,0,0,0,0-.1,0,0,0-.4.4-.6.7-.2.2-.6.4-.7.4,0,0,.2-.2.3-.2,0,0,0,0,.1-.1.4-.5.8-.9,1.1-1.1.2-.2.2-.2.4-.5.2-.4.2-.5.3-.5,0,0,0,0,0,0s0-.1.1-.2c0-.1.1-.3.2-.4.2-.6.2-.6.4-.3M32.5,47.3c0,0,0,.2,0,.2,0,0,0,.1,0,.2,0,0,0,.2.4.7,0,.1.2.4.3.5.1.2.3.5.4.5s.3.2.4.3c.3.3.8.8.8.8s0,0,0,0,0,0,.1,0c.2,0,.1.1,0,0-.2,0-.4-.1-.5-.3-.3-.4-.6-.8-.7-.8,0,0,0,0,0,0s0,0-.1,0c0,0-.1,0-.1,0s0,0,0,0c-.1,0-.2-.2-.4-.5,0-.2-.2-.4-.3-.5,0,0-.1-.2-.2-.2,0-.1-.1-.5-.2-.6,0,0,0,0,0-.1,0,0-.1.1-.1.3,0,0,0,.2,0,.2,0,0,0,.4,0,.6,0,.2,0,1.3,0,1.3s0-.2,0-.6c0-.3,0-.5,0-.7,0-.1,0-.3,0-.3h0c0-.1-.1,0-.1,0-.3.1-.5.5-.4.8v.2s0,0,0,0c-.3-.3,0-1,.5-1.1.1,0,.2-.1.2-.3,0,0,0-.1,0-.1s0,0,0,0c0,0,0,0,0-.1,0,0,0,0,0-.1,0-.2.1-.2.2,0M53,50.3c0,.1-.2.3-.2.4,0,0-.1.3-.2.4,0,.1-.2.3-.2.4,0,.3-.3.6-.5.6,0,0-.2,0-.4.1-.1,0-.3.1-.4.2-.1,0-.3.2-.4.3,0,0,0,0-.1.1h0c0,0,.3,0,.3,0,1,0,3.2,0,3.3.1.2,0,.1,0-.5,0-2.2,0-5.5,0-5.4.1.2,0-.3,0-1.5,0-1.3,0-1.9,0-1.8,0,0,0,0,0-.2,0,0,0-.1,0-.2,0,0,0,0,0-.1,0-.1,0-.6,0-.6,0s0,0,.3,0c.4,0,.7,0,.9.2.2.1.7.2,1.2.2s1.5,0,1.4.1c0,0-.6,0-1.3,0-.7,0-1.2,0-1.2,0,0,0,.6,0,1.3,0,.7,0,1.3,0,1.3,0s-.4,0-.8,0c-1.2,0-1.7,0-1.6,0,0,0,0,0,0,0,0,0,0,0,0,0s0,0,0,0,0,0-.1,0c0,0-.9.1-2,.2-.1,0-.2,0-.2,0s0,0,0,0c0,0-.2.1-.1.1,0,0,1.2,0,2.6,0,1.4,0,2.6,0,2.6,0,0,0,0,.1-2.1.1-1.4,0-2.1,0-2.3,0-.6,0-.3.1,2.9,0,.5,0,1.2,0,1.2,0s0,0,.2,0c.2,0,.3,0,.3,0,0,0-.5,0-1,0-1.7,0-2.2,0-2.9,0-.1,0,.1,0,.7,0,1.4,0,1.7,0,1.6.1,0,0,0,0-.2,0-.4,0,.7,0,1.3,0,.4,0,.7,0,.8,0h.1s0,0,0,0c0,0-.1,0-.1,0-.2,0,0,0,.3,0,.4,0,.4,0,.4,0,0,0-.1,0-.7,0-.4,0-1,0-1.3,0h-.6s.8,0,.8,0c.5,0,1,0,1.3,0,.4,0,.6,0,.5,0,0,0-1.8.1-2.9,0-.7,0-2.1,0-5.1,0-5.5,0-5.6,0-5.8,0-.3,0,0,0,.9-.1h.8s-1.2,0-1.2,0c-.7,0-1.2,0-1.2,0,0,0,0,0,.4-.1.3,0,.5,0,.3,0,0,0-.1,0-.2,0,0,0,0,0,.9,0,.6,0,1.3,0,1,0,0,0,0,0,.1-.1.2,0,.6,0,1.6,0,.5,0,.7,0,.6,0-.4,0-1.2,0-2.4,0-1.2,0-1.3,0-1.3,0s.2,0,.4,0c0,0,0,0,0,0,0,0,.8,0,2.1,0,1.3,0,2.1,0,2.1,0,.1,0-.8-.1-3-.1-1.4,0-1.7,0-1.7,0s.3,0,2.6,0c1.4,0,2.5,0,2.5,0,0,0,0-.1,0-.1s0,0,0,0c0,0-.2,0-.3,0,0,0,0,0-.1,0,0,0-.4,0-.8,0s-.8,0-.8,0c0,0,0,0-.1,0,0,0,0,0,0,0s0,0,0,0c0,0,0,0,0,0,0-.1-.3-.2-1.9-.2-1.3,0-1.3,0,0,0,1.8,0,2,0,.6,0-.7,0-1.2,0-1.3,0,0,0-.1,0-.1,0-.2,0,.3,0,1,0,1,0,1.4,0,1.6-.2.3-.2.7-.3,1.1-.2.1,0,.3,0,.4,0,.2,0-.3,0-.7,0-.1,0-.2,0-.3,0,0,0,0,0-.1,0s-.1,0-.1,0c0,0-.4,0-1.7,0-1.2,0-1.7,0-1.7,0,0,0-1.9-.1-4.2-.1-1.2,0-1.9,0-1.9,0,0,0,.6,0,2.5-.1h1.3s0,0,0,0c0,0-.2-.1-.2-.2-.2-.1-.3-.2-.5-.3,0,0-.2,0-.3-.1s-.2,0-.3,0c-.1,0-.4-.3-.5-.6,0-.2-.2-.5-.3-.6,0,0-.4-.8-.4-.8,0,0,0,0,.2,0,0,0,.1,0,.1,0,0,0,0,0,.1.2,0,.1.2.3.3.4.2.2.3.4.3.5s.2.3.6.5c.2,0,.3.2.4.2.2,0,.5.4.8.6l.2.2h2.6c2.1,0,2.6,0,2.7,0,.1,0,5.9,0,6.2,0,.1,0,.7,0,2.7,0,1.4,0,2.6,0,2.6,0,0,0,.5-.4.7-.6,0,0,.3-.2.5-.3.6-.3.7-.4.8-.6,0-.2,0-.2.3-.4.1-.1.3-.3.3-.3.1-.2.5-.6.5-.5,0,0,0,.1-.1.2M56.8,52.8c0,.1,0,.2,0,.2,0,0,.2,0,.5,0,.5,0,.7,0,.4,0,0,0-.3,0-.4-.2-.2,0-.3-.2-.3-.2s0,0,0,.2M35.4,53.5s-.2,0-.3,0c-.3,0-.5,0-.4,0,0,0,.8,0,.8,0M48.6,53.5c0,0,0,0,0,0-.1,0-.7,0-.7,0,0,0,.6-.1.7,0M29.3,53.7s0,0,0,0c0,0,0,.2,0,.2,0,0,.1,0,.1,0,0,0,.2,0,.5-.1.1,0,0,0-.2,0-.2,0-.3,0-.3,0M53.5,53.7c0,0,.2,0,.4,0,.2,0,.3,0,.3,0,0,0,0,0-.4,0-.2,0-.3,0-.2,0M41.3,53.9c.1,0,.3,0,.4,0,.1,0,0,0-.2,0s-.3,0-.2,0M40.2,53.9c0,0,.2,0,.3,0,0,0,0,0-.2,0s-.2,0-.2,0M42.9,53.9c0,0,.2,0,.2,0,0,0,0,0-.1,0-.1,0-.2,0-.1,0M39.6,54c-.2,0-.3,0-.1.1,0,0,.1,0,.1,0,0,0,0,0,.2,0,0,0,.1,0,0,0,0,0,0,0,0,0,0,0,0,0,0,0,0,0,0,0,0,0,0,0,0,0-.3,0M43.4,54c0,0,0,.1,0,.2h0c0,0,.2,0,.2,0,.1,0,.2,0,.2,0,0,0,0,0,.1,0h.1s0,0,0,0c0,0-.2,0-.3,0-.1,0-.2,0-.2,0M45.1,54.4s0,0,0,0,0,0,0,0,0,0,0,0,0,0,0,0M40.6,54.5s.5,0,1.1,0c.5,0,.9,0,.9,0-.2,0-2,0-1.9,0M44.9,54.4s.1,0,.2,0c0,0,0,0,0,0s-.1,0,0,0M32.2,54.6s0,0-.3,0c-.1,0-.1,0,0,0,.1,0,.2,0,.2,0M37.3,54.6c0,0-.1,0-1.2,0-.8,0-1.1,0-1,0,.2,0,2.2-.1,2.2,0M48,54.7h.4s-.7,0-.7,0c-.4,0-1,0-1.2,0-.5,0-.6,0-.5,0,0,0,1.3,0,2.1,0M51.5,54.6s-.3,0-.4,0c0,0,.1,0,.3,0,0,0,.1,0,0,0M34.5,55s0,0,0,0,0,0,0,0,0,0,0,0,0,0,0,0M36.7,55.6s0,0,0,0,0,0,0,0c0,0,0,0,0,0s0,0,0,0M37,55.7s0,0,0,0c0,0,.1,0,.1,0,0,0-.1,0-.2,0M37.2,55.6s.1,0,.1,0c0,0,0,0,0,0,0,0,0,0,0,0M52.8,56s.1,0,.2,0c0,0,0,0,0,0s-.1,0,0,0M34.7,56.1s0,0,0,0,0,0,0,0c0,0,0,0,0,0s0,0,0,0M35.1,56.1s0,0-.2,0-.2,0-.2,0,0,0,.2,0,.2,0,.2,0M35.3,56.3s0,0,0,0c.1,0,.2,0,.2,0,0,0-.7,0-.9,0,0,0,0,0,.3,0,.2,0,.3,0,.3,0,0,0,0,0,0,0M48.6,56.4c0,0,0,0-.4,0-.5,0-.6,0-.4,0,.2,0,.9,0,.8,0M40.8,56.5s0,0,.1,0c0,0,0,0,0,0,0,0,0,0-.1,0M36.1,56.6c.1,0,0,0-.6,0-.5,0-.7,0-.6,0,0,0,1.1,0,1.2,0M38.9,56.6c0,0,0,0-.7,0s-.8,0-.7-.1c0,0,1.4,0,1.5,0M45.9,56.6s0,0,0,0c0,0-1.5,0-1.5,0,0,0,.1,0,.3,0,.1,0,.3,0,.3,0,0,0,1,0,1,0M48.4,56.6c0,0,0,.1-.6,0-.6,0-.7,0-.6,0,.1,0,1.2,0,1.2,0M41.2,56.9s0,0,0,0c.1,0,.1,0,0,0,0,0,0,0-.1,0M40.9,56.9c0,0,0,0,0,0,0,0,0,0,0,0,0,0,0,0,0,0,0,0,0,0,0,0,0,0,0,0-.2,0M41.9,57s0,0,0,0c0,0,0,0,0,0,0,0,0,0,.2,0,.1,0,.2,0,.2,0s0,0,0,0,0,0-.1,0c0,0-.1,0-.2,0M41.4,57c0,0-.1,0-.1,0,0,0,.1.1.2,0,0,0,0,0,0,0,0,0,0,0,0,0,0,0,0,0,0,0,0,0,0,0-.1,0M46.6,57s-.3,0-.6,0c-.3,0-.3,0-.1,0,.3,0,.7,0,.7,0M40.6,57.1s0,0,0,0c0,0,0,0,0,0,0,0,0,0,0,0,0,0,0,0,0,0,0,0-.1,0-.2,0M41,57.1s0,0,0,.1c0,.2,0,.2,0,.1,0,0,0,0-.1,0,0,0,0,0,0,0s0,0,0,0c0,.1,0,.1.1,0,0,0,0,0,0,0,0,0,0,0,0,0,0,0,0,0,.1,0,0,0,0,0,0-.1,0-.1,0-.1,0-.2,0,0,0,0,0,0,0,0-.1,0-.2,0M42.3,57.1s0,0,0,0,0,0,0,0c0,0,0,0,0,0,0,0,0,0,0,0s0,0,0,0c0,0,.1,0,0,.1,0,0,0,.2,0,.2s0,0,0,0c0,0,0,0,0,0s0,0,0,0c0,0,0,0,0,0,0,0,0-.3,0-.3,0,0,0,0,0,0,0,0,0,0,0,0s0,0,0,0c0,0,0,0,0-.1,0,0,0,0,0,0M40.5,57.3c0,0,0,.1,0,.1s0-.1,0-.1c0,0,0,0,0,0M40.1,57.3s-.4,0-.9,0c-1.1,0-1.5.1-1.5.3,0,0,0,0,0,0,0,0,0,0,0,0,0,0,0,0,.1,0,0,0,0,0,0,0,0,0,1,0,1,0s-.1,0-.4,0c-.5,0-.5,0-.5.1,0,0,.2,0,.5.1,0,0,.3,0,.5,0,.2,0,.5,0,.7,0,.3,0,.3,0,.4.2,0,.2.5.7.7.8,0,0,.2,0,.2,0,0,0,.1,0,.2,0,0,0,.2,0,.2,0,0,0,0,0,0-.2v-.2h-.1c-.3,0-.9-.4-1-.7,0,0,0,0,0,0,0,0,0,0,0,0,0,0,0,0,0,0s0,0,0,0,0,0,0,0c-.1,0-.1,0,0-.2,0-.2,0-.3,0-.2,0,0,0,0,0,0,0,0,0,0,0,0M42.9,57.4c0,0,0,0,0,0,0,0,0,0,0-.1,0,0,0,0,0,0M43,57.3c0,0,.2.3.2.3.2,0,.2.2,0,.3h-.2s0,.2,0,.2c0,0,0,.2,0,.2,0,0-.1.1-.1,0s0,0,0,0c0,0,0,0,0,0,0,0,0,0,0,0,0,0,0,0,0,.1,0,.1-.5.5-.8.5h-.1v.2c0,.1,0,.2,0,.2,0,0,.1,0,.2,0,.4,0,.9-.4,1.1-.8.1-.3,0-.2.8-.3.3,0,.6,0,.6,0,0,0,.1,0,.2,0,.3,0,.5,0,.5-.1,0,0,0,0,0,0,0,0,0,0,0,0,0,0-.2,0-.4,0-.4,0-.7,0-.4,0,0,0,.4,0,.6,0,.5,0,.5,0,.4,0-.1-.1-.7-.2-1.8-.2-.3,0-.5,0-.5,0,0,0,0,0,0,0M41.3,57.4s0,.1.2.2c0,0,.1,0,0-.1,0,0-.2,0-.2,0M41.9,57.4s0,.1,0,.1,0,0,0,.1c0,0,0,0,0,0,0,0,0,0,0,0,0,0,.1,0,0,.1-.1,0-.1.1-.1.3v.2s.1,0,.1,0c.2,0,.4-.2.3-.3,0,0,0,0,0,0,0,0,0,0,0,0,0,0,0,0,0-.3,0-.1,0-.2,0-.2s0,0,0-.1c0,0,0-.1,0-.1,0,0,0,0,0,0,0,0,0,0,0,0s0,0,0,0M40.1,57.7c0,.1-.3.2-.3,0s0,0,0,0,0,0,.1,0c.1-.1.1,0,0,.1M41.3,57.6c0,0,0,.1,0,.1,0,0,0,0,0,.1,0,.2.1.4.4.4h.2s0-.3,0-.3c0-.2,0-.3,0-.3,0,0,0,0,0,0,0,0,0,.1-.1,0,0,0-.1,0-.1-.2,0-.1,0-.1,0,0M40.9,57.8s0,0-.2,0c-.1,0-.1,0-.1.1s0,.1,0,0c0,0,0,0,0,0,0,0,.1.3.2.4,0,0,0,0,.1,0,0,0,.3.1.4.2h.2s0-.2,0-.2c0-.2,0-.2,0-.2-.2,0-.5-.2-.5-.4s0,0,0,0c0,0,0,0,0-.1,0,0,0,0,0,0M42.4,57.9c0,.1,0,.3-.2.4,0,0-.1,0-.1,0,0,0,0,0,0,0,0,0,0,0-.2,0h-.1v.4h.1c.4,0,.7-.4.8-.8h0c0-.1-.2-.1-.2-.1-.2,0-.2,0-.2,0"/>
</svg>