<?xml version="1.0" encoding="UTF-8"?>
<svg xmlns="http://www.w3.org/2000/svg" version="1.1" viewBox="0 0 82.7 82.7">
  <defs>
    <style>
      .cls-1 {
        fill: #000;
        stroke-width: 0px;
      }
    </style>
  </defs>
  <path id="part11" class="cls-1" d="M31.5,32.7c5.3-6.2,15.4-5.7,19.9,1.2,0-.3-.1-.5-.1-.7.1,0,.2,0,.3.1.3.4.5.8.5,1.3,0,.1,0,.3,0,.4,8.1,15.1-11.7,26.8-21.2,12.8,0-.1-.1-.2-.3-.2-.1,0-.2-.1-.3-.2-.3-.4-.5-.9-.7-1.4-.3-1.2-.7-2.5-.9-3.8-.4-3,.3-5.8,2-8.3.3-.4.6-.9.7-1.4,0-.1.2-.4.3-.2.2.1-.2.3-.1.5h0ZM41.6,33.8c-3.8,0-7,3.1-7,6.8,0,3.9,3.1,7.1,7,7.2,3.8,0,7-3.1,7-6.9,0-3.9-3.1-7-7-7.1h0ZM40.7,31c4.1-.2,7.3,1.4,9.7,4.7,0,0,0-.1,0-.2-1-1.7-2.4-3.4-4.4-4.1-.6-.1-1-.7-1.5-.9-3.2-1.2-6.9-.5-9.6,1.7-4.8,3.4-5.2,10.2-2.1,14.8-.7-2.5-1.7-5-1.2-7.7.7-4.1,3.1-6.7,7.1-7.9.9-.2,1.6-.7,2.6-.6-.2.1-.4.1-.5.3h0ZM49.7,47.4c-3.8,4.4-10,4.9-14.6,1.4,0,.1,0,.2.1.3.8,1,2.1,1.3,3,2.1-.4.3-.7-.1-1,0,.7.9,2.2.6,3.1,1.2,8.4,1.3,14.6-7.1,11.1-14.8,0,.1,0,.2,0,.3.7,1.9,1,3.8.6,5.7-.2.8-.6,3.2-1.7,3-.4,0-.5.2-.4.6.1.3,0,.6-.4.7,0-.1,0-.2,0-.3h0ZM43.6,29.7c1.6.4,3,1.2,4.4,2.1-1.2-1.3-2.7-1.9-4.4-2.1ZM45.6,47.8c.7-.4,1.4-.9,1.9-1.6-.6.5-1.2,1.1-1.9,1.6ZM35.4,50.4c-.2-.4-.5-.6-.9-.8.2.3.5.5.9.8Z"/>
  <path id="part10" class="cls-1" d="M27.4,51.3c-.9-1.6-2-3.1-2.6-5-.9-2.6-1-5.3-.5-7.9,0-.3.2-1-.4-.8-.1,0-.2.2-.3,0-.1-.1,0-.2,0-.3.9-4.1,3.6-7.5,6.8-10.1.2-.1.3-.2.6-.1.2,0,.4,0,.5,0,.2-.2.5-.3.5-.6,0,0-.2,0-.2,0,.2-.3.6-.4.8-.6.4-.2.4-.2.5.2.1,0,.2,0,.3-.2.7-.7,1.5-1,2.4-1.3,1.4-.5,2.8-.8,4.3-.9.3,0,.7-.1.9.2,0,.1.3,0,.4,0,.5,0,1-.4,1.5-.2-.2.3-.6.3-.7.5.3.2.9.2,1.2,0,.4-.3.8-.3,1.2-.1.6.3-.2.7-.6.7-7.2,0-14.2,3.6-17,10.5-2.5,5.8,0,12.8,4.6,16.8,10.9,9.2,28.2-1.5,22.6-15.3v.4c-.3-.6-.2-1.1-.6-1.7-.8-1.5-1.8-2.8-3.2-3.9-.1,0-.3-.2-.4-.1-.3,0-.4-.2-.6-.5.2,0,.3.2.5.2-.5-1-1.7-1.6-2.7-2.1-.3-.1-.6-.2-.8-.5,8.6,1.5,12.5,12.8,8.4,20-.1.2-.3.4-.6.4-.4,0-.6.2-.6.6,0,.3-.4.5-.2.9.1.4-.4.4-.6.7-6,7.3-17.8,7.8-24.4,1.1-.3-.3-.7-.4-1-.7-.1,0-.3,0-.4,0-.3,0-.7-.2-.7-.6,0-.2.2-.2.3,0,.2.1.4.3.6.3,0,0,0,0,.1,0h0ZM30.4,27.8c-1,.6-1.7,1.4-2.4,2.2.4-.1,2.3-1.9,2.4-2.2Z"/>
  <path id="part9" class="cls-1" d="M50.4,26.8c-.3.1-.5,0-.7,0-.2,0-.3.2-.2.4.1.3.6.4.8.2.2-.2.4-.2.6,0,1.8.8,3.3,2.1,4.6,3.5,0,.1.2.2.4.3-.1-.6-.6-.9-.9-1.4.2,0,.3,0,.3.2.5.4.8.9,1.2,1.4,2.3,3.2,3.3,7.1,3.2,11.1,0,.2,0,.3-.1.5-.2-.3,0-.8-.4-1,0,7.4-4.1,13.7-11.1,16.4-3.7,1.4-7.9,1.5-11.6,0-.6-.2-1.3-.3-1.7-.8.2,0,.3,0,.5,0,1.8.3,3.5.6,5.4.5,4.6-.3,8.7-1.6,12.1-4.8,5.8-5.3,6.4-14.9,1.2-20.9-7.7-9.1-23.6-5.4-25.9,6.4-.4,2.8,0,5.7,1.2,8.3.4.6.8,1.1,1,1.8,0,.1.2.3,0,.4-.2.1-.3,0-.4,0-.2-.1-.2-.3-.2-.4.4-.9-.4-.7-.7-1.2-7.3-13,6.6-24.8,19.4-21,.2,0,.4,0,.7,0,.6,0,1,.2,1.5.5Z"/>
  <path id="part8" class="cls-1" d="M33.9,52c2.5,1.3,4.9,2.4,7.7,2.7-1.9.4-7-1.4-7.7-2.7Z"/>
  <path id="part7" class="cls-1" d="M23.6,40.2c-.1,0-.1-.1-.1-.2-.1-.6,0-1.2,0-1.8,0,0,0-.1.1-.2.5,0,.3,2,0,2.2h0Z"/>
  <path id="part6" class="cls-1" d="M24.9,48.3c.4.5.7,1,1.1,1.5,0,.1.3.3,0,.4-.2.1-.3-.1-.4-.2-.3-.5-.6-1.1-.8-1.7h0Z"/>
  <path id="part5" class="cls-1" d="M59.3,45.2c0-.6,0-1.2-.1-1.8,0,0,0-.2.1-.2.1,0,.2,0,.2.1,0,.6,0,1.3-.2,1.9h0Z"/>
  <path id="part4" class="cls-1" d="M23.3,43.1c.2.5.5.8.5,1.4-.3-.1-.5-.8-.5-1.4Z"/>
  <path id="part3" class="cls-1" d="M23.3,42.4c-.1-.3-.2-.7,0-1,.2.3.1.7,0,1Z"/>
  <path id="part2" class="cls-1" d="M23.7,45c.2.4.3.8.4,1.3-.2-.4-.4-.8-.4-1.3Z"/>
  <path id="part1" class="cls-1" d="M35.7,40.9c0-3.1,2.6-5.8,5.7-5.8,7.9.2,7.8,11.2.2,11.6-3.3,0-5.9-2.5-5.9-5.8h0Z"/>
</svg>