<?xml version="1.0" encoding="UTF-8"?>
<svg xmlns="http://www.w3.org/2000/svg" version="1.1" xmlns:xlink="http://www.w3.org/1999/xlink" viewBox="0 0 82.7 82.7">
  <defs>
    <style>
      .cls-1 {
        fill: #ccc;
      }

      .cls-1, .cls-2, .cls-3, .cls-4, .cls-5, .cls-6, .cls-7, .cls-8, .cls-9, .cls-10, .cls-11, .cls-12, .cls-13, .cls-14, .cls-15, .cls-16, .cls-17, .cls-18, .cls-19, .cls-20, .cls-21, .cls-22, .cls-23, .cls-24, .cls-25, .cls-26, .cls-27, .cls-28, .cls-29, .cls-30, .cls-31, .cls-32, .cls-33, .cls-34, .cls-35, .cls-36, .cls-37, .cls-38, .cls-39, .cls-40, .cls-41, .cls-42, .cls-43, .cls-44, .cls-45, .cls-46, .cls-47, .cls-48, .cls-49, .cls-50, .cls-51, .cls-52, .cls-53 {
        stroke-width: 0px;
      }

      .cls-2 {
        fill: url(#linear-gradient-8);
      }

      .cls-2, .cls-4, .cls-5, .cls-6, .cls-7, .cls-8, .cls-9, .cls-10, .cls-11, .cls-12, .cls-13, .cls-14, .cls-15, .cls-16, .cls-17, .cls-18, .cls-19, .cls-20, .cls-21, .cls-22, .cls-23, .cls-24, .cls-25, .cls-26, .cls-27, .cls-28, .cls-29, .cls-30, .cls-32, .cls-33, .cls-34, .cls-35, .cls-36, .cls-37, .cls-38, .cls-39, .cls-40, .cls-41, .cls-42, .cls-43, .cls-44, .cls-45, .cls-46, .cls-47, .cls-48, .cls-49, .cls-50, .cls-51, .cls-52, .cls-53 {
        fill-rule: evenodd;
      }

      .cls-3 {
        fill: #c93;
      }

      .cls-4 {
        fill: url(#radial-gradient-2);
      }

      .cls-4, .cls-16, .cls-42 {
        mix-blend-mode: screen;
      }

      .cls-5 {
        fill: url(#linear-gradient-11);
      }

      .cls-6 {
        fill: url(#linear-gradient-30);
      }

      .cls-7 {
        fill: url(#linear-gradient-7);
      }

      .cls-8 {
        fill: url(#linear-gradient-16);
      }

      .cls-9 {
        fill: #143566;
      }

      .cls-10 {
        fill: url(#linear-gradient-9);
      }

      .cls-11 {
        fill: url(#linear-gradient-41);
      }

      .cls-12 {
        fill: url(#linear-gradient-18);
      }

      .cls-54 {
        isolation: isolate;
      }

      .cls-13 {
        fill: url(#linear-gradient-3);
      }

      .cls-14 {
        fill: url(#linear-gradient-28);
      }

      .cls-15 {
        fill: url(#linear-gradient-35);
      }

      .cls-16 {
        fill: url(#radial-gradient-3);
      }

      .cls-17 {
        fill: url(#linear-gradient-31);
      }

      .cls-18 {
        fill: url(#linear-gradient-37);
      }

      .cls-19 {
        fill: #0e2444;
      }

      .cls-20 {
        fill: url(#linear-gradient-23);
      }

      .cls-21 {
        fill: #214a72;
      }

      .cls-22 {
        fill: #132d54;
      }

      .cls-23 {
        fill: url(#linear-gradient-17);
      }

      .cls-24 {
        fill: url(#linear-gradient);
      }

      .cls-25 {
        fill: url(#linear-gradient-38);
      }

      .cls-26 {
        fill: url(#linear-gradient-13);
      }

      .cls-27 {
        fill: url(#linear-gradient-27);
      }

      .cls-28 {
        fill: url(#linear-gradient-20);
      }

      .cls-29 {
        fill: #000;
      }

      .cls-30 {
        fill: url(#linear-gradient-2);
      }

      .cls-31 {
        fill: url(#Nepojmenovaný_přechod_2);
      }

      .cls-32 {
        fill: url(#linear-gradient-15);
      }

      .cls-33 {
        fill: url(#linear-gradient-5);
      }

      .cls-34 {
        fill: url(#linear-gradient-40);
      }

      .cls-35 {
        fill: url(#linear-gradient-24);
      }

      .cls-36 {
        fill: url(#linear-gradient-29);
      }

      .cls-37 {
        fill: url(#linear-gradient-19);
      }

      .cls-38 {
        fill: url(#linear-gradient-33);
      }

      .cls-39 {
        fill: url(#linear-gradient-32);
      }

      .cls-40 {
        fill: url(#linear-gradient-39);
      }

      .cls-41 {
        fill: url(#linear-gradient-22);
      }

      .cls-42 {
        fill: url(#radial-gradient);
        opacity: .7;
      }

      .cls-43 {
        fill: url(#linear-gradient-12);
      }

      .cls-44 {
        fill: url(#linear-gradient-14);
      }

      .cls-45 {
        fill: url(#linear-gradient-25);
      }

      .cls-46 {
        fill: url(#linear-gradient-6);
      }

      .cls-47 {
        fill: url(#linear-gradient-4);
      }

      .cls-48 {
        fill: url(#linear-gradient-21);
      }

      .cls-49 {
        fill: url(#linear-gradient-36);
      }

      .cls-50 {
        fill: url(#linear-gradient-34);
      }

      .cls-51 {
        fill: url(#linear-gradient-26);
      }

      .cls-52 {
        fill: #333;
      }

      .cls-53 {
        fill: url(#linear-gradient-10);
      }
    </style>
    <linearGradient id="linear-gradient" x1="41.4" y1="67.4" x2="41.4" y2="15.3" gradientUnits="userSpaceOnUse">
      <stop offset="0" stop-color="#101524"/>
      <stop offset="1" stop-color="#1a2540"/>
    </linearGradient>
    <linearGradient id="linear-gradient-2" x1="11" y1="31.7" x2="10.3" y2="31" gradientUnits="userSpaceOnUse">
      <stop offset="0" stop-color="#efe1bb"/>
      <stop offset="1" stop-color="#edd4ae"/>
    </linearGradient>
    <linearGradient id="linear-gradient-3" x1="12" y1="32" x2="11.4" y2="31.4" gradientUnits="userSpaceOnUse">
      <stop offset="0" stop-color="#523329"/>
      <stop offset="1" stop-color="#a27048"/>
    </linearGradient>
    <linearGradient id="linear-gradient-4" x1="12.1" y1="26.7" x2="13.1" y2="26.7" gradientUnits="userSpaceOnUse">
      <stop offset="0" stop-color="#a5734a"/>
      <stop offset="1" stop-color="#e0b177"/>
    </linearGradient>
    <linearGradient id="linear-gradient-5" x1="13.1" y1="27.2" x2="14" y2="27.2" gradientUnits="userSpaceOnUse">
      <stop offset="0" stop-color="#a27048"/>
      <stop offset="1" stop-color="#523329"/>
    </linearGradient>
    <linearGradient id="linear-gradient-6" x1="51.7" y1="10.3" x2="51" y2="11" gradientUnits="userSpaceOnUse">
      <stop offset="0" stop-color="#8c6c51"/>
      <stop offset="1" stop-color="#dec2a0"/>
    </linearGradient>
    <linearGradient id="linear-gradient-7" x1="51.4" y1="11.4" x2="50.7" y2="12" gradientUnits="userSpaceOnUse">
      <stop offset="0" stop-color="#a27048"/>
      <stop offset="1" stop-color="#523329"/>
    </linearGradient>
    <linearGradient id="linear-gradient-8" x1="72.4" y1="51.7" x2="71.7" y2="51" gradientUnits="userSpaceOnUse">
      <stop offset="0" stop-color="#523329"/>
      <stop offset="1" stop-color="#a27048"/>
    </linearGradient>
    <linearGradient id="linear-gradient-9" x1="71.4" y1="51.4" x2="70.7" y2="50.7" gradientUnits="userSpaceOnUse">
      <stop offset="0" stop-color="#efe1bb"/>
      <stop offset="1" stop-color="#edd4ae"/>
    </linearGradient>
    <linearGradient id="linear-gradient-10" x1="69.7" y1="56" x2="70.6" y2="56" gradientUnits="userSpaceOnUse">
      <stop offset="0" stop-color="#a27048"/>
      <stop offset="1" stop-color="#523329"/>
    </linearGradient>
    <linearGradient id="linear-gradient-11" x1="68.7" y1="55.5" x2="69.7" y2="55.5" gradientUnits="userSpaceOnUse">
      <stop offset="0" stop-color="#a5734a"/>
      <stop offset="1" stop-color="#e0b177"/>
    </linearGradient>
    <linearGradient id="linear-gradient-12" x1="23.5" y1="41.4" x2="23.5" y2="5.6" gradientUnits="userSpaceOnUse">
      <stop offset="0" stop-color="#b28251"/>
      <stop offset="1" stop-color="#e0b177"/>
    </linearGradient>
    <linearGradient id="linear-gradient-13" x1="24.3" y1="41.4" x2="24.3" y2="7.2" gradientUnits="userSpaceOnUse">
      <stop offset="0" stop-color="#b28251"/>
      <stop offset="1" stop-color="#523329"/>
    </linearGradient>
    <linearGradient id="linear-gradient-14" x1="56" y1="13.1" x2="56" y2="12.1" gradientUnits="userSpaceOnUse">
      <stop offset="0" stop-color="#efe1bb"/>
      <stop offset="1" stop-color="#edd4ae"/>
    </linearGradient>
    <linearGradient id="linear-gradient-15" x1="55.5" y1="14" x2="55.5" y2="13.1" gradientUnits="userSpaceOnUse">
      <stop offset="0" stop-color="#694426"/>
      <stop offset="1" stop-color="#92652d"/>
    </linearGradient>
    <linearGradient id="linear-gradient-16" x1="31.7" y1="71.7" x2="31" y2="72.4" gradientUnits="userSpaceOnUse">
      <stop offset="0" stop-color="#a27048"/>
      <stop offset="1" stop-color="#523329"/>
    </linearGradient>
    <linearGradient id="linear-gradient-17" x1="32" y1="70.7" x2="31.4" y2="71.4" gradientUnits="userSpaceOnUse">
      <stop offset="0" stop-color="#e2bb7e"/>
      <stop offset="1" stop-color="#ece2a9"/>
    </linearGradient>
    <linearGradient id="linear-gradient-18" x1="26.7" y1="70.6" x2="26.7" y2="69.7" xlink:href="#linear-gradient-15"/>
    <linearGradient id="linear-gradient-19" x1="27.2" y1="69.7" x2="27.2" y2="68.7" xlink:href="#linear-gradient-14"/>
    <linearGradient id="linear-gradient-20" x1="58.5" x2="58.5" xlink:href="#linear-gradient-13"/>
    <linearGradient id="linear-gradient-21" x1="59.3" x2="59.3" xlink:href="#linear-gradient-12"/>
    <linearGradient id="linear-gradient-22" x1="24.3" y1="75.5" x2="24.3" y2="41.4" gradientUnits="userSpaceOnUse">
      <stop offset="0" stop-color="#fcd4a4"/>
      <stop offset="1" stop-color="#b28251"/>
    </linearGradient>
    <linearGradient id="linear-gradient-23" x1="23.5" y1="77.1" x2="23.5" y2="41.4" gradientUnits="userSpaceOnUse">
      <stop offset="0" stop-color="#523329"/>
      <stop offset="1" stop-color="#b28251"/>
    </linearGradient>
    <linearGradient id="linear-gradient-24" y1="26.7" y2="26.7" xlink:href="#linear-gradient-10"/>
    <linearGradient id="linear-gradient-25" y1="27.2" y2="27.2" xlink:href="#linear-gradient-11"/>
    <linearGradient id="linear-gradient-26" x1="58.5" x2="58.5" xlink:href="#linear-gradient-22"/>
    <linearGradient id="linear-gradient-27" x1="59.3" x2="59.3" xlink:href="#linear-gradient-23"/>
    <linearGradient id="linear-gradient-28" x1="56" y1="70.6" x2="56" y2="69.7" xlink:href="#linear-gradient-15"/>
    <linearGradient id="linear-gradient-29" x1="55.5" y1="69.7" x2="55.5" y2="68.7" xlink:href="#linear-gradient-14"/>
    <linearGradient id="linear-gradient-30" x1="51.7" y1="72.4" x2="51" y2="71.7" xlink:href="#linear-gradient-8"/>
    <linearGradient id="linear-gradient-31" x1="51.4" y1="71.4" x2="50.7" y2="70.7" xlink:href="#linear-gradient-9"/>
    <linearGradient id="linear-gradient-32" y1="56" y2="56" xlink:href="#linear-gradient-4"/>
    <linearGradient id="linear-gradient-33" y1="55.5" y2="55.5" xlink:href="#linear-gradient-5"/>
    <linearGradient id="linear-gradient-34" x1="72.4" y1="31" x2="71.7" y2="31.7" xlink:href="#linear-gradient-6"/>
    <linearGradient id="linear-gradient-35" x1="71.4" y1="31.4" x2="70.7" y2="32" xlink:href="#linear-gradient-7"/>
    <linearGradient id="linear-gradient-36" x1="11" y1="51" x2="10.3" y2="51.7" gradientUnits="userSpaceOnUse">
      <stop offset="0" stop-color="#a27048"/>
      <stop offset="1" stop-color="#523329"/>
    </linearGradient>
    <linearGradient id="linear-gradient-37" x1="12" y1="50.7" x2="11.4" y2="51.4" xlink:href="#linear-gradient-17"/>
    <linearGradient id="linear-gradient-38" x1="26.7" x2="26.7" xlink:href="#linear-gradient-14"/>
    <linearGradient id="linear-gradient-39" x1="27.2" x2="27.2" xlink:href="#linear-gradient-15"/>
    <linearGradient id="linear-gradient-40" x1="31.7" y1="11" x2="31" y2="10.3" xlink:href="#linear-gradient-2"/>
    <linearGradient id="linear-gradient-41" x1="32" y1="12" x2="31.4" y2="11.4" xlink:href="#linear-gradient-3"/>
    <radialGradient id="radial-gradient" cx="30.2" cy="14.3" fx="30.2" fy="14.3" r="43.1" gradientUnits="userSpaceOnUse">
      <stop offset="0" stop-color="#435eb0"/>
      <stop offset="1" stop-color="#000"/>
    </radialGradient>
    <radialGradient id="radial-gradient-2" cx="12.9" cy="11.3" fx="12.9" fy="11.3" r="24.9" gradientUnits="userSpaceOnUse">
      <stop offset="0" stop-color="#efe5b8"/>
      <stop offset="1" stop-color="#000"/>
    </radialGradient>
    <radialGradient id="radial-gradient-3" cx="40.1" cy="-.6" fx="40.1" fy="-.6" r="42.6" xlink:href="#radial-gradient-2"/>
    <linearGradient id="Nepojmenovaný_přechod_2" data-name="Nepojmenovaný přechod 2" x1="29.5" y1="-484.1" x2="55.4" y2="-510.3" gradientTransform="translate(0 -454.4) scale(1 -1)" gradientUnits="userSpaceOnUse">
      <stop offset="0" stop-color="ivory"/>
      <stop offset=".2" stop-color="#edd4ae"/>
      <stop offset=".3" stop-color="#d7b790"/>
      <stop offset=".4" stop-color="#c59e76"/>
      <stop offset=".5" stop-color="#b68b62"/>
      <stop offset=".6" stop-color="#ac7d54"/>
      <stop offset=".8" stop-color="#a6754c"/>
      <stop offset="1" stop-color="#a5734a"/>
    </linearGradient>
  </defs>
  <g class="cls-54">
    <g id="Layer_1" data-name="Layer 1">
      <g>
        <polygon class="cls-52" points="52.7 14 30 14 14 30 14 52.7 30 68.7 52.7 68.7 68.7 52.7 68.7 30 52.7 14 52.7 14"/>
        <polygon class="cls-24" points="52.2 15.3 30.6 15.3 15.3 30.6 15.3 52.2 30.6 67.4 52.2 67.4 67.4 52.2 67.4 30.6 52.2 15.3 52.2 15.3"/>
        <path class="cls-1" d="M.7,40.7L41.4,0l41.4,41.4-41.4,41.4C27.6,68.9,13.8,55.2,0,41.4l.7-.7h0ZM41.4,2.7L2.7,41.4l38.7,38.7,38.7-38.7L41.4,2.7h0Z"/>
        <path class="cls-1" d="M41.4,5.6c9.9,0,18.8,4,25.3,10.5,6.5,6.5,10.5,15.4,10.5,25.3s-4,18.8-10.5,25.3-15.4,10.5-25.3,10.5-18.8-4-25.3-10.5c-6.5-6.5-10.5-15.4-10.5-25.3s4-18.8,10.5-25.3c6.5-6.5,15.4-10.5,25.3-10.5h0ZM64.4,18.3c-5.9-5.9-14-9.5-23-9.5s-17.1,3.6-23,9.5-9.5,14-9.5,23,3.6,17.1,9.5,23c5.9,5.9,14,9.5,23,9.5s17.1-3.6,23-9.5c5.9-5.9,9.5-14,9.5-23s-3.6-17.1-9.5-23h0Z"/>
        <path class="cls-3" d="M13.1,12.1h57.5v58.5H12.1c0-19.5,0-39,0-58.5h1ZM68.7,14H14v54.7h54.7V14h0Z"/>
        <polygon class="cls-30" points="1.4 41.4 21.4 21.4 20.7 20.7 .7 40.7 0 41.4 1.4 41.4 1.4 41.4"/>
        <polygon class="cls-13" points="21.4 21.4 1.4 41.4 2.7 41.4 22 22 21.4 21.4 21.4 21.4"/>
        <polygon class="cls-47" points="13.1 13.1 13.1 41.4 12.1 41.4 12.1 13.1 12.1 12.1 13.1 13.1 13.1 13.1"/>
        <polygon class="cls-33" points="13.1 41.4 13.1 13.1 14 14 14 41.4 13.1 41.4 13.1 41.4"/>
        <polygon class="cls-46" points="41.4 1.4 61.4 21.4 62.1 20.7 42 .7 41.4 0 41.4 1.4 41.4 1.4"/>
        <polygon class="cls-7" points="61.4 21.4 41.4 1.4 41.4 2.7 60.7 22 61.4 21.4 61.4 21.4"/>
        <polygon class="cls-2" points="62.1 62.1 61.4 61.4 81.4 41.4 82.7 41.4 62.1 62.1 62.1 62.1"/>
        <polygon class="cls-10" points="81.4 41.4 61.4 61.4 60.7 60.7 80 41.4 81.4 41.4 81.4 41.4"/>
        <polygon class="cls-53" points="70.6 41.4 69.7 41.4 69.7 69.7 70.6 70.6 70.6 41.4 70.6 41.4"/>
        <polygon class="cls-5" points="69.7 69.7 69.7 41.4 68.7 41.4 68.7 68.7 69.7 69.7 69.7 69.7"/>
        <path class="cls-43" d="M7.2,41.4C7.2,22.5,22.5,7.2,41.4,7.2v-1.6c-9.9,0-18.8,4-25.3,10.5-6.5,6.5-10.5,15.4-10.5,25.3h1.6Z"/>
        <path class="cls-26" d="M18.3,18.3c5.9-5.9,14-9.5,23-9.5v-1.6C22.5,7.2,7.2,22.5,7.2,41.4h1.6c0-9,3.6-17.1,9.5-23h0Z"/>
        <polygon class="cls-44" points="41.4 12.1 41.4 13.1 69.7 13.1 70.6 12.1 41.4 12.1 41.4 12.1"/>
        <polygon class="cls-32" points="69.7 13.1 41.4 13.1 41.4 14 68.7 14 69.7 13.1 69.7 13.1"/>
        <polygon class="cls-8" points="20.7 62.1 21.4 61.4 41.4 81.4 41.4 82.7 20.7 62.1 20.7 62.1"/>
        <polygon class="cls-23" points="41.4 81.4 21.4 61.4 22 60.7 41.4 80 41.4 81.4 41.4 81.4"/>
        <polygon class="cls-12" points="13.1 69.7 41.4 69.7 41.4 70.6 13.1 70.6 12.1 70.6 13.1 69.7 13.1 69.7"/>
        <polygon class="cls-37" points="41.4 69.7 13.1 69.7 14 68.7 41.4 68.7 41.4 69.7 41.4 69.7"/>
        <path class="cls-28" d="M41.4,8.8c9,0,17.1,3.6,23,9.5,5.9,5.9,9.5,14,9.5,23h1.6c0-18.9-15.3-34.2-34.2-34.2v1.6h0Z"/>
        <path class="cls-48" d="M41.4,7.2c18.9,0,34.2,15.3,34.2,34.2h1.6c0-9.9-4-18.8-10.5-25.3-6.5-6.5-15.4-10.5-25.3-10.5v1.6h0Z"/>
        <path class="cls-41" d="M18.3,64.4c-5.9-5.9-9.5-14-9.5-23h-1.6c0,18.9,15.3,34.2,34.2,34.2v-1.6c-9,0-17.1-3.6-23-9.5h0Z"/>
        <path class="cls-20" d="M41.4,75.5c-18.9,0-34.2-15.3-34.2-34.2h-1.6c0,9.9,4,18.8,10.5,25.3,6.5,6.5,15.4,10.5,25.3,10.5v-1.6h0Z"/>
        <polygon class="cls-35" points="69.7 13.1 69.7 41.4 70.6 41.4 70.6 13.1 70.6 12.1 69.7 13.1 69.7 13.1"/>
        <polygon class="cls-45" points="69.7 41.4 69.7 13.1 68.7 14 68.7 41.4 69.7 41.4 69.7 41.4"/>
        <path class="cls-51" d="M64.4,64.4c-5.9,5.9-14,9.5-23,9.5v1.6c18.9,0,34.2-15.3,34.2-34.2h-1.6c0,9-3.6,17.1-9.5,23h0Z"/>
        <path class="cls-27" d="M75.5,41.4c0,18.9-15.3,34.2-34.2,34.2v1.6c9.9,0,18.8-4,25.3-10.5s10.5-15.4,10.5-25.3h-1.6Z"/>
        <polygon class="cls-14" points="41.4 70.6 41.4 69.7 69.7 69.7 70.6 70.6 41.4 70.6 41.4 70.6"/>
        <polygon class="cls-36" points="69.7 69.7 41.4 69.7 41.4 68.7 68.7 68.7 69.7 69.7 69.7 69.7"/>
        <polygon class="cls-6" points="41.4 81.4 61.4 61.4 62.1 62.1 42 82.1 41.4 82.7 41.4 81.4 41.4 81.4"/>
        <polygon class="cls-17" points="61.4 61.4 41.4 81.4 41.4 80 60.7 60.7 61.4 61.4 61.4 61.4"/>
        <polygon class="cls-39" points="12.1 41.4 13.1 41.4 13.1 69.7 12.1 70.6 12.1 41.4 12.1 41.4"/>
        <polygon class="cls-38" points="13.1 69.7 13.1 41.4 14 41.4 14 68.7 13.1 69.7 13.1 69.7"/>
        <polygon class="cls-50" points="62.1 20.7 61.4 21.4 81.4 41.4 82.7 41.4 62.1 20.7 62.1 20.7"/>
        <polygon class="cls-15" points="81.4 41.4 61.4 21.4 60.7 22 80 41.4 81.4 41.4 81.4 41.4"/>
        <polygon class="cls-49" points="1.4 41.4 21.4 61.4 20.7 62.1 .7 42 0 41.4 1.4 41.4 1.4 41.4"/>
        <polygon class="cls-18" points="21.4 61.4 1.4 41.4 2.7 41.4 22 60.7 21.4 61.4 21.4 61.4"/>
        <polygon class="cls-25" points="13.1 13.1 41.4 13.1 41.4 12.1 13.1 12.1 12.1 12.1 13.1 13.1 13.1 13.1"/>
        <polygon class="cls-40" points="41.4 13.1 13.1 13.1 14 14 41.4 14 41.4 13.1 41.4 13.1"/>
        <polygon class="cls-34" points="20.7 20.7 21.4 21.4 41.4 1.4 41.4 0 20.7 20.7 20.7 20.7"/>
        <polygon class="cls-11" points="41.4 1.4 21.4 21.4 22 22 41.4 2.7 41.4 1.4 41.4 1.4"/>
        <polygon class="cls-21" points="52.2 15.3 52.7 14 30 14 30.6 15.3 52.2 15.3 52.2 15.3"/>
        <polygon class="cls-22" points="67.4 52.2 68.7 52.7 68.7 30 67.4 30.6 67.4 52.2 67.4 52.2"/>
        <polygon class="cls-19" points="67.4 30.6 68.7 30 52.7 14 52.2 15.3 67.4 30.6 67.4 30.6"/>
        <polygon class="cls-29" points="52.2 67.4 52.7 68.7 68.7 52.7 67.4 52.2 52.2 67.4 52.2 67.4"/>
        <polygon class="cls-29" points="52.2 67.4 52.7 68.7 30 68.7 30.6 67.4 52.2 67.4 52.2 67.4"/>
        <polygon class="cls-22" points="15.3 52.2 14 52.7 14 30 15.3 30.6 15.3 52.2 15.3 52.2"/>
        <polygon class="cls-19" points="30.6 67.4 30 68.7 14 52.7 15.3 52.2 30.6 67.4 30.6 67.4"/>
        <polygon class="cls-9" points="15.3 30.6 14 30 30 14 30.6 15.3 15.3 30.6 15.3 30.6"/>
        <polygon class="cls-42" points="30.2 14.3 30.2 15.3 19.2 26.7 30.7 15.6 47.4 15.3 30.8 15 30.2 14.3 30.2 14.3"/>
        <polygon class="cls-4" points="13.1 18.8 12.8 13.1 12.3 12.3 13.2 12.9 27.5 13.1 13.2 13.2 13.1 18.8 13.1 18.8"/>
        <polygon class="cls-16" points="16.9 25.8 41.2 1.2 41.4 .2 41.6 1.2 45 5 41.4 1.8 16.9 25.8 16.9 25.8"/>
      </g>
      <path id="shopIcon" class="cls-31" d="M40.4,59.5c2.5,2.5,6.5,2.5,8.9,0l9.9-9.9c2.5-2.5,2.5-6.5,0-8.9l-13.3-13.3c-1.8-1.8-4.3-2.8-6.9-2.8h-10c-2.6,0-4.8,2.1-4.8,4.8v10c0,2.6,1,5,2.8,6.9l13.2,13.2h0ZM30.8,28.9c1.2,0,2.2,1,2.2,2.2s-1,2.2-2.2,2.2-2.2-1-2.2-2.2,1-2.2,2.2-2.2Z"/>
    </g>
  </g>
</svg>