<?xml version="1.0" encoding="UTF-8"?>
<svg id="Vrstva_1" data-name="Vrstva 1" xmlns="http://www.w3.org/2000/svg" version="1.1" viewBox="0 0 82.7 82.7">
  <defs>
    <style>
      .cls-1 {
        fill: #2bc7ac;
        stroke-width: 0px;
      }
    </style>
  </defs>
  <polyline id="swordIcon" class="cls-1" points="24.2 57.4 24.2 51.2 28.4 51.2 28.4 49.1 30.5 49.1 30.5 47 32.6 47 32.6 44.9 30.5 44.9 30.5 40.7 28.4 40.7 28.4 36.6 32.6 36.6 32.6 38.7 34.7 38.7 34.7 40.7 36.7 40.7 36.7 38.7 38.8 38.7 38.8 36.6 40.9 36.6 40.9 34.5 43 34.5 43 32.4 45.1 32.4 45.1 30.3 47.2 30.3 47.2 28.3 49.2 28.3 49.2 26.2 51.3 26.2 51.3 24.1 57.6 24.1 57.6 30.3 55.5 30.3 55.5 32.4 53.4 32.4 53.4 34.5 51.3 34.5 51.3 36.6 49.2 36.6 49.2 38.7 47.2 38.7 47.2 40.7 45.1 40.7 45.1 42.8 43 42.8 43 44.9 40.9 44.9 40.9 47 43 47 43 49.1 45.1 49.1 45.1 53.2 40.9 53.2 40.9 51.2 36.7 51.2 36.7 49.1 34.7 49.1 34.7 51.2 32.6 51.2 32.6 53.2 30.5 53.2 30.5 57.4"/>
</svg>